<?xml version="1.0" encoding="UTF-8"?>
<svg width="90px" height="90px" viewBox="0 0 90 90" version="1.1" xmlns="http://www.w3.org/2000/svg" xmlns:xlink="http://www.w3.org/1999/xlink">
    <!-- Generator: Sketch 46.2 (44496) - http://www.bohemiancoding.com/sketch -->
    <title>Group 194</title>
    <desc>Created with Sketch.</desc>
    <defs></defs>
    <g id="Page-1" stroke="none" stroke-width="1" fill="none" fill-rule="evenodd">
        <g id="Group-194">
            <circle id="Oval-12-Copy-10" fill="#3DC0BC" cx="45" cy="45" r="45"></circle>
            <g id="noun_Map_1089637-Copy-4" transform="translate(25.000000, 23.000000)" fill-rule="nonzero" fill="#FFFFFF">
                <g id="Group">
                    <polygon id="Shape" points="25.7820638 28.3398438 12.434082 25.008138 0.951334667 26.6516113 0.715332 25.0020345 12.5203451 23.3121745 25.8846028 26.6471354 39.0633138 25 39.2700195 26.6536458"></polygon>
                    <rect id="Rectangle-path" x="11.6723633" y="9.99348875" width="1.66666683" height="27.2534212"></rect>
                    <rect id="Rectangle-path" x="25" y="19.9934896" width="1.66666667" height="20.5867513"></rect>
                    <path d="M25.8333333,21.5592448 L25.1277669,20.4370118 C24.5174153,19.4665528 19.1666667,10.8585612 19.1666667,7.49348958 C19.1666667,3.81754558 22.1573893,0.826822917 25.8333333,0.826822917 C29.5092773,0.826822917 32.5,3.81754558 32.5,7.49348958 C32.5,10.8585612 27.1492513,19.4665528 26.5388998,20.4370118 L25.8333333,21.5592448 Z M25.8333333,2.49348958 C23.0761718,2.49348958 20.8333333,4.73632817 20.8333333,7.49348958 C20.8333333,9.63175458 23.9811198,15.3169759 25.8333333,18.3996582 C27.6855469,15.316569 30.8333333,9.63094075 30.8333333,7.49348958 C30.8333333,4.73632817 28.5904948,2.49348958 25.8333333,2.49348958 Z" id="Shape"></path>
                    <path d="M25.7820638,40.8398438 L12.4446615,37.508138 L0,39.2879232 L0,10.9375 L12.5203451,9.14550783 L22.1427409,11.5470378 L22.3111979,11.9055176 C23.4472657,14.3245443 24.9593099,16.9348144 25.8333333,18.3935547 C26.6414388,17.0450846 27.9947917,14.7135417 29.0901692,12.4617513 L29.2879232,12.055664 L40,10.7161458 L40,39.0625 L25.7820638,40.8398438 Z M12.5325521,35.8121745 L25.8846028,39.1471354 L38.3333333,37.5911458 L38.3333333,12.6041667 L30.3889974,13.5974121 C28.7027995,16.986084 26.5608724,20.4016113 26.5388997,20.4370117 L25.8333333,21.5592448 L25.1277669,20.4370118 C25.0260417,20.2750652 22.6912435,16.5506999 20.9733073,12.972819 L12.434082,10.8414713 L1.66666667,12.3828125 L1.66666667,37.3657227 L12.5325521,35.8121745 Z" id="Shape"></path>
                    <path d="M25.8333333,10.8268229 C23.9949544,10.8268229 22.5,9.33146158 22.5,7.49348958 C22.5,5.65551758 23.9949544,4.16015625 25.8333333,4.16015625 C27.6717122,4.16015625 29.1666667,5.65551758 29.1666667,7.49348958 C29.1666667,9.33146158 27.6717123,10.8268229 25.8333333,10.8268229 Z M25.8333333,5.82682292 C24.9145508,5.82682292 24.1666667,6.57430017 24.1666667,7.49348958 C24.1666667,8.412679 24.9145508,9.16015625 25.8333333,9.16015625 C26.7521159,9.16015625 27.5,8.412679 27.5,7.49348958 C27.5,6.57430017 26.7521159,5.82682292 25.8333333,5.82682292 Z" id="Shape"></path>
                </g>
            </g>
        </g>
    </g>
</svg>