<?xml version="1.0" encoding="UTF-8"?>
<svg width="90px" height="90px" viewBox="0 0 90 90" version="1.1" xmlns="http://www.w3.org/2000/svg" xmlns:xlink="http://www.w3.org/1999/xlink">
    <!-- Generator: Sketch 46.2 (44496) - http://www.bohemiancoding.com/sketch -->
    <title>Group 222</title>
    <desc>Created with Sketch.</desc>
    <defs></defs>
    <g id="Page-1" stroke="none" stroke-width="1" fill="none" fill-rule="evenodd">
        <g id="Group-222">
            <circle id="Oval-12-Copy-13" fill="#3DC0BC" cx="45" cy="45" r="45"></circle>
            <g id="noun_growth_1016135-copy-4" transform="translate(23.000000, 22.000000)" fill-rule="nonzero" fill="#FFFFFF">
                <path d="M45.6472578,29.5161201 C45.5229982,29.8122186 45.3640673,30.0931794 45.1736577,30.3533586 C45.0829883,30.48433 44.983228,30.6090334 44.8750836,30.7265854 C44.7772749,30.8325011 44.6382836,30.9838093 44.5765096,31.039289 L42.7284395,32.78942 L40.3758823,34.9783448 C38.8761485,36.5385 37.3541075,38.071756 35.8097592,39.5781128 L33.4880889,41.8275608 L32.8806452,42.387401 C32.648993,42.6093197 32.4070451,42.8161075 32.1496537,43.0128081 C30.6183847,44.1896576 28.7413789,44.8527601 26.795913,44.9041601 L26.3223128,44.9041601 L25.9156344,44.9041601 L25.1022777,44.9041601 L23.4704163,44.8587677 L16.9584143,44.6771979 C15.1206399,44.6318054 13.3034567,44.5158025 11.5789344,44.3090147 C10.462969,45.1463 9.28996963,45.9079736 8.06811599,46.5887243 C7.2702027,47.0325616 6.61642859,47.2141314 6.66790687,46.6341167 C6.77388133,46.1469135 7.01017448,45.6960798 7.35256794,45.327823 L10.2816819,42.5185348 L10.2816819,42.5185348 C10.5697146,42.2439137 10.9556716,42.0901234 11.3575779,42.0898283 C15.9185531,42.0898283 20.4898241,42.0444359 25.0507994,42.0898283 L26.7032521,42.0898283 C28.0892731,42.0339731 29.4213798,41.5482996 30.5074967,40.7028368 C30.8369577,40.4506566 31.2899665,40.0169065 31.7017927,39.6588105 L32.9630105,38.5441737 C33.8106861,37.8078074 34.6686574,37.0832094 35.5369243,36.3703798 L41.5289957,30.2272685 L42.2805785,29.4656841 L42.6563699,29.0823701 C42.7318447,29.0021007 42.8006985,28.9160894 42.862283,28.8251462 C43.2218205,28.3070561 43.2623372,27.6374955 42.9678006,27.0814122 C42.6732639,26.5253289 42.0911402,26.1723392 41.4517783,26.1621226 C41.0676,26.1518175 40.6908603,26.2671651 40.3810301,26.4899569 C40.3283181,26.5248339 40.2784099,26.563615 40.2317431,26.6059599 L40.1957083,26.6362215 L40.1339344,26.6917011 L40.0155344,26.8077041 L38.0645077,28.6385328 L34.1212717,32.2346234 C33.544073,32.7795437 32.8947908,33.2460441 32.1908363,33.6216149 C31.8168361,35.2953573 30.4293354,36.5705557 28.7006092,36.8293479 C28.4568757,36.8638596 28.2106965,36.8790397 27.9644698,36.8747404 L27.4496871,36.8747404 L26.3840867,36.8293479 C24.1338905,36.8008397 21.9065886,36.3824978 19.805163,35.5936646 C19.2286063,35.3515716 18.8425192,35.0338244 19.1359454,34.655554 C19.3814304,34.4011496 19.7121735,34.2418116 20.0677022,34.2066731 C21.776781,34.2520656 23.4910076,34.2571092 25.2155299,34.247022 L27.7894437,34.247022 C27.9264304,34.2593587 28.0642832,34.2593587 28.2012699,34.247022 C28.3017072,34.2328688 28.4001582,34.2074852 28.4946961,34.1713679 C28.6884032,34.0997218 28.8640093,33.9878888 29.0094788,33.8435335 C29.3005466,33.5545439 29.4554011,33.1597079 29.4367485,32.7541148 C29.4224591,32.3362898 29.2368836,31.9417438 28.9219658,31.6596524 C28.7557734,31.5140566 28.5614753,31.402582 28.3505569,31.3318181 C28.2363951,31.2953277 28.1192962,31.2683328 28.0005046,31.2511204 L27.362174,31.2006843 C26.5144984,31.1300739 25.6685387,31.039289 24.824295,30.9283296 C21.0560851,31.0292018 17.2878753,31.1855535 13.4990742,31.2158152 L12.577613,31.2158152 C12.3387113,31.2130545 12.0998352,31.2231569 11.862065,31.2460768 C11.3883657,31.2909782 10.9217902,31.3908694 10.4721515,31.5436495 C9.78227417,31.7678534 9.14144264,32.1168531 8.58289875,32.572545 L7.92397681,33.1424724 C6.96648087,33.9696237 6.00898493,34.2571092 5.49420216,33.863708 C4.9794194,33.4703068 5.41183692,32.4514985 6.24063717,31.5133879 L6.79145473,30.8930244 C7.00993904,30.6502492 7.24376731,30.421155 7.49155929,30.2070941 C8.52972309,29.317178 9.79143429,28.7147643 11.1465169,28.4620066 C11.4865566,28.3981784 11.8304693,28.3560597 12.1760824,28.3359165 C12.546726,28.3359165 12.8092652,28.3359165 13.0872479,28.3359165 C15.3214051,28.3359165 17.5607102,28.3661781 19.7794239,28.4267014 L21.895181,28.5124427 C23.3211293,28.4468758 24.7470776,28.4216578 26.167878,28.4216578 L27.2334783,28.4216578 C27.6144176,28.4216578 27.8615133,28.4216578 28.4638091,28.4620066 C29.5322481,28.5848914 30.5176147,29.0873389 31.2333404,29.8742161 C31.5592364,30.2325865 31.818805,30.6439256 32.0003667,31.089725 C32.1273465,30.9417793 32.259474,30.7938335 32.3967494,30.6458877 C33.5327034,29.4085232 34.6892487,28.1846083 35.8663853,26.974143 L37.6475336,25.1634887 L38.0953946,24.7146078 C38.1520207,24.6540846 38.3013077,24.5179072 38.41456,24.4170351 C38.5278122,24.316163 38.6668035,24.2152909 38.800647,24.1194624 C39.3418971,23.7549869 39.9560542,23.5074209 40.6023867,23.3931832 C42.2507285,23.0941165 43.9337961,23.7040387 44.9867695,24.9820277 C46.0397429,26.2600168 46.2932898,28.0005545 45.6472578,29.5161201 Z M40.6075345,9.03908238 L40.3141084,9.95701855 C39.9022821,11.1725274 39.4904559,12.3829927 39.0065601,13.5531092 C38.542963,14.710942 38.0100963,15.840989 37.4107336,16.9373684 C36.8439402,17.9727457 36.1526421,18.9379013 35.3516025,19.8122234 C34.652758,20.5778549 33.7369711,21.1221724 32.7210626,21.3757411 C32.2420076,21.4861821 31.7459359,21.5067185 31.2590795,21.4362644 C30.7252394,21.3731194 30.2044187,21.2302421 29.7147312,21.0126015 C29.198519,20.7911213 28.7083288,20.5154757 28.2527482,20.1904938 C28.0243777,20.0336184 27.8044431,19.8652733 27.5938262,19.6861333 C27.0483893,19.2037421 26.3362987,18.9423398 25.6016169,18.9548105 C24.8323614,18.9681595 24.1025939,19.2910006 23.5836685,19.8475287 C23.4573653,19.9860331 23.3452884,20.1363853 23.2490597,20.2964095 L23.0997727,20.5485898 C23.0071118,20.7099852 22.9195987,20.8764242 22.8320857,21.0529503 C22.4908335,21.7059137 22.2016912,22.3837824 21.9672506,23.0804797 C21.8194397,23.6259805 21.8427598,24.2024541 22.0341724,24.7347823 C22.3327464,25.2895789 22.7342769,24.6843462 23.2078771,23.8773694 C23.6129669,23.1969049 24.0581493,22.540125 24.5411645,21.9103633 C24.7831123,21.6127905 25.0559472,21.1941713 25.241269,21.1437352 C25.4447498,21.0525777 25.681679,21.0697022 25.869304,21.1891277 C25.9116172,21.2154956 25.9497709,21.2477794 25.9825562,21.2849562 C25.9995534,21.3021498 26.0150511,21.3207078 26.0288866,21.3404359 L26.0855127,21.4766132 C26.2502432,21.6480958 26.4218375,21.816216 26.6002955,21.9809737 C26.9674593,22.3083616 27.3617681,22.6052757 27.779148,22.8686483 C28.6599168,23.4320014 29.647254,23.8161962 30.6825228,23.9984159 C32.0022931,24.2499116 33.3684432,24.1148345 34.6103153,23.6100583 C35.7882587,23.0945686 36.8410442,22.3398756 37.6990119,21.3959155 C39.2768646,19.626818 40.5198167,17.5960336 41.369413,15.3990687 C42.2177705,13.2965279 42.9060299,11.1353163 43.4285441,8.93316666 L43.4851702,8.69611721 C43.7271776,7.56462831 43.009779,6.44895496 41.8636045,6.17431453 L41.7555001,6.17431453 L41.7040218,6.17431453 L41.5959174,6.17431453 L41.3848565,6.13900929 L39.6912212,5.84648018 C39.130108,5.74056447 38.5484035,5.69012841 37.9769946,5.61951794 C37.4055857,5.54890746 36.8341769,5.47829699 36.2473245,5.45307896 C35.6604722,5.42786094 35.1045068,5.31690162 34.5279501,5.27150917 L32.7776887,5.13028822 C30.8413367,5.07808833 28.9093363,5.33706095 27.0584522,5.89691623 L26.6981042,6.01291916 L26.3377563,6.16927092 L25.6222083,6.48701806 C25.390556,6.6131082 25.1589038,6.75937275 24.9323994,6.8955501 L24.5926427,7.10738152 L24.2734774,7.36460539 C23.3802162,8.04580766 22.6728271,8.93293381 22.2143464,9.94693134 C22.1098345,10.1951085 22.0271683,10.4515849 21.9672506,10.7135594 L21.8437028,11.101917 L21.7613375,11.4902746 C21.6415497,12.0099967 21.5811204,12.541158 21.5811636,13.0739667 C21.5829477,14.1069121 21.7711679,15.1314092 22.1371289,16.1001299 C22.1834594,16.22622 22.224642,16.3270921 22.2812681,16.4632695 C22.6912438,17.4602658 23.7942196,18.0027496 24.8551819,17.7292144 C25.0220005,17.6842799 25.1827273,17.6199362 25.3339299,17.5375574 L25.4883647,17.4518161 L25.7457561,17.3055516 L26.2605389,17.0231097 C26.9921295,16.649046 27.743002,16.3123547 28.5101396,16.0143886 C29.2790552,15.736025 30.0287736,15.4091885 30.7545924,15.0359292 C31.3157056,14.718182 31.6297231,14.4004349 31.4649926,14.0726005 C31.2899665,13.4925859 29.6889921,13.2555365 27.629861,13.8607691 C26.7030483,14.1405433 25.7952193,14.4774559 24.911808,14.8694902 L24.6080862,15.0107111 L24.6080862,14.9703623 C24.4099786,14.2442374 24.3471993,13.4890524 24.4227644,12.7410887 C24.5056832,12.0321802 24.7314015,11.3464487 25.0868342,10.7236466 C25.7309409,9.72670624 26.7022465,8.97428761 27.840922,8.5902015 C29.1159203,8.1358744 30.4544429,7.87563093 31.8098971,7.81852988 C34.6863854,7.69152935 37.5681628,7.89465405 40.3964736,8.42376252 L40.7568215,8.51959102 L40.7310824,8.60028871 L40.6075345,9.03908238 Z M18.2144843,9.00882074 C17.3588021,8.64466711 16.4801499,8.33468901 15.5839443,8.08079736 C14.7215263,7.81548655 13.8211765,7.68776626 12.9173696,7.70252695 C12.2224129,7.7428758 11.7899954,7.9345328 11.7694041,8.29767239 C11.8569171,8.95838469 13.0718045,9.6291842 14.9044311,10.3151145 C15.7170922,10.6254801 16.5096208,10.9842457 17.2775796,11.3894025 C17.4697652,11.4902746 17.6568029,11.5928279 17.8386929,11.6970624 L17.9725364,11.7777601 L18.0085712,11.7777601 L18.1012321,11.8281961 C18.1709478,11.8635784 18.2432099,11.8939209 18.3174408,11.918981 C18.6169081,12.0265113 18.9397328,12.0560547 19.2543455,12.0047223 C19.8957307,11.9000135 20.4366805,11.4786843 20.6854415,10.8900855 C20.7986938,10.6227745 20.881059,10.385725 20.9634242,10.1486756 C21.3016917,9.13799181 21.4363136,8.07254384 21.359807,7.01155302 C21.2686304,5.92346601 20.9309773,4.8689868 20.3714241,3.92486654 L19.9904848,3.36502634 C19.8517191,3.18967525 19.7039579,3.02133848 19.5477716,2.86066581 C19.2444019,2.53285955 18.9100149,2.23395124 18.5490931,1.96794766 C18.1887379,1.72724728 17.815877,1.50502986 17.4320145,1.30219175 C17.0407796,1.13575277 16.6546925,0.944095768 16.2634576,0.797831213 C14.7347092,0.286482026 13.1324571,0.0174685063 11.5171605,0.000941565655 C8.46199075,-0.0199446004 5.41467326,0.306713576 2.43639254,0.974357401 L1.92160978,1.02479345 L1.66936622,1.05001148 L1.54067053,1.05001148 L1.45830529,1.05001148 L1.28842698,1.09036032 C0.40985215,1.35619869 -0.130293366,2.22021468 0.0272092056,3.10780247 L0.408148451,5.12524461 C0.686682954,6.44991056 1.04072151,7.75825308 1.46860095,9.04412598 C1.90650877,10.3693811 2.44865608,11.659368 3.09016665,12.9024841 C3.76908579,14.2061405 4.62448208,15.4140587 5.63319351,16.4935311 C6.76034008,17.6963348 8.2314218,18.5382639 9.85441218,18.9094181 C11.5114197,19.2351319 13.2314172,19.030011 14.7602919,18.3243598 C15.4778158,18.0107952 16.1594164,17.6236397 16.7936838,17.1693742 C17.0253361,17.0029352 17.236397,16.8264091 17.4526058,16.6650137 L17.5864493,16.9222376 C17.838968,17.4402364 18.0456397,17.9785154 18.2041886,18.5311477 C18.3638088,18.9605521 18.6187561,19.3498733 18.9506236,19.6710025 C19.3933368,20.0240549 19.6610238,19.4389966 19.6713195,18.5160169 C19.6747355,17.7176398 19.5620678,16.9228558 19.3367107,16.1556095 C19.2749368,15.9538653 19.2131628,15.7521211 19.1359454,15.5503769 C19.0521747,15.2894635 18.907667,15.0511914 18.7138236,14.8543594 C18.2344821,14.3956795 17.542574,14.2209235 16.8966404,14.3953913 C16.7290061,14.4379493 16.5679788,14.5024134 16.4178924,14.5870483 C16.3407992,14.6289471 16.2668289,14.6761386 16.1965358,14.7282692 L16.0523967,14.8291413 C15.8842343,14.9434631 15.71264,15.0544224 15.5376139,15.1620193 C15.1909963,15.3745099 14.8317235,15.5665094 14.4617179,15.7369903 C13.7448565,16.0785953 12.9766109,16.305084 12.1863781,16.4077898 C11.2941407,16.535466 10.3833219,16.3984473 9.57128166,16.0143886 C8.73464518,15.5839772 7.99975896,14.9859754 7.41434188,14.2592139 C6.14689459,12.6458829 5.16541441,10.8351931 4.51096708,8.90290503 C3.86538665,7.09947984 3.31554894,5.26451332 2.86366224,3.40537519 L4.01677563,3.18345655 C4.53155839,3.06745363 5.09267161,3.00693036 5.62804568,2.91614547 C6.16341976,2.82536057 6.70394166,2.73457567 7.23931574,2.68413962 C7.77468981,2.63370356 8.31006389,2.61352914 8.83514231,2.60344193 L10.4155254,2.60344193 C12.003262,2.60952603 13.5809163,2.8509906 15.0949007,3.31963389 L15.3625878,3.40537519 L15.6045357,3.52137811 L16.0935793,3.74329674 C16.2428663,3.82903804 16.3818576,3.92486654 16.5259968,4.01060783 L16.7422056,4.14174157 L16.9275274,4.29809333 C17.4307225,4.68054691 17.8287869,5.17975354 18.0857886,5.75065168 C18.3580446,6.34517211 18.510135,6.98574883 18.5336496,7.63696008 C18.5388103,8.12950707 18.4817507,8.62078746 18.3637713,9.09960564 L18.2144843,9.00882074 Z" id="Shape"></path>
            </g>
        </g>
    </g>
</svg>