<?xml version="1.0" encoding="UTF-8"?>
<svg width="90px" height="90px" viewBox="0 0 90 90" version="1.1" xmlns="http://www.w3.org/2000/svg" xmlns:xlink="http://www.w3.org/1999/xlink">
    <!-- Generator: Sketch 46.2 (44496) - http://www.bohemiancoding.com/sketch -->
    <title>Group 193</title>
    <desc>Created with Sketch.</desc>
    <defs></defs>
    <g id="Page-1" stroke="none" stroke-width="1" fill="none" fill-rule="evenodd">
        <g id="Group-193">
            <circle id="Oval-12" fill="#3DC0BC" cx="45" cy="45" r="45"></circle>
            <g id="noun_Trophy_998575-Copy-5" transform="translate(25.000000, 27.000000)" stroke-width="2" stroke="#FFFFFF">
                <g id="Group">
                    <path d="M20.0000099,28.6956522 L19.99999,28.6956522 C14.2976777,28.6956522 9.463112,24.5026547 8.6566833,18.8576541 L6.35594661,1.97395113 C6.2136567,0.929777304 7.0253273,0 8.0791507,0 L31.9208494,0 C32.9746744,0 33.7863425,0.929777304 33.6440543,1.97395113 L31.3433175,18.8576537 C30.5368871,24.5026547 25.7023223,28.6956522 20.0000099,28.6956522 Z" id="Shape"></path>
                    <rect id="Rectangle-path" x="17.3913043" y="28.6956522" width="5.2173913" height="4.34782609"></rect>
                    <path d="M27.826087,36.5217391 L12.173913,36.5217391 C11.6936659,36.5217391 11.3043478,36.9110572 11.3043478,37.3913043 L11.3043478,40 L28.6956522,40 L28.6956522,37.3913043 C28.6956522,36.9110572 28.3063341,36.5217391 27.826087,36.5217391 Z" id="Shape"></path>
                    <path d="M26.0869565,33.0434783 L13.9130435,33.0434783 C13.4327963,33.0434783 13.0434783,33.4327963 13.0434783,33.9130435 L13.0434783,35.6521739 C13.0434783,36.132421 13.4327963,36.5217391 13.9130435,36.5217391 L26.0869565,36.5217391 C26.5672037,36.5217391 26.9565217,36.132421 26.9565217,35.6521739 L26.9565217,33.9130435 C26.9565217,33.4327963 26.5672037,33.0434783 26.0869565,33.0434783 Z" id="Shape"></path>
                    <path d="M32.7528879,6.95652174 L38.1824328,6.95652174 C39.3525929,6.95652174 40.2183533,7.99676313 39.9513444,9.08869374 C39.0977312,12.5795447 36.7679828,19.1304348 31.3043478,19.1304348" id="Shape"></path>
                    <path d="M7.24711209,6.95652174 L1.81756687,6.95652174 C0.647406609,6.95652174 -0.218353217,7.99676313 0.0486552174,9.08869374 C0.902269217,12.5795447 3.23201843,19.1304348 8.69565217,19.1304348" id="Shape"></path>
                </g>
            </g>
        </g>
    </g>
</svg>