<?xml version="1.0" encoding="UTF-8"?>
<svg width="90px" height="90px" viewBox="0 0 90 90" version="1.1" xmlns="http://www.w3.org/2000/svg" xmlns:xlink="http://www.w3.org/1999/xlink">
    <!-- Generator: Sketch 46.2 (44496) - http://www.bohemiancoding.com/sketch -->
    <title>Group 220</title>
    <desc>Created with Sketch.</desc>
    <defs></defs>
    <g id="Page-1" stroke="none" stroke-width="1" fill="none" fill-rule="evenodd">
        <g id="Group-220">
            <circle id="Oval-12-Copy-8" fill="#3DC0BC" cx="45" cy="45" r="45"></circle>
            <g id="noun_Briefcase_1016139-Copy" transform="translate(23.000000, 19.000000)" fill-rule="nonzero" fill="#FFFFFF">
                <path d="M31.1060327,3.43804778 C31.1116426,3.53998816 31.1116426,3.64216506 31.1060327,3.74410544 L31.1060327,3.99405254 C31.0555825,4.65717748 30.9849523,5.31520146 30.9193672,5.97322544 C30.8998098,6.64205984 30.3923137,7.19230359 29.733789,7.25866764 C29.0325321,7.30967725 28.6793812,6.71796576 28.5885709,6.00383121 C28.5078507,5.37641299 28.4523555,4.74899478 28.4119954,4.1164756 L28.3867704,3.64208622 L28.3867704,3.540067 C28.3857522,3.52137764 28.3857522,3.50264579 28.3867704,3.48395643 C28.3599957,3.41544727 28.3225227,3.35172553 28.2757801,3.29522087 C28.230084,3.23838451 28.1734432,3.19152808 28.1092946,3.15749492 C28.0383772,3.11674692 27.9587454,3.0939927 27.877224,3.09118242 C27.1709221,3.06057666 26.5655205,3.06057666 25.9248037,3.01976897 L24.7442706,2.93305263 C23.1674125,3.04576924 21.5849587,3.05428896 20.0070029,2.95855744 C19.2149357,2.91774975 18.4228686,2.86163917 17.6358465,2.80042764 C17.2830702,2.73420002 16.9268056,2.89700927 16.7428791,3.20850453 C16.7010109,3.27722778 16.6639245,3.34881422 16.6318888,3.42274489 C16.5843524,3.52408934 16.5536707,3.63266622 16.5410785,3.74410544 C16.482831,4.06865685 16.4036229,4.38900267 16.3039629,4.70308613 C16.1089906,5.33545416 15.8105636,5.93030616 15.4210855,6.46291771 C15.1789249,6.78937922 14.861089,7.00872054 14.482713,6.84038883 C14.2910025,6.75367249 14.0236168,6.48842251 14.0337068,6.33029272 C14.0337068,5.85080238 14.0690219,5.36621107 14.0740669,4.88672073 L14.0740669,3.60637949 L14.0740669,3.30542279 C14.1349647,2.45360078 14.4924589,1.65116257 15.0830696,1.04059606 C15.684442,0.430729168 16.48355,0.0611644602 17.3331457,0 L17.6257565,0 L18.1605279,0 L18.8769198,0 C19.3511511,0 19.8304274,0.0459086499 20.3046586,0.0816153775 C21.2608254,0.156980642 22.2101857,0.303606581 23.1450013,0.520298032 L26.2930897,0.346865354 C26.8278612,0.321360549 27.3020925,0.290754782 27.892359,0.275451899 C28.7560743,0.271706853 29.5850378,0.619100642 30.1928852,1.23953355 C30.5688344,1.62591979 30.8399001,2.10378847 30.9799073,2.62699496 C31.0571953,2.89052651 31.0996062,3.16325092 31.1060327,3.43804778 L31.1060327,3.43804778 Z M6.52672663,43.8682654 C6.20579274,43.2588747 5.99884482,42.5948311 5.91627999,41.9094964 L5.87591988,41.3994002 C5.87591988,41.2259676 5.87591988,40.9709195 5.87591988,40.7617801 L5.85069482,39.4355302 C5.81033471,37.6705977 5.75147622,35.9073655 5.67411934,34.1458336 C5.5833091,32.1411559 5.23015815,30.4782425 4.52890126,30.6261704 C3.82764438,30.7740983 3.41899828,32.1819635 3.34332308,34.2376509 L3.13647752,39.7874965 L3.10116243,41.1800589 C3.09160179,41.7196045 3.12874012,42.2589616 3.21215273,42.7919626 C3.38946983,43.8820161 3.78611538,44.9236894 4.37755086,45.8525393 C5.31990129,47.3448248 6.71189529,48.4911566 8.34797653,49.1222553 C9.15424221,49.4396277 10.0062085,49.6222475 10.8704833,49.6629572 C11.0773289,49.6629572 11.3144445,49.6629572 11.50111,49.6629572 L12.0560615,49.6629572 L13.1609195,49.6629572 L22.0250083,49.4793226 C24.6685954,49.7037649 27.3222725,49.8363899 29.9910847,49.9180053 C31.3364216,49.958813 32.6716685,49.9860181 33.9968254,49.9996207 C37.3456836,50.0312899 40.402738,48.0777418 41.8115514,45.0057797 C42.1615301,44.2587024 42.3979468,43.4624808 42.5128083,42.6440348 C42.5748767,42.2371527 42.6085931,41.826364 42.6137086,41.4147031 L42.6137086,40.3945109 C42.6137086,37.6859006 42.6137086,34.9721893 42.6540687,32.2737808 C42.6330462,31.7481961 42.4784038,31.2369605 42.2050625,30.7894012 C41.8317315,30.3201127 41.5088506,30.9322281 41.26669,31.8453001 C40.8543304,33.4673787 40.5592588,35.1176465 40.3838126,36.7830305 C40.2829123,37.6603958 40.2072371,38.5632659 40.151742,39.4763379 C40.0962468,40.38941 40.0861568,41.3840974 39.9751665,42.1084338 C39.8251312,43.0452119 39.4586979,43.9330066 38.9056236,44.6997221 C38.3500789,45.4497393 37.6344431,46.0634678 36.811943,46.4952604 C35.9963795,46.9037447 35.0986801,47.1166944 34.188536,47.1175776 L30.8941421,47.0563661 C26.4494852,46.9747507 21.9997832,46.9492459 17.5349462,47.0563661 L14.2254173,46.9696498 L11.5767852,46.9288421 L11.4304798,46.9288421 L11.2993095,46.9288421 L11.0420138,46.9288421 C10.8723436,46.9175641 10.7037225,46.8936953 10.5375124,46.8574286 C10.3663716,46.8327887 10.1976017,46.7935412 10.0330111,46.7401065 L9.78580539,46.673794 L9.54868975,46.5819767 C8.24714294,46.0813319 7.17208415,45.1159333 6.52672663,43.8682654 Z M10.8099431,31.47293 C10.4366121,31.1311656 10.1137313,31.5749492 9.87157062,32.2380741 C9.07357588,34.6743475 8.65488883,37.2212118 8.63049728,39.7874965 L8.58509216,41.0015253 L8.58509216,41.3075829 C8.58080223,41.4695338 8.58923709,41.6315734 8.61031723,41.7921743 C8.65476109,42.1234044 8.75546015,42.444383 8.90797303,42.740953 C9.40604863,43.6598796 10.3490856,44.2424631 11.3850747,44.2712413 L11.9955213,44.2712413 L16.8084643,44.4293711 C20.0170929,44.5109865 23.2358115,44.5364913 26.4595752,44.4293711 L28.8509116,44.5160875 L32.6447618,44.5926019 L33.5932244,44.5926019 L33.83034,44.5926019 C33.9261952,44.5926019 33.9463753,44.5926019 34.1330408,44.5926019 C34.4348796,44.5822053 34.7337761,44.5289749 35.0209632,44.4344721 C36.3513969,43.9907807 37.2543427,42.7393086 37.2659942,41.3228858 L37.2659942,40.6189532 L37.2659942,39.6599725 L37.2155441,37.7471121 C37.175184,36.4718718 37.1163255,35.1983319 37.0389686,33.9264922 C36.9481584,32.4778193 36.5950074,31.2739925 35.8937505,31.3760117 C35.1924936,31.4780309 34.7838476,32.4982231 34.7081723,33.9877038 L34.5215068,38.0021602 L34.4609667,40.0119388 L34.4609667,41.032131 L34.4609667,41.2820781 C34.4631928,41.304125 34.4631928,41.3263438 34.4609667,41.3483906 C34.4609667,41.3483906 34.4609667,41.3483906 34.4609667,41.3789964 C34.4552597,41.4207859 34.445111,41.461831 34.4306966,41.5014195 C34.376961,41.6323704 34.2675551,41.7317402 34.1330408,41.7717704 C34.0978036,41.7751253 34.0623327,41.7751253 34.0270955,41.7717704 L33.6285394,41.7717704 L32.8314273,41.7717704 L29.5925286,41.8788906 L23.2055414,42.0523233 C19.3679342,41.6477041 15.5106968,41.4637734 11.6524604,41.5014195 L11.3497596,41.5014195 C11.3253727,41.4950317 11.3028728,41.482782 11.2841744,41.4657127 C11.2439104,41.4329396 11.2184415,41.3851157 11.2135442,41.3330878 L11.2135442,38.4306409 C11.2135442,36.4718718 11.2135442,34.5131028 11.2539043,32.5594347 C11.2251739,32.164549 11.069227,31.7900678 10.8099431,31.4933338 L10.8099431,31.47293 Z M21.939243,25.6680362 L23.3821169,25.7547526 L24.2094991,25.7802574 C24.273699,27.3085799 24.4422676,28.8305908 24.7140005,30.3354156 C24.8012026,31.1511761 25.124058,31.9229128 25.642283,32.5543337 C26.0862442,32.9573096 26.4545302,32.646151 26.5756105,31.7177761 C26.8231489,29.9781183 26.9730576,28.2256835 27.0246167,26.4688871 C27.0246167,25.7343487 27.0246167,24.9998103 27.0246167,24.2754739 L27.0246167,24.1989594 L27.0246167,24.1989594 C27.002674,23.5303565 26.449925,23.0056948 25.7885884,23.0257384 C23.8613932,23.0869499 21.939243,23.1940701 20.0170929,23.2705845 L19.7093471,23.2144739 L19.7093471,23.2144739 C19.4878863,23.1744119 19.2597585,23.2250188 19.0752278,23.3551444 C18.8906971,23.4852699 18.7649056,23.6842363 18.7255694,23.9082047 L18.6599842,24.2805748 C18.2348778,27.0591647 18.0659851,29.8716764 18.1554829,32.6818577 L18.1554829,32.6818577 C18.1554829,33.5270126 18.8331017,34.2121461 19.6689869,34.2121461 C21.7878926,34.2121461 23.9572485,34.0387134 26.0458841,33.8652807 C26.2930897,33.8652807 26.4797552,33.6051317 26.4545302,33.4572038 C26.4091251,33.17155 25.8945337,32.9471077 25.3345372,32.7889779 C23.8837918,32.26662 22.3894817,31.877376 20.8697002,31.6259588 C20.9907805,29.6518868 21.1017708,27.6778149 21.1269959,25.703743 L21.939243,25.6680362 Z M44.7275693,25.1018295 C44.8404734,24.8352772 44.903755,24.5499459 44.9142348,24.260171 L44.9142348,23.7500749 L44.9142348,22.7706903 L45,18.0625032 L45,16.8841812 L45,16.2975707 C45,16.0884313 45,15.7874746 44.9697299,15.5681333 C44.7520684,13.4927933 43.3982971,11.717713 41.4684905,10.9772683 C40.9946136,10.7910574 40.4968549,10.6742555 39.9903015,10.6304029 L39.6119255,10.6304029 L39.3142697,10.6304029 L38.7290482,10.6304029 L34.1330408,10.5232827 C27.9125391,10.4416674 21.6769023,10.4161626 15.4261305,10.5232827 L10.7897631,10.4365664 L7.1119482,10.3906578 L6.19375574,10.3906578 L5.72961449,10.3906578 C5.52276893,10.3906578 5.31592338,10.3906578 5.10907782,10.4263645 C2.52942502,10.7214794 0.463618883,12.7245574 0.0640642686,15.3181862 C0.0283720638,15.5272126 0.00813597216,15.7386378 0.00352410592,15.9507053 L0.00352410592,16.251662 L0.00352410592,19.2816329 L0.00352410592,22.9951326 L0.00352410592,23.9235075 L0.00352410592,24.3366854 C-0.00117470197,24.4199334 -0.00117470197,24.5033845 0.00352410592,24.5866325 C0.141198514,25.6040126 0.810180578,26.4675445 1.75414381,26.8463582 C1.90810093,26.906973 2.06670782,26.9547415 2.22837508,26.9891852 L2.45540069,27.0299928 L2.91449693,27.1167092 C5.36301017,27.5655938 7.82161344,27.8954559 10.2903067,28.1062956 C13.0953343,28.3460408 15.4463106,28.1062956 15.2848702,27.4125649 C15.1234297,26.7188342 13.2214596,26.1577285 10.4366121,25.7496516 C7.91410536,25.3772814 5.43195869,24.907993 2.95990205,24.3468873 L2.84386674,24.3213825 L2.78837159,24.3213825 L2.78837159,24.3213825 L2.78837159,24.3213825 L2.78837159,24.3213825 C2.78222143,24.3031958 2.78222143,24.2834586 2.78837159,24.2652719 L2.78837159,22.3524115 L2.78837159,18.4552772 L2.78837159,16.1088351 C2.79334182,15.9252303 2.81529932,15.7424989 2.85395676,15.5630323 C3.016621,14.8385396 3.43899803,14.2006739 4.03953495,13.772595 C4.33370874,13.5429408 4.66719603,13.3700251 5.02331259,13.2624988 C5.19934134,13.2109215 5.38029922,13.1784324 5.56312904,13.1655806 C5.66907433,13.1655806 5.72456948,13.1655806 5.86582986,13.1655806 L6.2542959,13.1655806 L9.35193422,13.1247729 L21.7323975,12.9513402 C25.4303924,13.1757825 29.1485674,13.3084075 32.8818774,13.3900229 C34.7485325,13.4308306 36.6185508,13.4580357 38.4919325,13.4716383 L39.1780544,13.4716383 C39.40508,13.4716383 39.6825557,13.4716383 39.793546,13.4716383 C40.0920988,13.4897225 40.3854799,13.5587072 40.6612883,13.6756767 C41.2164978,13.9137726 41.679083,14.3295193 41.9780369,14.8590997 C42.1237558,15.1215438 42.2276143,15.405588 42.2857827,15.7007583 L42.3210978,15.9252005 L42.3210978,16.1547438 L42.3210978,19.6795079 L42.3210978,22.5258442 L42.3210978,24.0204258 L41.7358762,24.1428489 L40.3787676,24.4029979 C39.4706651,24.5696293 38.560881,24.7192575 37.6494153,24.8518825 C35.8231203,25.1239337 33.9917804,25.3313728 32.1553955,25.4741997 C31.4658278,25.5551085 30.7970287,25.7643723 30.1827952,26.091416 C29.5673035,26.5147958 30.4249558,26.7851467 31.6962993,26.9228727 C33.9939533,27.1482134 36.3067623,27.1686962 38.6079678,26.9840842 C39.8339061,26.8922669 41.0901145,26.74944 42.3614579,26.5556035 L42.8356892,26.479089 C43.072314,26.4476203 43.3033246,26.3823575 43.521811,26.2852525 C44.0577857,26.0599151 44.488874,25.6368122 44.7275693,25.1018295 Z" id="Shape"></path>
            </g>
        </g>
    </g>
</svg>