<?xml version="1.0" encoding="UTF-8"?>
<svg width="90px" height="90px" viewBox="0 0 90 90" version="1.1" xmlns="http://www.w3.org/2000/svg" xmlns:xlink="http://www.w3.org/1999/xlink">
    <!-- Generator: Sketch 46.2 (44496) - http://www.bohemiancoding.com/sketch -->
    <title>Group 191</title>
    <desc>Created with Sketch.</desc>
    <defs></defs>
    <g id="Page-1" stroke="none" stroke-width="1" fill="none" fill-rule="evenodd">
        <g id="Group-191">
            <circle id="Oval-12-Copy-8" fill="#3DC0BC" cx="45" cy="45" r="45"></circle>
            <g id="noun_bag_746393-copy-5" transform="translate(25.000000, 26.000000)" fill-rule="nonzero" fill="#FFFFFF">
                <g id="Group">
                    <path d="M37.8461538,37.973138 L2.15384615,37.973138 C1.10769231,37.973138 0.307692308,37.1184371 0.307692308,36.1416361 L0.307692308,7.87545788 C0.307692308,6.83760684 1.16923077,6.04395604 2.15384615,6.04395604 L37.8461538,6.04395604 C38.8923077,6.04395604 39.6923077,6.8986569 39.6923077,7.87545788 L39.6923077,36.1416361 C39.6923077,37.1184371 38.8307692,37.973138 37.8461538,37.973138 Z M2.15384615,7.26495726 C1.78461538,7.26495726 1.53846154,7.57020757 1.53846154,7.87545788 L1.53846154,36.1416361 C1.53846154,36.5079365 1.78461538,36.7521368 2.15384615,36.7521368 L37.8461538,36.7521368 C38.2153846,36.7521368 38.4615385,36.4468864 38.4615385,36.1416361 L38.4615385,7.87545788 C38.4615385,7.50915751 38.1538462,7.26495726 37.8461538,7.26495726 L2.15384615,7.26495726 Z" id="Shape"></path>
                    <path d="M33.2923077,22.039072 L28.9230769,22.039072 C28.5538462,22.039072 28.3076923,21.7948718 28.3076923,21.4285714 L28.3076923,16.1782662 C28.3076923,15.8119658 28.5538462,15.5677656 28.9230769,15.5677656 L33.2923077,15.5677656 C33.6615385,15.5677656 33.9076923,15.8119658 33.9076923,16.1782662 L33.9076923,21.4285714 C33.9076923,21.7338217 33.6,22.039072 33.2923077,22.039072 Z M29.5384615,20.8180708 L32.6769231,20.8180708 L32.6769231,16.7887668 L29.5384615,16.7887668 L29.5384615,20.8180708 Z" id="Shape"></path>
                    <path d="M11.0769231,22.039072 L6.70769231,22.039072 C6.33846154,22.039072 6.09230769,21.7948718 6.09230769,21.4285714 L6.09230769,16.1782662 C6.09230769,15.8119658 6.33846154,15.5677656 6.70769231,15.5677656 L11.0769231,15.5677656 C11.4461538,15.5677656 11.6923077,15.8119658 11.6923077,16.1782662 L11.6923077,21.4285714 C11.6923077,21.7338217 11.4461538,22.039072 11.0769231,22.039072 Z M7.32307692,20.8180708 L10.4615385,20.8180708 L10.4615385,16.7887668 L7.32307692,16.7887668 L7.32307692,20.8180708 Z" id="Shape"></path>
                    <g transform="translate(3.692308, 4.884005)" id="Shape">
                        <path d="M31.8153846,1.77045177 L28.5538462,1.77045177 C28.1846154,1.77045177 27.9384615,1.52625153 27.9384615,1.15995116 C27.9384615,0.793650794 28.1846154,0.549450549 28.5538462,0.549450549 L31.8153846,0.549450549 C32.1846154,0.549450549 32.4307692,0.793650794 32.4307692,1.15995116 C32.4307692,1.52625153 32.1230769,1.77045177 31.8153846,1.77045177 Z"></path>
                        <path d="M4.12307692,1.77045177 L0.8,1.77045177 C0.430769231,1.77045177 0.184615385,1.52625153 0.184615385,1.15995116 C0.184615385,0.793650794 0.430769231,0.549450549 0.8,0.549450549 L4.06153846,0.549450549 C4.43076923,0.549450549 4.67692308,0.793650794 4.67692308,1.15995116 C4.67692308,1.52625153 4.43076923,1.77045177 4.12307692,1.77045177 Z"></path>
                    </g>
                    <path d="M6.70769231,19.1086691 L0.923076923,19.1086691 C0.553846154,19.1086691 0.307692308,18.8644689 0.307692308,18.4981685 C0.307692308,18.1318681 0.553846154,17.8876679 0.923076923,17.8876679 L6.70769231,17.8876679 C7.07692308,17.8876679 7.32307692,18.1318681 7.32307692,18.4981685 C7.32307692,18.8644689 7.07692308,19.1086691 6.70769231,19.1086691 Z" id="Shape"></path>
                    <path d="M39.0769231,19.1086691 L33.2923077,19.1086691 C32.9230769,19.1086691 32.6769231,18.8644689 32.6769231,18.4981685 C32.6769231,18.1318681 32.9230769,17.8876679 33.2923077,17.8876679 L39.0769231,17.8876679 C39.4461538,17.8876679 39.6923077,18.1318681 39.6923077,18.4981685 C39.6923077,18.8644689 39.4461538,19.1086691 39.0769231,19.1086691 Z" id="Shape"></path>
                    <path d="M28.9230769,19.1086691 L11.0769231,19.1086691 C10.7076923,19.1086691 10.4615385,18.8644689 10.4615385,18.4981685 C10.4615385,18.1318681 10.7076923,17.8876679 11.0769231,17.8876679 L28.9230769,17.8876679 C29.2923077,17.8876679 29.5384615,18.1318681 29.5384615,18.4981685 C29.5384615,18.8644689 29.2307692,19.1086691 28.9230769,19.1086691 Z" id="Shape"></path>
                    <path d="M33.2923077,22.039072 L28.9230769,22.039072 C28.5538462,22.039072 28.3076923,21.7948718 28.3076923,21.4285714 L28.3076923,16.1782662 C28.3076923,15.8119658 28.5538462,15.5677656 28.9230769,15.5677656 L33.2923077,15.5677656 C33.6615385,15.5677656 33.9076923,15.8119658 33.9076923,16.1782662 L33.9076923,21.4285714 C33.9076923,21.7338217 33.6,22.039072 33.2923077,22.039072 Z M29.5384615,20.8180708 L32.6769231,20.8180708 L32.6769231,16.7887668 L29.5384615,16.7887668 L29.5384615,20.8180708 Z M11.0769231,22.039072 L6.70769231,22.039072 C6.33846154,22.039072 6.09230769,21.7948718 6.09230769,21.4285714 L6.09230769,16.1782662 C6.09230769,15.8119658 6.33846154,15.5677656 6.70769231,15.5677656 L11.0769231,15.5677656 C11.4461538,15.5677656 11.6923077,15.8119658 11.6923077,16.1782662 L11.6923077,21.4285714 C11.6923077,21.7338217 11.4461538,22.039072 11.0769231,22.039072 Z M7.32307692,20.8180708 L10.4615385,20.8180708 L10.4615385,16.7887668 L7.32307692,16.7887668 L7.32307692,20.8180708 Z M28.2461538,7.26495726 C27.8769231,7.26495726 27.6307692,7.02075702 27.6307692,6.65445665 L27.6307692,2.13675214 C27.6307692,1.89255189 27.4461538,1.70940171 27.2,1.70940171 L12.8,1.70940171 C12.5538462,1.70940171 12.3692308,1.89255189 12.3692308,2.13675214 L12.3692308,6.65445665 C12.3692308,7.02075702 12.1230769,7.26495726 11.7538462,7.26495726 C11.3846154,7.26495726 11.1384615,7.02075702 11.1384615,6.65445665 L11.1384615,2.13675214 C11.1384615,1.22100122 11.8769231,0.488400488 12.8,0.488400488 L27.2615385,0.488400488 C28.1846154,0.488400488 28.9230769,1.22100122 28.9230769,2.13675214 L28.9230769,6.65445665 C28.8615385,6.95970696 28.5538462,7.26495726 28.2461538,7.26495726 Z" id="Shape"></path>
                </g>
            </g>
        </g>
    </g>
</svg>