<?xml version="1.0" encoding="UTF-8"?>
<svg width="90px" height="90px" viewBox="0 0 90 90" version="1.1" xmlns="http://www.w3.org/2000/svg" xmlns:xlink="http://www.w3.org/1999/xlink">
    <!-- Generator: Sketch 46.2 (44496) - http://www.bohemiancoding.com/sketch -->
    <title>Group 221</title>
    <desc>Created with Sketch.</desc>
    <defs></defs>
    <g id="Page-1" stroke="none" stroke-width="1" fill="none" fill-rule="evenodd">
        <g id="Group-221">
            <circle id="Oval-12-Copy-12" fill="#3DC0BC" cx="45" cy="45" r="45"></circle>
            <g id="noun_talk_1016148-copy" transform="translate(21.000000, 23.000000)" fill-rule="nonzero" fill="#FFFFFF">
                <path d="M14.9041634,26.2721084 C15.4740557,25.5486804 15.7310704,24.6389572 15.6208553,23.7353225 C15.3089511,21.7980266 13.679525,20.3126134 11.6639084,20.1281009 C10.4933572,20.2456164 9.43022248,20.8413154 8.74162242,21.7655254 C8.08729742,22.6465748 7.84049496,23.7513467 8.06026039,24.8155338 C8.32578696,26.1725208 9.25018339,27.3224803 10.5434464,27.904645 C10.7182205,27.9822308 10.8869072,28.0720803 11.048159,28.1734759 C11.2033332,28.2588531 11.3459333,28.3640717 11.4721176,28.4862973 C11.7262461,28.6875275 11.8936374,28.9733958 11.9415004,29.2879021 C11.9818774,29.6300505 11.7850395,29.87933 11.3913636,30.0406285 C11.1658686,30.1184518 10.9291087,30.1613401 10.6898131,30.1677122 C10.400242,30.1674864 10.1118928,30.1313483 9.83180166,30.0601799 C7.63259855,29.502191 5.91880322,27.8331289 5.3550008,25.7002318 C4.78801245,23.5374373 5.46230673,21.2462948 7.12149494,19.6979715 C7.63274469,19.2382763 8.21517201,18.8589476 8.84761206,18.5737697 C10.068429,17.8916348 11.4892986,17.6233098 12.8853129,17.8112675 C14.2876569,17.997429 15.5868214,18.6282286 16.5798093,19.6051027 C17.5590494,20.5692028 18.1803344,21.8206902 18.3463034,23.1634459 C18.5104433,24.4707632 18.2286223,25.7941988 17.5438103,26.931966 C17.0095087,27.829057 16.179407,28.5262319 15.1868025,28.9115388 C14.3363912,29.2489549 13.3850902,29.2594439 12.526967,28.9408658 C12.0626314,28.7404646 11.8304636,28.4520824 12.0222544,28.0610557 C12.1234119,27.8440389 12.3028778,27.6702372 12.526967,27.5722723 C13.4696161,27.4719406 14.328697,27.0020821 14.9041634,26.2721084 L14.9041634,26.2721084 Z M13.6221934,36.4632426 L13.3193658,36.6978586 C13.1249947,36.8668731 12.9033523,37.0039171 12.6632394,37.1035488 C12.0661659,37.3310681 11.3884211,37.224176 10.8967453,36.8249423 L7.36375699,33.6429623 L6.17768235,33.6771771 C5.77364797,33.6903989 5.3746255,33.768015 4.99665485,33.9069053 C4.25335093,34.1816322 3.63342863,34.7006728 3.24530209,35.3732556 C3.02036141,35.7319883 2.86632497,36.1281305 2.79106074,36.5414479 C2.79106074,36.6440924 2.79106074,36.7516248 2.76077798,36.8591571 C2.73049522,36.9666895 2.76077798,37.1426515 2.76077798,37.2843987 L2.7254481,38.1690967 L2.53365731,41.6932251 C2.45795041,43.0129403 1.98856769,43.8976383 1.34758267,43.9905071 C0.706597655,44.083376 0.267497684,43.0129403 0.201885044,41.7518791 C0.121131027,40.6374529 0.0622478886,39.5230267 0.0252356305,38.4086005 L0,37.5727809 L0,37.1524272 C0,37.0155678 0,36.8835963 0,36.6636438 C0.0160729018,35.9100447 0.1876786,35.1671769 0.504712611,34.4787819 C1.49456839,32.387295 3.65564216,31.0493883 6.0313157,31.057298 L7.78771558,31.0964007 L7.83818684,31.0964007 C8.19884759,31.1049924 8.54152078,31.250729 8.79209368,31.5020909 L8.82742356,31.5363058 L10.3415614,33.0857492 C10.873192,33.5517227 11.3980931,34.0225841 11.9162647,34.4983332 C12.9694317,33.5012151 14.0343753,32.5236483 15.1110956,31.5656328 L15.1716611,31.5118666 C15.4208591,31.2884848 15.750843,31.1690852 16.090238,31.1794939 L17.1602288,31.2137087 L17.6952241,31.2137087 C17.8870149,31.2137087 18.1393712,31.2430357 18.3614448,31.2625871 C19.2643485,31.3802021 20.1275312,31.6961874 20.8850078,32.1863877 C22.4002745,33.1629887 23.3390541,34.7849137 23.4085709,36.5463357 C23.4162756,36.8643415 23.4061665,37.1825179 23.3782881,37.4994634 C23.3580996,37.7927334 23.332864,38.0843742 23.3025812,38.3743857 C23.2420157,38.956038 23.1663088,39.5279146 23.0704134,40.0851277 C22.8907304,41.1566993 22.5946722,42.2068928 22.1871664,43.2182293 C21.9449043,43.7998816 21.6269354,44.1957961 21.2484009,43.8878626 C20.991406,43.6365357 20.8326129,43.3065103 20.7992067,42.9542863 C20.8294894,41.7421034 20.8446308,40.5103692 20.8446308,39.3030742 L20.8446308,36.8298301 L20.8446308,36.6783073 C20.7525116,35.6514714 20.102426,34.7499594 19.1387022,34.3125956 C18.7599855,34.1317283 18.3485964,34.0238268 17.9273919,33.9948863 L17.7608368,33.9948863 L17.5236218,33.9948863 L17.0542391,33.9948863 L16.6454219,33.9948863 C16.0448139,34.5227724 15.4442059,35.0457707 14.8234094,35.5492176 C14.423004,35.8457462 14.0225987,36.1504212 13.6221934,36.4632426 Z M12.4563072,34.9968923 L12.4310716,34.9724532 L12.4310716,34.9724532 L12.4310716,34.9724532 L12.4563072,34.9968923 Z M38.0856136,27.5722723 C37.8615244,27.6702372 37.6820585,27.8440389 37.580901,28.0610557 C37.3941573,28.4325311 37.6263251,28.7404646 38.0856136,28.9408658 C38.9437368,29.2594439 39.8950378,29.2489549 40.7454491,28.9115388 C41.7380536,28.5262319 42.5681553,27.829057 43.1024569,26.931966 C43.7872689,25.7941988 44.0690899,24.4707632 43.90495,23.1634459 C43.7477686,21.8179442 43.1335012,20.5611302 42.1586444,19.5904392 C41.1656565,18.6135651 39.866492,17.9827655 38.4641481,17.796604 C37.0681337,17.6086463 35.6472641,17.8769713 34.4264472,18.5591062 C33.798339,18.8500852 33.221048,19.2343435 32.7154714,19.6979715 C31.0562832,21.2462948 30.3819889,23.5374373 30.9489773,25.7002318 C31.5127797,27.8331289 33.226575,29.502191 35.4257781,30.0601799 C35.7058693,30.1313483 35.9942184,30.1674864 36.2837896,30.1677122 C36.5230852,30.1613401 36.759845,30.1184518 36.9853401,30.0406285 C37.3790159,29.87933 37.5758539,29.6300505 37.5354769,29.2879021 C37.4876139,28.9733958 37.3202226,28.6875275 37.0660941,28.4862973 C36.9399098,28.3640717 36.7973097,28.2588531 36.6421355,28.1734759 C36.4808836,28.0720803 36.312197,27.9822308 36.1374229,27.904645 C34.8441599,27.3224803 33.9197635,26.1725208 33.6542369,24.8155338 C33.4344714,23.7513467 33.6812739,22.6465748 34.3355989,21.7655254 C35.024199,20.8413154 36.0873337,20.2456164 37.2578849,20.1281009 C39.2735015,20.3126134 40.9029275,21.7980266 41.2148318,23.7353225 C41.3250469,24.6389572 41.0680322,25.5486804 40.4981399,26.2721084 C39.9144877,27.0102391 39.0409643,27.4810002 38.0856136,27.5722723 L38.0856136,27.5722723 Z M48.9975002,36.5512236 C49.005205,36.8692293 48.9950959,37.1874058 48.9672175,37.5043512 C48.947029,37.7976213 48.9217933,38.0892621 48.8915106,38.3792735 C48.8309451,38.9609258 48.7552382,39.5328024 48.6593428,40.0900155 C48.4796598,41.1615871 48.1836016,42.2117807 47.7760957,43.2231172 C47.5338337,43.8047694 47.2158647,44.200684 46.8373303,43.8927504 C46.5803354,43.6414235 46.4215423,43.3113981 46.388136,42.9591741 C46.4184188,41.7469913 46.4335602,40.5152571 46.4335602,39.307962 L46.4335602,36.8298301 L46.4335602,36.6783073 C46.3326793,35.6416974 45.6635717,34.7378727 44.6822074,34.3125956 C44.3034907,34.1317283 43.8921016,34.0238268 43.4708972,33.9948863 L43.304342,33.9948863 L43.0671271,33.9948863 L42.5977443,33.9948863 L42.1889271,33.9948863 C41.5883191,34.5227724 40.9877111,35.0457707 40.3669146,35.5492176 C39.9732388,35.8750732 39.5778806,36.1927824 39.18084,36.5023452 L38.8780124,36.7369613 C38.6836413,36.9059758 38.4619989,37.0430197 38.221886,37.1426515 C37.6248125,37.3701707 36.9470677,37.2632787 36.4553919,36.864045 L32.9224036,33.6820649 L31.736329,33.7162798 C31.3322946,33.7295016 30.9332721,33.8071176 30.5553014,33.946008 C29.8119975,34.2207348 29.1920752,34.7397755 28.8039487,35.4123582 C28.5896106,35.7780013 28.447546,36.1791408 28.3850372,36.5952141 C28.3850372,36.6978586 28.3850372,36.805391 28.3547545,36.9129233 C28.3244717,37.0204557 28.3547545,37.1964177 28.3547545,37.3381649 L28.3194246,38.2228628 L28.1326809,41.7469913 C28.0266913,43.0129403 27.5674028,43.8976383 26.9264178,43.9905071 C26.2854328,44.083376 25.8715684,43.0129403 25.7807202,41.7567669 C25.6999661,40.6423407 25.641083,39.5279146 25.6040707,38.4134884 L25.5788351,37.5776687 L25.5788351,37.157315 C25.5788351,37.0204557 25.5788351,36.8884841 25.5788351,36.6685316 C25.594908,35.9149325 25.7665137,35.1720647 26.0835477,34.4836697 C27.0734035,32.3921828 29.2344773,31.0542761 31.6101508,31.0621859 L33.3665507,31.1012885 L33.4422576,31.1012885 C33.8029183,31.1098802 34.1455915,31.2556168 34.3961644,31.5069788 L34.4314943,31.5411936 L35.9456321,33.090637 C36.4772627,33.5566105 37.0021639,34.0274719 37.5203355,34.5032211 C38.5735025,33.5061029 39.6384461,32.5285361 40.7151663,31.5705206 L40.7757318,31.5167544 C41.0249298,31.2933726 41.3549138,31.1739731 41.6943088,31.1843817 L42.7642995,31.2185965 L43.2992949,31.2185965 C43.4910857,31.2185965 43.743442,31.2479236 43.9655155,31.2674749 C44.8684192,31.38509 45.7316019,31.7010752 46.4890786,32.1912755 C47.998585,33.1711285 48.9314204,34.7925121 48.9975002,36.5512236 Z M38.0401895,34.9920045 L38.0149538,34.9675653 L38.0149538,34.9675653 L38.0149538,34.9675653 L38.0401895,34.9920045 Z M45.2373913,11.3202238 C45.3791109,11.0097097 45.4710192,10.6800519 45.5099361,10.342657 L45.62602,9.36509018 C45.7723867,8.05515064 45.8935177,6.69633275 45.9944602,5.30330002 L46.0297901,4.78030177 L46.0297901,4.51635873 C46.0297901,4.43815338 46.0297901,4.33550887 46.0297901,4.21820085 C46.0324473,3.76769942 45.9503536,3.32049639 45.787528,2.89848564 C45.4415691,2.02944964 44.7790918,1.31311788 43.9251385,0.884697976 C43.4834224,0.669192512 43.0042437,0.534947948 42.5119432,0.488783412 L42.1535972,0.488783412 L41.8709582,0.488783412 L41.3056801,0.488783412 L39.0243791,0.444792905 L16.9936736,0.0635418436 L11.4771648,0 L8.71638679,0 L7.11644781,0 L6.8640915,0 C6.69753634,0 6.52593406,0.0439905071 6.35937889,0.0684296777 C6.02581415,0.13683296 5.70089699,0.240081586 5.39033068,0.376363228 C4.13215714,0.931108496 3.20331745,2.01053808 2.86676763,3.3090637 C2.78448546,3.62897217 2.7404546,3.95698142 2.73554235,4.28663053 C2.73554235,4.37949938 2.73554235,4.42837772 2.73554235,4.48703173 L2.73554235,4.97581514 L2.73554235,6.31508169 L2.76582511,8.99361479 L2.79106074,10.3622083 C2.78987258,12.7392783 4.73880511,14.687306 7.1921547,14.7612591 L7.90379948,14.7612591 L9.27661778,14.7612591 C13.1191631,14.8036203 16.9617085,14.831318 20.8042538,14.8443522 L20.8042538,17.2882693 C20.8086646,17.8596139 20.9558603,18.4214288 21.2332595,18.9256937 C21.5311415,19.466186 21.9831312,19.9123936 22.5354181,20.2111941 C23.6410983,20.818331 25.0042759,20.7768404 26.0684063,20.1036618 C26.1975338,20.0224693 26.3206468,19.9326404 26.4368465,19.8348309 L26.6034017,19.683308 L26.6992971,19.5904392 L27.0525959,19.2434029 L27.7289108,18.5737697 L29.137059,17.1562978 L31.5596795,14.7563712 L36.4251091,14.6635024 C39.700694,14.5755214 42.4311892,14.233373 42.18388,13.553964 C41.9365708,12.8745551 39.6603169,12.4786405 36.2686482,12.405323 L30.9237417,12.2929028 C30.6362927,12.2872293 30.3583704,12.3927786 30.1515314,12.5861729 L30.1212486,12.6154999 L25.5031282,16.9216817 L24.9277558,17.4642313 L24.6400697,17.73795 C24.6051851,17.7717086 24.5662066,17.8012507 24.5239858,17.8259311 C24.3740046,17.9195829 24.1878756,17.9412134 24.0192731,17.8845851 C23.8627436,17.8421933 23.7368736,17.7293926 23.6811157,17.5815393 C23.6403332,17.4869563 23.6180835,17.3858489 23.6155031,17.2833815 L23.6155031,16.5404307 L23.6155031,13.378002 L23.6155031,13.378002 L23.6155031,13.378002 C23.6128366,13.0552115 23.4778669,12.7466687 23.2402881,12.5202547 C23.0027093,12.2938407 22.6819843,12.1681039 22.3486744,12.170707 L9.35232468,12.2635758 L7.72715007,12.2635758 L7.33347423,12.2635758 L7.0558823,12.2635758 C6.88335876,12.2472422 6.71372583,12.209458 6.55116969,12.1511556 C5.88333229,11.9045283 5.40353774,11.3297783 5.29443529,10.6457027 C5.28116432,10.5614989 5.27273943,10.4766454 5.26919966,10.3915353 L5.26919966,10.0005086 L5.26919966,9.21356732 L5.26919966,7.63968474 L5.23386977,4.49191956 C5.23386977,4.3403967 5.23386977,4.29151836 5.26415253,4.18887384 C5.28128057,4.10145982 5.30318219,4.01498672 5.32976517,3.92981864 C5.38182034,3.75833546 5.4564585,3.59405702 5.55183872,3.44103522 C5.74332765,3.15295336 6.00962334,2.91866008 6.32404901,2.76162628 C6.62596736,2.61061628 6.96381401,2.53978265 7.30319148,2.55633725 L8.94350746,2.61010342 C11.1406897,2.6785331 13.342919,2.73229928 15.5501955,2.77140195 C19.9613838,2.84960729 24.3877133,2.87404646 28.8241372,2.8789343 L42.1334087,2.8789343 L42.4009064,2.8789343 C42.4704498,2.88685612 42.5395206,2.8982765 42.6078386,2.91314914 C43.3260836,3.07902577 43.8268135,3.7086151 43.8090546,4.42348988 L43.8090546,6.03158731 L43.8090546,9.24778216 L43.8090546,10.2644517 C43.8121104,10.3181771 43.8121104,10.3720247 43.8090546,10.4257502 C43.8151881,10.4924185 43.8151881,10.559483 43.8090546,10.6261514 C43.7616281,10.888654 43.6412308,11.1336775 43.4608029,11.3348873 C43.3346247,11.4766345 43.183211,11.6770357 42.9964673,11.8578856 C42.8097236,12.0387354 42.5926972,12.1853705 42.4917547,12.288015 C42.2545398,12.4835284 42.2545398,12.6497147 42.5472731,12.7767984 C43.0516602,12.9385629 43.6036058,12.8815468 44.0614109,12.6203877 C44.5844739,12.3171308 44.9958599,11.8623024 45.2373913,11.3202238 Z M20.890055,5.62100924 C20.5758355,5.59898633 20.2599819,5.61872084 19.9512895,5.67966325 C19.1538436,5.84096178 18.8055919,6.03647514 18.7147436,6.23687634 C18.4926701,6.72565975 18.1494655,7.21444317 18.4018218,7.70322658 C18.3698782,7.76196899 18.3412361,7.82234031 18.3160206,7.88407644 C18.1424881,8.25959757 18.2009765,8.69763249 18.4674344,9.01805396 C18.5582827,9.12558631 18.9115815,9.21356732 19.613132,9.20867949 C20.019576,9.25173556 20.4303598,9.18402166 20.7992067,9.01316612 C20.9490944,8.84596447 21.0409067,8.63735692 21.0616572,8.41685036 C21.0017613,8.08205189 20.9053252,7.75435918 20.7739711,7.43928354 C21.6572181,6.86740694 21.1525055,6.28086685 21.3342021,5.70410242 C21.1922359,5.65171489 21.0419545,5.62359952 20.890055,5.62100924 Z M25.8362385,5.62100924 C25.5220191,5.59898633 25.2061655,5.61872084 24.8974731,5.67966325 C24.1000272,5.84096178 23.7517755,6.03647514 23.6609272,6.23687634 C23.4388536,6.72565975 23.0956491,7.21444317 23.3480054,7.70322658 C23.3160618,7.76196899 23.2874197,7.82234031 23.2622042,7.88407644 C23.0886716,8.25959757 23.14716,8.69763249 23.413618,9.01805396 C23.5044663,9.12558631 23.8577651,9.21356732 24.5593156,9.20867949 C24.9657596,9.25173556 25.3765434,9.18402166 25.7453903,9.01316612 C25.9002263,8.83937869 25.9923618,8.62145733 26.0078408,8.39241119 C25.9479448,8.05761272 25.8515088,7.72992001 25.7201546,7.41484437 C26.6034017,6.84296777 26.0986891,6.25642768 26.2803856,5.67966325 C26.136906,5.63558711 25.9866655,5.61574637 25.8362385,5.62100924 L25.8362385,5.62100924 Z M30.7824221,5.62100924 C30.4682026,5.59898633 30.1523491,5.61872084 29.8436567,5.67966325 C29.0462107,5.84096178 28.697959,6.03647514 28.6071108,6.23687634 C28.3850372,6.72565975 28.0418326,7.21444317 28.294189,7.70322658 C28.2622454,7.76196899 28.2336033,7.82234031 28.2083878,7.88407644 C28.0348552,8.25959757 28.0933436,8.69763249 28.3598016,9.01805396 C28.4506499,9.12558631 28.8039487,9.21356732 29.5054992,9.20867949 C29.9119431,9.25173556 30.322727,9.18402166 30.6915739,9.01316612 C30.8414615,8.84596447 30.9332739,8.63735692 30.9540244,8.41685036 C30.8941284,8.08205189 30.7976924,7.75435918 30.6663382,7.43928354 C31.5596795,6.84296777 31.0549669,6.28086685 31.2366635,5.69921459 C31.0927984,5.64793653 30.9407681,5.62146784 30.7874692,5.62100924 L30.7824221,5.62100924 Z M35.7286057,5.62100924 C35.4143862,5.59898633 35.0985327,5.61872084 34.7898403,5.67966325 C33.9923943,5.84096178 33.6441426,6.03647514 33.5532944,6.23687634 C33.3312208,6.72565975 32.9880162,7.21444317 33.2403725,7.70322658 C33.208429,7.76196899 33.1797868,7.82234031 33.1545714,7.88407644 C32.9810388,8.25959757 33.0395272,8.69763249 33.3059852,9.01805396 C33.3968334,9.12558631 33.7501323,9.21356732 34.4516828,9.20867949 C34.8581267,9.25173556 35.2689106,9.18402166 35.6377574,9.01316612 C35.7876451,8.84596447 35.8794575,8.63735692 35.900208,8.41685036 C35.840312,8.08205189 35.743876,7.75435918 35.6125218,7.43928354 C36.4957689,6.86740694 35.9910563,6.28086685 36.1727528,5.70410242 C36.0323768,5.65226684 35.8838519,5.6241607 35.7336528,5.62100924 L35.7286057,5.62100924 Z M15.9337771,5.62100924 C15.6195576,5.59898633 15.3037041,5.61872084 14.9950117,5.67966325 C14.1975657,5.84096178 13.849314,6.03647514 13.7584658,6.23687634 C13.5363922,6.72565975 13.1931876,7.21444317 13.4455439,7.70322658 C13.4136004,7.76196899 13.3849583,7.82234031 13.3597428,7.88407644 C13.1862102,8.25959757 13.2446986,8.69763249 13.5111566,9.01805396 C13.6020049,9.12558631 13.9553037,9.21356732 14.6568542,9.20867949 C15.0632981,9.25173556 15.474082,9.18402166 15.8429288,9.01316612 C15.9928165,8.84596447 16.0846289,8.63735692 16.1053794,8.41685036 C16.0454834,8.08205189 15.9490474,7.75435918 15.8176932,7.43928354 C16.7009403,6.86740694 16.1962277,6.28086685 16.3779242,5.70410242 C16.2375482,5.65226684 16.0890233,5.6241607 15.9388242,5.62100924 L15.9337771,5.62100924 Z" id="Shape"></path>
            </g>
        </g>
    </g>
</svg>