<?xml version="1.0" encoding="UTF-8"?>
<svg width="200px" height="204px" viewBox="0 0 200 204" version="1.1" xmlns="http://www.w3.org/2000/svg" xmlns:xlink="http://www.w3.org/1999/xlink">
    <!-- Generator: Sketch 46.2 (44496) - http://www.bohemiancoding.com/sketch -->
    <title>Group 197</title>
    <desc>Created with Sketch.</desc>
    <defs></defs>
    <g id="Page-1" stroke="none" stroke-width="1" fill="none" fill-rule="evenodd">
        <g id="Group-197" transform="translate(-107.000000, -96.000000)">
            <g id="noun_Checklist_1016151-Copy-2" transform="translate(107.000000, 96.000000)" fill-rule="nonzero" fill="#000000">
                <path d="M90.5622963,44.3008401 C93.485984,44.3601537 96.3944246,44.7287817 99.2364888,45.4002438 C100.8629,45.7173795 101.968859,47.6836208 102.077287,50.3687029 C102.185714,53.0537851 100.884585,54.7874601 99.3015453,55.168023 C95.4504397,56.0315524 91.4933042,56.3589867 87.5480144,56.1405724 C84.875694,56.2441239 82.1991689,56.1309752 79.5460717,55.8022943 L78.3750557,55.6120129 C76.7611723,55.7685041 75.13873,55.8249973 73.5175079,55.7811519 C69.6046309,55.7533095 65.7040874,55.3496544 61.8724044,54.5760363 L58.7930661,54.1320464 C55.4071952,53.6632734 52.4027775,51.7697443 50.5742686,48.9521635 C49.7289781,47.8193009 49.4284236,46.3850093 49.7502203,45.019681 C49.9453897,44.2162706 50.5308976,43.0957245 50.9212363,43.1380093 L52.3741636,43.1380093 C52.3741636,43.1380093 52.482591,43.0322974 52.5476474,43.1380093 C53.7867607,43.2639815 55.0317189,43.3274931 56.2775502,43.3282907 L61.807348,43.3282907 L63.5421865,43.3282907 C67.8026746,43.2006092 72.0452217,43.9199648 76.0113383,45.4425286 C79.4810153,45.0408234 82.9506923,44.5334063 86.4203693,44.4276944 C87.1423759,44.3795657 87.8669109,44.3795657 88.5889175,44.4276944 L90.5622963,44.3008401 Z M90.5622963,96.5225163 C88.2155442,95.8468475 85.7873456,95.4771657 83.341031,95.4231126 L81.9097892,95.4231126 C81.3468516,95.3795588 80.7812593,95.3795588 80.2183216,95.4231126 C77.2666079,95.614115 74.3275846,95.9599412 71.4140162,96.4590892 C68.5311764,95.0596402 65.3530407,94.3356821 62.1326302,94.3448513 L60.9616142,94.3448513 C59.0316063,94.3448513 57.1015985,94.3448513 55.1715907,94.3448513 C54.2093314,94.3726642 53.2462273,94.3444241 52.2874216,94.2602817 C52.2874216,94.2602817 52.2874216,94.2602817 52.1356233,94.387136 L50.6393251,94.2602817 C50.3357283,94.2602817 49.8369622,95.3596855 49.6851639,96.1419535 C49.4197469,97.491453 49.6663625,98.8890063 50.3790993,100.074436 C51.6738727,102.741959 54.1799234,104.660566 57.1449695,105.254319 L61.9808318,106.078872 C64.4639798,106.628973 67.0026209,106.905555 69.5490648,106.903424 C70.8899515,106.935482 72.2313494,106.86479 73.5608789,106.692001 L74.6668384,106.903424 C76.817963,107.231738 78.9970864,107.352129 81.1724828,107.262845 C84.3470188,107.433818 87.5284599,107.083619 90.5839817,106.226868 C91.8851106,105.846305 92.9693847,104.366339 92.8609573,101.427548 C92.7525299,98.4887575 91.8634251,96.839652 90.5406108,96.5225163 L90.5622963,96.5225163 Z M80.6303458,147.644789 C78.8865851,146.976563 77.0382387,146.604711 75.1656045,146.545385 L74.3849272,146.545385 C74.0026913,146.509699 73.6178325,146.509699 73.2355966,146.545385 C70.8708399,146.757149 68.5234615,147.124453 66.2095007,147.644789 C64.9066004,146.755829 63.4304579,146.136985 61.8724044,145.826544 C60.7227832,145.556143 59.5415088,145.435286 58.3593564,145.467124 C56.9064292,145.467124 55.4751874,145.467124 54.0222601,145.467124 C53.3393931,145.460652 52.6579926,145.404113 51.9838249,145.297985 C51.9838249,145.297985 51.9838249,145.297985 51.8320265,145.445981 C51.311575,145.445981 50.7911234,145.445981 50.2923574,145.297985 C49.7935913,145.149988 49.6851639,146.397388 49.5767365,147.179656 C49.361101,148.541683 49.5491988,149.935424 50.1188735,151.196708 C51.5934862,154.537204 53.4150667,155.996028 55.2366471,156.376591 C57.4051952,156.841724 59.5737434,157.43371 61.8940899,157.771988 C62.8805649,157.952814 63.883004,158.037799 64.8866863,158.025697 C65.9057877,158.038776 66.9234464,157.946645 67.9226537,157.750846 C68.2696214,157.750846 68.5949036,157.941127 68.9418713,158.004554 C70.4897634,158.309531 72.0698997,158.430221 73.6476208,158.363975 C76.0071271,158.523341 78.3741211,158.184396 80.5869748,157.370283 C81.5628215,156.98972 82.3868698,155.509754 82.3218133,152.570963 C82.2567569,149.632172 81.6495634,147.961924 80.6303458,147.644789 Z M195.69351,51.5949609 C194.026084,50.1809687 192.007073,49.2186173 189.83843,48.8041669 C188.710785,48.6138855 187.669882,48.4870312 186.628979,48.3390345 C184.460431,48.0641836 182.291882,47.8739022 180.123334,47.7681903 C178.749534,47.6434445 177.381982,48.0624824 176.328375,48.9310211 C176.805456,43.2437212 176.328375,39.5015201 174.52848,39.6918015 C171.644311,39.9666524 167.567441,48.5927431 164.227876,61.6587333 C158.30774,85.0844893 152.192434,108.742811 146.771064,132.401133 L144.776,141.196363 L143.778468,145.572836 C143.4315,146.94709 143.171274,148.36363 142.75925,149.801311 C138.338056,166.357519 129.177211,181.345872 116.346334,193.016334 L116.346334,193.016334 C116.045488,193.308724 115.609804,193.426598 115.197436,193.327169 C114.785067,193.227739 114.455961,192.925461 114.329584,192.530059 C112.839572,189.26243 111.536445,185.916804 110.426197,182.508572 C108.232534,175.642329 106.892892,168.54401 106.436069,161.366193 C106.468526,153.011786 107.612958,144.696814 109.840689,136.629609 C112.110436,128.172658 114.322355,119.638184 116.476447,111.026188 C120.813543,93.9008613 124.868728,76.64868 128.880542,59.3753564 L134.844049,33.4336573 L136.318662,26.942947 C136.795743,24.8287091 137.33788,22.3339083 137.728218,21.0230808 C138.733784,18.0181977 140.618144,15.3653271 143.149589,13.390682 C144.449703,12.4455079 145.871391,11.670723 147.378257,11.0861627 C148.8748,10.505208 150.44179,10.1143895 152.040636,9.92333187 C153.669005,9.83233383 155.302551,9.95320346 156.898184,10.2827523 C158.465841,10.6353373 159.971258,11.2124488 161.365393,11.995285 C167.098782,15.4145391 170.23996,21.7961463 169.389021,28.2960592 C169.291227,28.9401012 169.2405,29.5901047 169.237223,30.2411581 C169.237223,31.1714228 169.10711,32.1439722 169.10711,33.0742369 C169.055411,34.5481118 169.17178,36.0230254 169.454078,37.4718517 C170.364868,40.8123476 172.576787,37.1758584 174.875448,31.5519856 C176.937466,26.5535987 177.076102,20.9968449 175.265787,15.9066251 C173.186394,9.98073532 168.757654,5.1146155 162.970119,2.39664494 C156.566357,-0.552877432 149.196805,-0.790081425 142.607452,1.74123119 C135.647729,4.38831417 130.142695,9.75547719 127.427615,16.5408965 C127.017776,17.5609712 126.677299,18.6062579 126.408397,19.6699686 C126.1048,20.7270875 125.953002,21.4882132 125.714462,22.4184779 L124.391647,27.7674998 L121.811075,38.5712554 L116.476447,59.9250582 L105.915617,102.759518 L100.732787,124.240175 L98.1955857,134.980504 C97.3135807,138.79493 96.6618964,142.656527 96.2438924,146.545385 C94.5679235,162.227278 96.845845,178.07095 102.87965,192.699198 C103.35673,193.967741 103.877182,195.215142 104.397633,196.483684 C104.397633,196.673966 104.397633,196.737393 104.636174,197.033386 L105.069883,197.879081 C105.381323,198.440444 105.736566,198.977634 106.132472,199.485902 C106.951237,200.499553 107.932479,201.377687 109.038326,202.086415 C111.260935,203.496942 113.896661,204.157938 116.541503,203.968086 C118.748196,203.829509 120.872393,203.097708 122.678494,201.853849 C123.026715,201.653426 123.353609,201.419708 123.654341,201.15615 L123.654341,201.15615 C125.43255,199.591614 127.21076,198.005936 128.902227,196.314545 C137.822662,187.395737 144.937047,176.916108 149.872088,165.425529 C152.336261,159.738771 154.25988,153.84351 155.61874,147.813928 L159.543813,130.900025 C164.770014,108.341106 169.692618,85.8244725 174.246569,63.202127 C174.810391,60.4113329 175.287472,57.7262508 175.656125,55.2103077 C176.232763,56.2069554 177.167508,56.9601243 178.280068,57.3245456 C180.448617,58.0433865 182.617165,58.7833698 184.677285,59.4387835 L186.282011,59.9250582 L187.084374,60.1576244 L187.279543,60.1576244 L187.279543,60.1576244 L187.58314,60.4324753 C187.77935,60.5855536 187.910639,60.8039074 187.951793,61.0456043 C187.93788,61.3589358 187.894324,61.6703456 187.82168,61.975869 L187.604825,63.2866965 L187.301229,66.0563481 L185.761559,76.479541 C179.255915,87.9809952 178.692093,101.004701 175.179045,113.26728 C175.027246,113.816982 175.959722,114.916386 176.697028,115.381518 C178.04361,116.122107 179.720173,115.970445 180.904012,115.000956 C184.714591,112.351836 187.477843,108.508526 188.73247,104.11263 C191.941922,93.9854308 195.650139,83.9850855 196.886211,73.3716113 C197.298236,72.1030685 197.71026,70.8556682 198.078913,69.5871254 L198.946332,66.5637652 L199.358356,65.0626563 L199.553526,64.3015307 L199.748695,63.9421102 L199.748695,63.7306865 L199.748695,63.3289813 C200.646981,58.9920286 199.10065,54.5175875 195.69351,51.5949609 Z M32.076553,35.3364714 C29.1313228,36.6050972 26.3917667,38.2860121 23.9444975,40.3260729 C20.2669218,43.8206058 16.967821,47.6747096 14.0992889,51.8275271 C13.5137809,52.1235204 12.9499584,52.4406561 12.3861359,52.7789341 C9.68269892,49.9650217 6.69687448,47.4222833 3.47340307,45.1888201 C3.0830644,44.9139691 1.86867744,45.5059557 1.30485493,46.0979424 C0.306541043,47.1269668 -0.156449229,48.5434129 0.0470970079,49.9458553 C0.152410129,53.1241396 1.17457748,56.2091028 2.99632247,58.8467969 C3.91386714,60.1130747 4.7122439,61.4575524 5.38172543,62.8638489 C5.72869313,63.540405 6.03228987,64.2592459 6.31420113,64.9780868 L6.31420113,64.9780868 L6.31420113,64.9780868 L16.0076113,65.379792 L16.0076113,65.379792 L16.1160387,65.2529377 L16.3328935,65.0203716 L16.7666031,64.5552392 L17.6340224,63.6038322 C20.0070014,61.1343449 22.181945,58.4908216 24.1396668,55.6965824 L26.1781021,54.110904 C30.4651108,50.8114365 34.4354497,47.1386778 38.0400604,43.1380093 C39.059278,41.9328937 39.2544473,40.0089372 37.4328669,37.6409908 C35.6112865,35.2730443 33.6812786,34.5753458 32.076553,35.3364714 Z M32.076553,86.4587439 C29.1324985,87.7205821 26.3929743,89.3943549 23.9444975,91.427203 C20.2669218,94.9217358 16.967821,98.7758397 14.0992889,102.928657 C13.5137809,103.22465 12.9499584,103.541786 12.3861359,103.880064 C9.68269892,101.066152 6.69687448,98.5234133 3.47340307,96.2899501 C3.0830644,96.0150992 1.86867744,96.6070858 1.30485493,97.1990724 C0.306541043,98.2280968 -0.156449229,99.6445429 0.0470970079,101.046985 C0.152410129,104.22527 1.17457748,107.310233 2.99632247,109.947927 C3.91386714,111.214205 4.7122439,112.558682 5.38172543,113.964979 C5.72869313,114.641535 6.03228987,115.360376 6.31420113,116.079217 L6.31420113,116.079217 L6.31420113,116.079217 L16.0076113,116.480922 L16.0076113,116.480922 L16.1160387,116.354068 L16.3328935,116.121502 L16.7666031,115.656369 L17.5906514,114.68382 C19.9636304,112.214333 22.1385741,109.570809 24.0962959,106.77657 L26.1347311,105.190892 C30.4217399,101.891424 34.3920787,98.2186655 37.9966894,94.217997 C39.015907,93.0128814 39.2110764,91.0889249 37.3894959,88.7209784 C35.5679155,86.353032 33.6812786,85.6976182 32.076553,86.4587439 Z M32.076553,137.581016 C29.1311769,138.849375 26.3915826,140.530313 23.9444975,142.570618 C20.2669218,146.065151 16.967821,149.919255 14.0992889,154.072072 C13.5137809,154.368065 12.9499584,154.685201 12.3861359,155.023479 C9.6816427,152.216932 6.69585434,149.681307 3.47340307,147.454507 C3.0830644,147.179656 1.86867744,147.771643 1.30485493,148.36363 C0.306541043,149.392654 -0.156449229,150.8091 0.0470970079,152.211543 C0.116822195,155.412483 1.11696576,158.52839 2.93126603,161.197054 C3.8488107,162.463332 4.64718746,163.807809 5.31666898,165.214106 C5.66363668,165.890662 5.96723342,166.609503 6.24914468,167.328344 L6.24914468,167.328344 L6.24914468,167.328344 L15.9425549,167.730049 L15.9425549,167.730049 L16.0509823,167.603195 L16.2678371,167.370628 L16.7015467,166.905496 L17.568966,165.954089 C19.941945,163.484602 22.1168886,160.841078 24.0746104,158.046839 L26.1130456,156.461161 C30.4000544,153.161693 34.3703932,149.488935 37.9750039,145.488266 C38.9942216,144.28315 39.1893909,142.359194 37.3678105,139.991248 C35.54623,137.623301 33.6812786,136.819891 32.076553,137.581016 Z" id="Shape"></path>
            </g>
            <rect id="Rectangle-59" x="0" y="0" width="410" height="394"></rect>
        </g>
    </g>
</svg>