<?xml version="1.0" encoding="UTF-8"?>
<svg width="606px" height="708px" viewBox="0 0 606 708" version="1.1" xmlns="http://www.w3.org/2000/svg" xmlns:xlink="http://www.w3.org/1999/xlink">
    <!-- Generator: Sketch 46.2 (44496) - http://www.bohemiancoding.com/sketch -->
    <title>noun_brainstorming_1016145 copy</title>
    <desc>Created with Sketch.</desc>
    <defs></defs>
    <g id="Page-1" stroke="none" stroke-width="1" fill="none" fill-rule="evenodd">
        <g id="noun_brainstorming_1016145-copy" fill-rule="nonzero" fill="#000000">
            <path d="M572.085943,286.596847 C574.933612,248.67331 567.925385,210.662716 551.704452,176.053549 C549.799194,171.691685 547.604638,167.454363 545.134593,163.368252 C542.745554,159.23647 540.729802,154.887225 537.668845,150.972905 C501.330124,93.7461829 441.173257,54.6750605 372.825131,43.9090022 C334.241958,37.7784109 294.692152,41.1175597 257.777955,53.622315 L244.040979,58.406484 L230.826605,64.2779641 L224.18209,67.2499479 C222.017023,68.337259 220.001271,69.6420324 217.910861,70.8018309 L205.368405,78.0505718 C189.011902,88.3675737 173.97512,100.533997 160.573917,114.294276 C147.149392,128.10206 135.424082,143.378684 125.634217,159.816369 C116.079038,176.424207 108.56199,194.062369 103.236973,212.36974 C98.0115968,230.891286 95.0054063,249.936518 94.2780756,269.127381 C93.962651,280.647252 92.2078022,292.087324 89.052052,303.196464 C87.439738,308.747562 85.4698789,314.194843 83.1541112,319.506131 C80.7650718,325.015174 78.301375,329.509393 75.6883632,334.003612 L40.6740054,412.217526 L38.5089385,417.074183 L37.5383913,419.466267 C37.5383913,419.466267 37.5383913,419.973679 37.5383913,420.263629 C37.2945089,421.313592 37.2945089,422.403111 37.5383913,423.453075 C38.0541557,425.560183 39.6244565,427.275422 41.7192101,428.019782 L82.4821939,440.777565 C89.0087491,442.808529 93.5001573,448.623004 93.6808158,455.275047 L93.6808158,455.275047 L94.2780756,521.238589 L94.2780756,537.765718 L94.2780756,550.161065 C94.2780756,551.683301 94.2780756,552.045738 94.2780756,553.060562 C94.8043783,560.15863 98.0546852,566.806567 103.386288,571.689826 C108.583446,576.319873 115.370627,578.904147 122.423945,578.938567 L155.721181,578.938567 L223.734145,578.503642 C231.917421,578.475395 239.132696,583.707386 241.427967,591.333914 L241.427967,591.333914 L257.62864,645.409521 L261.660144,658.964666 L262.630692,662.154112 C262.736674,662.451204 262.861338,662.7417 263.003979,663.023961 C263.257746,663.608715 263.611084,664.147822 264.049184,664.618684 C265.797711,666.589172 268.557783,667.40723 271.141644,666.720819 C326.612151,651.281001 383.127863,635.986157 439.79289,621.126239 L524.454472,598.945092 L535.055834,596.19057 L540.356515,594.813309 L542.297609,594.160923 C544.830077,592.95396 546.725627,590.77171 547.523633,588.144468 C547.834712,586.808224 547.834712,585.421416 547.523633,584.085173 L547.523633,582.780399 L546.777058,580.098365 L545.283908,574.66181 L539.385967,552.915587 C532.209771,527.310719 526.748354,501.281632 523.035979,474.991622 C520.721598,456.144896 521.393515,445.561734 525.425019,444.691886 C529.456523,443.822037 536.922271,455.637484 545.507881,473.686849 C555.850256,496.736212 564.921532,520.303805 572.683203,544.289585 L580.895526,569.587691 L581.866073,572.777137 C582.420247,574.660997 582.868849,576.572636 583.209908,578.503642 C586.953856,600.392082 573.658175,621.650694 551.928424,628.519954 L536.996928,632.869199 L508.925716,641.060276 L396.790182,674.114534 L283.908073,705.86402 C283.236156,705.86402 280.175199,706.806356 278.159447,707.24128 C275.864747,707.635999 273.544974,707.878186 271.216302,707.966154 C266.564267,708.138783 261.91122,707.650372 257.404668,706.516406 C243.731271,703.153884 232.21926,694.22254 225.824554,682.015662 C224.104665,678.600849 222.729523,675.0323 221.718393,671.360013 L217.686889,657.659893 L206.264295,618.661667 L124.141067,618.29923 C111.941513,618.326788 99.9470851,615.252901 89.350682,609.383278 C67.7614897,597.319134 54.5916147,574.851621 54.933584,550.668477 L54.933584,526.53017 L55.6055013,469.989991 L39.2555133,464.553436 L32.9096276,462.596276 L29.550041,461.581452 C27.5533366,460.918268 25.6073955,460.118916 23.7267576,459.189367 C16.043908,455.431733 9.69839161,449.523165 5.51033265,442.227314 C-0.914972583,431.121385 -1.76721443,417.775099 3.19595079,405.983609 L6.10759248,399.459742 L27.4596316,352.052977 L38.2103086,328.349594 L43.5856471,316.534147 L46.1986589,310.735154 C46.9452337,309.092106 47.6420368,307.449058 48.2890683,305.80601 C52.2706968,295.786448 54.5890383,285.21675 55.1575564,274.49145 L55.1575564,268.837432 L55.1575564,261.588691 C56.2868394,224.179074 65.4674217,187.413024 82.1089065,153.654939 C123.586501,68.3976557 208.127542,10.5503058 304.771776,1.29749626 C401.416009,-7.9553133 495.965545,32.7457367 553.794861,108.495283 C590.88191,156.063911 609.232004,214.93876 605.532494,274.49145 C603.806373,301.524136 597.263971,328.061266 586.196207,352.922826 C576.18102,375.487541 562.381292,396.283556 545.358566,414.464636 C540.976901,418.831128 536.313854,422.922832 531.397617,426.715008 L528.262003,429.17958 L525.051731,431.644152 L518.780503,436.428321 C511.314755,442.009851 507.656539,443.677062 511.314755,433.601312 C513.092979,429.694643 515.242461,425.95745 517.735298,422.438251 C519.228448,419.466267 521.094885,416.131846 523.110637,412.724938 C525.126389,409.31803 527.067483,405.476197 529.23255,402.141777 C531.022647,398.853183 532.991401,395.659237 535.130491,392.573439 C556.434105,360.828494 569.14481,324.378197 572.085943,286.596847 Z M338.855978,390.471304 C346.11178,393.476799 354.544029,391.150561 359.088155,384.889773 C364.930031,374.694947 369.778919,363.992864 373.571706,352.922826 C376.558005,343.137026 378.947044,333.133763 381.037454,323.130501 L381.709371,320.231005 C382.767368,315.449677 381.429812,310.464384 378.103664,306.791937 C374.777515,303.11949 369.856095,301.194159 364.836781,301.601741 L339.154608,303.486413 L337.362828,303.486413 C342.439537,287.90162 346.545698,272.026878 352.816927,256.877009 C353.414186,255.499749 350.35323,252.09284 347.889533,250.570605 C343.60993,247.924667 338.239341,247.569754 333.629954,249.628268 C321.27374,254.209042 311.341997,263.433972 306.081345,275.216324 C300.407376,287.611671 294.285463,299.789555 288.984782,312.329877 C288.233463,314.087852 287.75541,315.944481 287.56629,317.83892 C287.110925,322.772129 288.697637,327.678324 291.97577,331.473257 C295.253902,335.26819 299.95356,337.639417 305.03614,338.062907 L308.619699,338.062907 C317.055994,338.787781 325.492289,339.150218 334.003242,339.077731 C330.126208,350.748527 327.474818,362.770122 326.089549,374.958998 C325.457799,382.591888 331.048915,389.385573 338.855978,390.471304 Z M438.29974,293.410663 C434.712869,295.415043 431.747383,298.319368 429.71413,301.819203 C428.249796,304.133793 428.587858,307.117747 430.535363,309.067944 C433.447561,311.559351 437.117043,313.060826 440.98741,313.344701 C459.477237,314.930154 477.556043,307.41897 489.141484,293.338176 C503.309604,276.428943 508.353705,253.986627 502.729145,232.883677 C496.110527,208.272517 477.935456,188.127796 453.679181,178.51812 C451.456954,160.930354 442.206873,144.894342 427.922351,133.865877 C413.207151,122.428793 394.379273,117.205762 375.662115,119.368395 C348.485468,94.7859976 308.815285,88.3379516 274.874518,102.98624 C261.469709,107.824349 249.388231,115.586687 239.56153,125.674799 C226.275042,139.363139 217.602525,156.659162 214.70059,175.256187 C193.479181,183.702309 176.62045,200.041319 167.882965,220.630518 C159.145479,241.219718 159.255674,264.347321 168.18898,284.857149 C174.845361,299.782509 185.980866,312.413151 200.142381,321.100854 C209.331283,327.094492 220.301615,329.973953 231.349208,329.291931 C239.710845,328.349594 244.115637,324.507762 243.667692,319.506131 C242.630552,314.361325 239.714135,309.753466 235.455369,306.530884 C230.97592,302.399102 225.451267,298.26732 219.404011,293.338176 C208.72715,284.580438 202.311149,271.884861 201.710188,258.326758 C201.385955,245.542678 206.206592,233.139311 215.148535,223.750263 C221.780889,216.796195 230.419079,211.945822 239.934818,209.832681 L240.905365,209.832681 C249.552271,207.919501 255.456757,200.1524 254.791656,191.565854 C254.099023,183.158523 255.375195,174.708015 258.52453,166.847648 C261.84084,158.876395 266.941068,151.720785 273.456026,145.898786 C287.079819,133.958723 305.657084,128.866474 323.70051,132.126179 C335.808509,136.549022 346.230426,144.467126 353.563501,154.814738 C357.465092,160.386799 364.50557,163.040371 371.257324,161.483579 L375.139513,160.61373 C384.785433,158.29224 394.993243,160.581489 402.613465,166.77516 C409.881865,172.629596 413.754624,181.556663 412.990855,190.696005 C412.039632,201.868482 419.991872,211.912179 431.356595,213.891976 L432.028512,213.891976 C441.371914,215.472404 449.936893,219.948304 456.441508,226.64976 C462.873138,233.432769 466.788111,242.106595 467.565472,251.295479 C468.40599,260.545382 465.984086,269.798047 460.696984,277.535921 C455.380632,285.214902 447.452468,290.834235 438.29974,293.410663 Z" id="Shape"></path>
        </g>
    </g>
</svg>