<?xml version="1.0" encoding="UTF-8"?>
<svg width="389px" height="350px" viewBox="0 0 389 350" version="1.1" xmlns="http://www.w3.org/2000/svg" xmlns:xlink="http://www.w3.org/1999/xlink">
    <!-- Generator: Sketch 46.2 (44496) - http://www.bohemiancoding.com/sketch -->
    <title>noun_Puzzle_1016136 Copy</title>
    <desc>Created with Sketch.</desc>
    <defs></defs>
    <g id="Page-1" stroke="none" stroke-width="1" fill="none" fill-rule="evenodd">
        <g id="noun_Puzzle_1016136-Copy" fill-rule="nonzero" fill="#000000">
            <path d="M387.929344,210.590605 C388.81109,213.819468 389.151253,217.148875 388.93854,220.468317 L388.433942,227.053458 C387.144413,244.260608 386.485632,261.492989 386.457599,278.750601 C386.457599,287.379406 386.639815,295.995597 387.004247,304.599172 L387.298596,311.070777 C387.298596,313.303669 387.592945,314.85534 387.550895,318.639904 C387.206424,325.012449 384.680087,331.133065 380.31832,336.162435 C376.050779,341.129761 370.172841,344.780035 363.498377,346.607832 C360.19233,347.535826 356.742908,347.982982 353.280261,347.932429 L350.71522,347.932429 L348.865026,347.932429 L345.290788,347.629664 C335.675388,346.620447 326.059987,345.863534 316.444586,345.358926 C284.570794,343.8451 253.3698,342.63404 226.415842,339.190086 C218.300219,338.130408 212.665538,336.351663 216.365926,333.096938 C220.066187,330.617342 224.408035,329.028193 228.980883,328.479771 C252.781102,326.701025 276.707471,325.717039 300.465641,325.717039 C312.435833,325.717039 324.406026,325.994574 336.376219,326.549643 L345.332838,327.003791 L349.832173,327.26871 L352.060816,327.26871 L353.070012,327.26871 C358.70518,327.117031 363.326712,323.201286 363.834776,318.147911 C363.87529,317.846244 363.87529,317.541283 363.834776,317.239616 C363.867248,316.785938 363.867248,316.33085 363.834776,315.877173 L363.540427,311.865535 L363.077878,303.804414 C362.53123,293.056252 362.363031,282.345936 362.65738,271.635621 C362.951729,260.925305 363.582476,250.252835 364.717823,239.656056 C365.334554,234.433357 366.063418,229.298966 366.904415,224.252881 L367.493113,220.468317 L367.703362,218.954491 C367.745177,218.551681 367.745177,218.14624 367.703362,217.743431 C367.847859,215.971342 367.575623,214.191743 366.904415,212.520732 C364.300121,207.932829 359.088161,205.019252 353.364361,204.951605 L327.882148,206.692504 C326.785335,206.77163 325.68228,206.642699 324.644309,206.314048 L324.22381,206.314048 C319.603174,204.781404 315.960896,201.503288 314.257994,197.344631 C313.843716,196.304328 313.561588,195.225167 313.416997,194.127752 C313.384577,193.58569 313.384577,193.042451 313.416997,192.500389 L313.416997,190.986564 C313.402598,189.313614 313.701116,187.650411 314.300044,186.066631 C314.6719,185.080535 315.150777,184.129803 315.729739,183.228208 C316.276387,182.357758 317.075334,181.411617 317.117384,181.335926 C317.159434,181.260235 317.958381,180.162711 318.33683,179.557181 C319.070934,178.34986 319.676351,177.082681 320.144974,175.772617 C321.972566,170.584854 321.521095,164.963926 318.883478,160.066677 C316.198416,155.257963 311.606888,151.530647 306.016222,149.62128 C303.252947,148.733484 300.328446,148.322619 297.396001,148.41022 C295.91312,148.454975 294.436629,148.606845 292.980766,148.864368 C282.794336,150.92827 275.363321,158.821095 274.773178,168.203489 C274.491908,172.152294 275.46934,176.091278 277.590518,179.557181 C277.884867,179.973483 278.137166,180.427631 278.473565,180.881778 L278.978163,181.600845 C279.458889,182.204851 279.894368,182.837012 280.281709,183.493127 C281.122656,184.904291 281.718272,186.423142 282.047803,187.996758 C282.226374,188.832837 282.324852,189.681172 282.342152,190.532416 L282.342152,191.819168 L282.342152,193.597913 C282.258159,194.41488 282.103507,195.224709 281.879604,196.020034 C280.439399,200.775101 276.517388,204.601492 271.367139,206.276202 L270.946641,206.276202 C269.921284,206.597498 268.833654,206.726299 267.750852,206.654658 C260.770575,206.17528 253.762266,205.607596 246.725923,204.951605 C228.728584,203.248551 216.786424,198.290772 216.281826,193.597913 C215.777228,188.905054 230.200329,187.202 247.272571,187.618302 L257.238387,187.618302 C252.861247,180.450357 251.01318,172.252693 251.940105,164.11616 C253.872595,146.742882 267.779744,132.36007 286.631237,128.238494 C295.814768,126.189415 305.471131,126.677371 314.342093,129.638783 C332.356886,135.965181 344.097749,151.709998 343.776994,169.111784 C343.613349,175.432596 341.798274,181.629909 338.478712,187.202 L339.992506,187.202 L347.183032,186.672161 L351.009569,186.407241 C352.828772,186.275098 354.656848,186.275098 356.476051,186.407241 C363.852785,186.976683 370.842131,189.625331 376.449733,193.976369 C382.0979,198.309093 386.109593,204.115145 387.929344,210.590605 Z M161.406762,47.8543569 C153.564044,52.5578686 147.504823,59.3053086 144.040171,67.1934784 C140.697129,75.1352813 140.081844,83.7977861 142.274077,92.0580633 C146.853512,109.024751 162.834091,121.541439 182.137342,123.280716 C191.177751,124.114965 200.286082,122.451671 208.250303,118.512165 L208.250303,127.481581 C207.787755,142.846911 208.923101,155.865811 214.894181,155.373817 C220.865261,154.881824 225.785094,144.020126 227.509138,127.973575 C228.238002,121.76689 228.86875,115.459283 229.401382,109.050755 C229.480981,108.076213 229.337872,107.097327 228.980883,106.174487 L228.980883,105.79603 C227.120132,101.160712 222.868673,97.6308309 217.585372,96.3346205 C216.701695,96.1331034 215.801904,95.9939141 214.894181,95.9183185 L212.917838,95.9183185 L211.319943,95.9183185 C210.374136,95.9338886 209.43156,96.0225206 208.502602,96.183238 C206.754175,96.4798222 205.066597,97.0158873 203.498669,97.7727548 C202.769667,98.1213687 202.067281,98.5133082 201.396177,98.9459696 L200.597229,99.4001173 C200.134681,99.7028824 199.630083,99.9299562 199.125484,100.194876 C195.274559,102.103974 190.897999,102.983681 186.510527,102.730534 C176.116758,102.246638 167.351448,95.5951799 165.0651,86.4569087 C164.77897,85.1466055 164.610228,83.8177361 164.560502,82.4831166 C164.46317,79.8438624 164.919677,77.2117579 165.906097,74.7247606 C168.059476,69.652537 172.265842,65.5016711 177.680057,63.1061494 C183.121335,60.7322463 189.366684,60.3259141 195.130748,61.9707802 C196.586346,62.392549 197.994293,62.9374357 199.335734,63.5981427 C200.008531,63.9387535 200.681329,64.2793642 201.312077,64.6956663 C201.942825,65.1119683 202.447423,65.452579 203.41457,65.9445723 C204.416322,66.4656481 205.472669,66.8966462 206.568309,67.2313241 C207.740091,67.5918999 208.953097,67.8330955 210.184597,67.9503912 L212.034791,67.9503912 L213.716785,67.9503912 L215.524929,67.9503912 C216.744254,67.8202565 217.943297,67.5663362 219.099167,67.1934784 C223.719803,65.660835 227.36208,62.3827187 229.064983,58.224062 L229.064983,57.8456056 C229.430144,56.9114122 229.573398,55.9186429 229.485481,54.9314914 L227.551188,31.9970341 C227.689712,26.8396236 230.992894,22.1762131 236.129359,19.8864296 C237.883532,19.3362175 239.741555,19.1046745 241.59584,19.2052081 C242.043398,19.1675743 242.493878,19.1675743 242.941436,19.2052081 L244.62343,19.3944363 L249.164815,19.8864296 C255.023761,20.5928815 260.896725,21.1984118 266.783705,21.7030203 C278.557665,22.7122373 290.401708,23.3303828 302.315834,23.5574566 C314.215944,23.8223761 326.158103,23.5574566 338.058213,23.1790002 L347.014833,22.7626982 L351.472118,22.4977787 C351.976193,22.4685533 352.481837,22.4685533 352.985912,22.4977787 C353.321091,22.4613151 353.65993,22.4613151 353.995109,22.4977787 C359.609857,22.9550451 363.960596,27.1145083 364.129125,32.1862623 C364.111485,32.4888193 364.111485,32.7920007 364.129125,33.0945576 L364.129125,35.1003765 L363.834776,39.1498599 L363.330177,47.210981 C362.713446,57.9843729 362.40508,68.7577649 362.40508,79.5311568 C362.40508,101.065325 363.498377,122.599494 365.47472,143.868743 C366.084066,147.98439 367.849751,151.892133 370.604803,155.222435 C374.17904,158.590697 376.197434,153.481535 377.37483,146.177327 C380.822918,122.069655 382.126464,93.9503453 383.724358,65.3011965 C384.228956,56.6723908 384.943804,48.0562003 385.868901,39.452625 L386.2053,36.2357457 L386.2053,34.5705376 L386.2053,32.2619536 C386.261469,29.1455081 385.764639,26.0409657 384.733555,23.0654633 C382.70271,17.0583233 378.646933,11.7680725 373.127794,7.92720767 C367.654221,4.0393578 360.995763,1.74258287 354.037159,1.34206647 C349.832173,1.34206647 348.150179,1.34206647 345.627187,1.56914031 L338.436662,1.83405978 C328.877327,2.16205532 319.303977,2.32605309 309.716609,2.32605309 C290.569907,2.32605309 271.423206,1.73313808 252.276504,0.547308052 L244.959829,0.0553147444 C241.271636,-0.136130158 237.572369,0.170022203 233.984816,0.963610082 C226.790007,2.60141871 220.338969,6.21201601 215.524929,11.2954695 C210.69054,16.3424137 207.747657,22.6329529 207.114957,29.2721481 C206.968135,30.9094639 206.968135,32.5547654 207.114957,34.1920812 L207.409306,37.6360343 L207.998004,44.1076386 L207.998004,45.4700816 C201.806917,42.4824152 194.921154,40.848814 187.898172,40.7015311 C178.488172,40.5506368 169.254287,43.0081625 161.448812,47.74082 L161.406762,47.8543569 Z M12.5502672,156.13073 C18.1578692,160.481768 25.1472154,163.130416 32.5239495,163.699858 C34.3431597,163.831837 36.1712207,163.831837 37.9904309,163.699858 L41.8169679,163.434939 L49.0074935,162.9051 L50.5212884,162.9051 C47.2017263,168.477191 45.3866507,174.674503 45.2230064,180.995315 C44.902251,198.397101 56.6431141,214.141918 74.6579065,220.468317 C83.481953,223.477116 93.1067631,224.030883 102.284663,222.057833 C121.136156,217.936258 135.043305,203.553446 136.975795,186.180168 C137.902721,178.043635 136.054654,169.84597 131.677513,162.678026 L141.643329,162.678026 C158.715571,163.094328 173.180722,162.072496 172.634074,156.698415 C172.087426,151.324334 160.019117,146.896394 142.189977,145.344723 C135.293801,144.688732 128.285491,144.121047 121.165049,143.641669 C120.082246,143.570029 118.994617,143.69883 117.96926,144.020126 L117.548761,144.020126 C112.398512,145.694835 108.476501,149.521226 107.036297,154.276294 C106.812393,155.071619 106.657742,155.881447 106.573748,156.698415 L106.573748,158.47716 L106.573748,159.915294 C106.591048,160.766538 106.689526,161.614873 106.868097,162.450952 C107.197629,164.024568 107.793244,165.54342 108.634191,166.954583 C109.021532,167.610698 109.457012,168.242859 109.937737,168.846865 L110.442335,169.565932 C110.778734,169.982234 111.031033,170.436382 111.325382,170.890529 C113.44656,174.356432 114.423992,178.295417 114.142723,182.244221 C113.605072,191.598803 106.214713,199.487742 96.0612839,201.545497 C94.6054489,201.803181 93.1289427,201.955053 91.6460489,201.999645 C88.7136036,202.087245 85.7891024,201.67638 83.0258281,200.788584 C77.3901384,198.850504 72.7781588,195.064698 70.1165219,190.191805 C67.4789053,185.294556 67.0274342,179.673628 68.8550262,174.485865 C69.3234121,173.175721 69.9288389,171.908523 70.6631701,170.701301 C71.0416188,170.095771 71.4200675,169.490241 71.8826159,168.922556 C72.3451644,168.354872 72.7236131,167.900724 73.2702612,167.030274 C73.8492225,166.128679 74.3280996,165.177947 74.6999564,164.191851 C75.2988845,162.608071 75.597402,160.944868 75.5830034,159.271918 L75.5830034,157.758093 C75.6154227,157.216031 75.6154227,156.672792 75.5830034,156.13073 C75.4384122,155.033315 75.1562843,153.954154 74.7420062,152.913851 C73.0391036,148.755194 69.3968261,145.477078 64.7761901,143.944434 L64.3556915,143.944434 C63.3177199,143.615783 62.2146652,143.486852 61.1178525,143.565978 L35.6356389,145.306877 C29.8748069,145.210118 24.6536529,142.233027 22.0955848,137.586367 C21.4842504,136.00758 21.2269856,134.335325 21.3386874,132.666434 C21.2968729,132.263624 21.2968729,131.858183 21.3386874,131.455374 L21.5489367,129.941548 L22.0955848,125.854219 C22.936582,120.808134 23.6374129,115.585436 24.1980777,110.186124 C25.3194072,99.5893455 26.0062216,88.9294905 26.2585207,78.2065594 C26.5528697,67.4962436 26.2585207,56.7480821 25.8380221,46.0377662 L25.3754737,37.9766451 L25.0390749,33.9271617 C25.0066028,33.4734842 25.0066028,33.0183962 25.0390749,32.5647187 C24.9985606,32.2630515 24.9985606,31.9580906 25.0390749,31.6564234 C25.5471384,26.6030479 30.1686703,22.6873034 35.8038383,22.5356243 L36.8130349,22.5356243 L39.0416774,22.5356243 L43.5410121,22.8005438 L52.4976317,23.2546915 C64.4678244,23.8097609 76.4380172,24.0872955 88.4082099,24.0872955 C112.334579,24.0872955 136.260948,23.1033089 159.892967,21.3245639 C164.465815,20.7761416 168.807664,19.1869927 172.507925,16.7073959 C176.250362,13.4905166 170.573631,11.6739259 162.458009,10.614248 C135.6302,7.35952308 104.387156,6.18630827 72.5554137,4.74817399 C62.9680462,4.29402632 53.3946953,3.65065046 43.8353611,2.8180464 L40.2611232,2.51528128 L38.4109295,2.51528128 L35.8458882,2.51528128 C32.3832412,2.46472799 28.9338196,2.91188431 25.6277729,3.83987865 C18.9533082,5.66767575 13.075371,9.3179488 8.80782991,14.285275 C4.48808433,19.2115902 1.93616393,25.2043248 1.49115473,31.4671952 C1.49115473,35.2517591 1.49115473,36.7655846 1.74345388,39.036323 L2.03780288,45.5079273 C2.40223497,54.1115025 2.58445102,62.727693 2.58445102,71.3564987 C2.58445102,88.5888797 1.92566992,105.821261 0.608107726,123.053642 L0.0614595808,129.638783 C-0.151252664,132.958224 0.188909728,136.287631 1.07065616,139.516495 C2.89299248,145.990965 6.90423004,151.796357 12.5502672,156.13073 Z M25.1652244,315.082414 L25.4595734,311.032931 L25.9641717,302.97181 C26.580903,292.198418 26.8892686,281.425026 26.8892686,270.651634 C26.8892686,249.117465 25.7959723,227.583297 23.819629,206.314048 C23.2102832,202.198401 21.4445981,198.290658 18.6895464,194.960356 C15.1153085,191.592094 13.0969154,196.701255 11.9195194,204.005464 C8.17708205,228.037444 6.87353647,256.156754 5.27564189,284.805903 C4.7710436,293.434709 4.05619603,302.050899 3.13109917,310.654475 L2.79470031,313.871354 L2.79470031,315.536562 L2.79470031,317.845146 C2.73853112,320.961591 3.2353614,324.066134 4.26644532,327.041636 C6.2972898,333.048776 10.3530665,338.339027 15.8722059,342.179892 C21.4602813,346.105562 28.2608279,348.379312 35.3412899,348.689342 C39.5462756,348.689342 41.2282699,348.689342 43.7512614,348.462268 L50.941787,348.197348 C60.5011212,347.869353 70.0744721,347.705355 79.6618396,347.705355 C98.8085413,347.705355 117.955243,348.29827 137.101945,349.4841 L144.41862,349.938248 C147.974894,350.13332 151.543837,349.865643 155.015184,349.143489 C162.208893,347.503353 168.659199,343.893166 173.475071,338.81163 C178.30946,333.764686 181.252343,327.474147 181.885043,320.834951 C182.031865,319.197636 182.031865,317.552334 181.885043,315.915018 L181.590694,312.471065 L181.001996,305.999461 L181.001996,304.637018 C187.193083,307.624684 194.078846,309.258286 201.101828,309.405568 C220.436754,309.694254 237.93064,299.127263 244.959829,282.913621 C248.302871,274.971818 248.918156,266.309313 246.725923,258.049036 C242.146488,241.082348 226.165909,228.56566 206.862658,226.826384 C197.822249,225.992134 188.713918,227.655428 180.749697,231.594935 L180.749697,222.625518 C181.212245,207.260189 180.076899,194.241289 174.105819,194.733282 C168.134739,195.225275 163.214906,206.086974 161.490862,222.133525 C160.761998,228.34021 160.13125,234.647816 159.598618,241.056344 C159.519019,242.030886 159.662128,243.009773 160.019117,243.932613 L160.019117,244.311069 C161.879868,248.946388 166.131327,252.476269 171.414628,253.772479 C172.298305,253.973996 173.198096,254.113185 174.105819,254.188781 L176.082162,254.188781 L177.680057,254.188781 C178.625877,254.173398 179.56847,254.084764 180.497398,253.923862 C182.245825,253.627277 183.933403,253.091212 185.501331,252.334345 C186.230333,251.985731 186.932719,251.593791 187.603823,251.16113 L188.402771,250.706982 C188.865319,250.404217 189.369917,250.177143 189.874516,249.912224 C193.725441,248.003125 198.102001,247.123419 202.489473,247.376566 C212.883242,247.860461 221.648552,254.51192 223.9349,263.650191 C224.22103,264.960494 224.389772,266.289363 224.439498,267.623983 C224.53683,270.263237 224.080323,272.895342 223.093903,275.382339 C220.940524,280.454563 216.734158,284.605428 211.319943,287.00095 C205.878665,289.374853 199.633316,289.781185 193.869252,288.136319 C192.413654,287.71455 191.005707,287.169664 189.664266,286.508957 C188.991469,286.168346 188.318671,285.827735 187.687923,285.411433 C187.057175,284.995131 186.552577,284.65452 185.58543,284.162527 C184.583678,283.641451 183.527331,283.210453 182.431691,282.875775 C181.259345,282.517013 180.046566,282.275862 178.815403,282.156708 L176.965209,282.156708 L175.283215,282.156708 L173.475071,282.156708 C172.255746,282.286843 171.056703,282.540763 169.900833,282.913621 C165.280197,284.446265 161.63792,287.724381 159.935017,291.883038 L159.935017,292.261494 C159.569856,293.195687 159.426602,294.188457 159.514519,295.175608 L161.448812,318.110065 C161.37365,323.26159 158.136407,327.952449 153.038841,330.296361 C151.284668,330.846573 149.426645,331.078116 147.572359,330.977583 C147.124802,331.015217 146.674321,331.015217 146.226764,330.977583 L144.544769,330.788354 L139.835185,330.22067 C134.228538,329.463757 128.425657,328.832996 122.426544,328.328388 C110.652584,327.319171 98.8085413,326.701025 86.894415,326.473952 C74.9943054,326.209032 63.0521459,326.473952 51.1520363,326.852408 L42.1954167,327.26871 L37.7381318,327.53363 C37.2340559,327.562855 36.7284128,327.562855 36.2243369,327.53363 C35.8891579,327.570093 35.5503194,327.570093 35.2151403,327.53363 C29.599294,327.096245 25.2307977,322.95331 25.0390749,317.882992 C25.0567149,317.580435 25.0567149,317.277253 25.0390749,316.974696 L25.1652244,315.082414 Z" id="Shape"></path>
        </g>
    </g>
</svg>