<?xml version="1.0" encoding="UTF-8"?>
<svg width="419px" height="427px" viewBox="0 0 419 427" version="1.1" xmlns="http://www.w3.org/2000/svg" xmlns:xlink="http://www.w3.org/1999/xlink">
    <!-- Generator: Sketch 46.2 (44496) - http://www.bohemiancoding.com/sketch -->
    <title>noun_Checklist_1016151 Copy</title>
    <desc>Created with Sketch.</desc>
    <defs></defs>
    <g id="Page-1" stroke="none" stroke-width="1" fill="none" fill-rule="evenodd">
        <g id="noun_Checklist_1016151-Copy" fill-rule="nonzero" fill="#000000">
            <path d="M189.728011,92.7277389 C195.853137,92.8518902 201.946319,93.6234793 207.900444,95.0289418 C211.307775,95.6927503 213.624761,99.8083631 213.851916,105.428609 C214.079071,111.048854 211.353206,114.677674 208.036737,115.474244 C199.968671,117.28173 191.678472,117.967095 183.41309,117.509924 C177.814579,117.726671 172.207259,117.489835 166.64902,116.801861 L164.195742,116.403576 C160.814656,116.731134 157.415639,116.849382 154.019179,116.757607 C145.821702,116.699329 137.650063,115.854424 129.622687,114.235135 L123.171473,113.305803 C116.078074,112.324597 109.783819,108.361181 105.953093,102.463597 C104.182209,100.09236 103.552547,97.090191 104.226712,94.2323716 C104.635591,92.5507233 105.862231,90.2052666 106.67999,90.2937744 L109.723873,90.2937744 C109.723873,90.2937744 109.951028,90.0725049 110.087321,90.2937744 C112.683264,90.5574514 115.291451,90.6903901 117.901468,90.6920595 L129.486394,90.6920595 L133.120881,90.6920595 C142.046603,90.4248046 150.934739,91.9305145 159.243754,95.1174496 C166.512727,94.2766255 173.7817,93.2145318 181.050674,92.9932623 C182.563277,92.8925222 184.081178,92.8925222 185.593782,92.9932623 L189.728011,92.7277389 Z M189.728011,202.034875 C184.811565,200.620607 179.724489,199.846812 174.59946,199.733672 L171.601008,199.733672 C170.421654,199.642508 169.236738,199.642508 168.057384,199.733672 C161.873544,200.133466 155.71629,200.857328 149.612364,201.902113 C143.572815,198.972874 136.91462,197.457531 130.16786,197.476723 L127.714582,197.476723 C123.671215,197.476723 119.627849,197.476723 115.584482,197.476723 C113.568549,197.534939 111.550846,197.475829 109.542148,197.299707 C109.542148,197.299707 109.542148,197.299707 109.224131,197.565231 L106.089386,197.299707 C105.453351,197.299707 104.408436,199.60091 104.090418,201.238305 C103.53437,204.062992 104.05103,206.988263 105.544213,209.46953 C108.256763,215.053022 113.506939,219.068931 119.718711,220.311736 L129.849843,222.037638 C135.052038,223.189075 140.370491,223.768001 145.705291,223.76354 C148.514448,223.830641 151.324677,223.682673 154.110041,223.321001 L156.427026,223.76354 C160.933633,224.450747 165.498896,224.702742 170.056352,224.515857 C176.707004,224.873728 183.372123,224.140713 189.773442,222.347415 C192.499307,221.550845 194.770861,218.453072 194.543706,212.30178 C194.31655,206.150488 192.453876,202.698683 189.68258,202.034875 L189.728011,202.034875 Z M168.920574,309.040808 C165.267396,307.642121 161.39511,306.863782 157.471941,306.739605 L155.836422,306.739605 C155.035638,306.664909 154.229359,306.664909 153.428575,306.739605 C148.47441,307.182856 143.556652,307.951675 138.708904,309.040808 C135.979328,307.180094 132.886809,305.884767 129.622687,305.234972 C127.214231,304.668985 124.739461,304.416016 122.262852,304.482656 C119.218969,304.482656 116.220518,304.482656 113.176635,304.482656 C111.746029,304.469111 110.318494,304.350767 108.906113,304.128625 C108.906113,304.128625 108.906113,304.128625 108.588096,304.438402 C107.49775,304.438402 106.407404,304.438402 105.362489,304.128625 C104.317574,303.818847 104.090418,306.429828 103.863263,308.067222 C103.411507,310.918131 103.805571,313.835422 104.99904,316.475463 C108.088354,323.46758 111.904565,326.521099 115.720776,327.317669 C120.263884,328.291255 124.806992,329.530364 129.668118,330.238426 C131.734784,330.616919 133.834893,330.794805 135.937608,330.769473 C138.072625,330.796849 140.20462,330.604008 142.29796,330.194173 C143.024857,330.194173 143.706323,330.592458 144.43322,330.725219 C147.676054,331.363578 150.98644,331.616197 154.291766,331.477536 C159.234931,331.811111 164.193784,331.101651 168.829712,329.397602 C170.874111,328.601032 172.600492,325.503259 172.464199,319.351967 C172.327906,313.200675 171.055835,309.704616 168.920574,309.040808 Z M409.977903,107.995335 C406.484647,105.035655 402.254818,103.021321 397.711511,102.15382 C395.349095,101.755535 393.168402,101.490011 390.98771,101.180234 C386.444602,100.604933 381.901494,100.206648 377.358385,99.9853787 C374.480273,99.7242686 371.615251,100.601372 369.407946,102.419343 C370.40743,90.5150439 369.407946,82.6821034 365.637166,83.0803885 C359.594832,83.6556892 351.053788,101.711281 344.057401,129.060192 C331.654715,178.093514 318.84315,227.61363 307.485379,277.133745 L303.305719,295.543368 L301.21589,304.703926 C300.488992,307.580429 299.943819,310.54544 299.080629,313.554706 C289.818226,348.209121 270.626257,379.5818 243.745569,404.00968 L243.745569,404.00968 C243.115297,404.621692 242.20254,404.868419 241.338627,404.660299 C240.474715,404.45218 239.785239,403.819469 239.520478,402.99184 C236.398903,396.152243 233.668852,389.149389 231.342883,382.015491 C226.747158,367.643502 223.940609,352.785747 222.983564,337.76159 C223.051562,320.27467 225.449146,302.870292 230.116244,285.984525 C234.871364,268.282965 239.505334,250.41914 244.018155,232.393051 C253.104372,196.547391 261.599985,160.436208 270.004735,124.28077 L282.498283,69.9812337 L285.587597,56.3952861 C286.587081,51.9698959 287.722858,46.7479356 288.540617,44.0041937 C290.647277,37.7145608 294.595013,32.1617386 299.898388,28.0285354 C302.622127,26.0501562 305.600565,24.428425 308.757449,23.2048602 C311.892707,21.9888423 315.17555,21.1708056 318.525132,20.7708956 C321.936565,20.5804242 325.358845,20.833421 328.701695,21.5232119 C331.985936,22.2612208 335.139786,23.4691942 338.060498,25.1077779 C350.071948,32.2647461 356.652717,45.6223258 354.869999,59.2275357 C354.66512,60.5756041 354.558847,61.9361504 354.551982,63.2988946 C354.551982,65.2460663 354.279395,67.2817458 354.279395,69.2289174 C354.171085,72.3139398 354.414879,75.4011366 355.006292,78.4337288 C356.914398,85.4258452 361.548368,77.8141742 366.364063,66.0426365 C370.68399,55.5803268 370.974434,43.9492782 367.181823,33.2947497 C362.825496,20.8910489 353.547285,10.7055922 341.422398,5.01650681 C328.006518,-1.15724835 312.567306,-1.65374886 298.762611,3.64463587 C284.181993,9.18534387 272.648947,20.4195528 266.960853,34.6223667 C266.10224,36.757523 265.388942,38.9454516 264.825592,41.1719441 C264.189556,43.3846391 263.871539,44.9777796 263.371797,46.9249512 L260.600501,58.1211882 L255.194202,80.7349317 L244.018155,125.431372 L221.893218,215.089776 L211.035189,260.051739 L205.719752,282.532721 C203.871952,290.516839 202.506673,298.59969 201.630955,306.739605 C198.1198,339.563959 202.892045,372.726939 215.532866,403.345871 C216.53235,406.001105 217.622696,408.612085 218.713042,411.26732 C218.713042,411.665605 218.713042,411.798366 219.212784,412.417921 L220.121406,414.188077 C220.773872,415.363087 221.518105,416.487498 222.347529,417.551373 C224.062842,419.673084 226.118543,421.511139 228.435294,422.994603 C233.09166,425.94703 238.613506,427.330586 244.154449,426.933201 C248.777471,426.643139 253.227663,425.111379 257.011445,422.50781 C257.740968,422.088299 258.42581,421.599094 259.055844,421.047432 L259.055844,421.047432 C262.781193,417.772643 266.506542,414.4536 270.050166,410.913288 C288.738476,392.244999 303.643113,370.309697 313.982024,346.258339 C319.144466,334.355173 323.174449,322.015582 326.021261,309.394839 L334.244287,273.991718 C345.193178,226.772806 355.506034,179.642401 365.046562,132.290727 C366.22777,126.449212 367.227254,120.828966 367.999582,115.562752 C369.207638,117.648872 371.165928,119.225358 373.496743,119.988142 C378.039852,121.492775 382.58296,123.041661 386.898913,124.413532 L390.260813,125.431372 L391.941763,125.918165 L392.350643,125.918165 L392.350643,125.918165 L392.986678,126.493466 C393.397739,126.813879 393.672789,127.270924 393.759007,127.776829 C393.729858,128.432674 393.638608,129.084498 393.48642,129.724 L393.032109,132.467742 L392.396074,138.265003 L389.170467,160.082176 C375.541142,184.156299 374.359934,211.416702 367.000098,237.083965 C366.682081,238.234566 368.635617,240.535769 370.180274,241.509355 C373.001363,243.059508 376.513762,242.74206 378.993904,240.712784 C386.977067,235.167813 392.76608,227.123239 395.394526,217.922025 C402.118326,196.724407 409.887041,175.792311 412.476613,153.576853 C413.339804,150.921619 414.202994,148.310639 414.975323,145.655405 L416.792566,139.327097 L417.655756,136.18507 L418.064636,134.591929 L418.473516,133.839613 L418.473516,133.397074 L418.473516,132.55625 C420.355426,123.478413 417.115861,114.112793 409.977903,107.995335 Z M67.2003785,73.9640848 C61.0301212,76.6194927 55.2907513,80.1378782 50.1637222,84.4080055 C42.4592011,91.7225424 35.547585,99.7897108 29.5380103,108.482128 C28.3113711,109.101682 27.1301629,109.765491 25.9489547,110.473553 C20.2852542,104.583648 14.029952,99.2613478 7.27677942,94.5864028 C6.45901992,94.0111021 3.91487924,95.2502113 2.73367107,96.4893205 C0.642203485,98.6432099 -0.327761136,101.608026 0.0986682316,104.543531 C0.31929922,111.196116 2.46073982,117.653367 6.27729558,123.174423 C8.19955166,125.824916 9.87215097,128.639092 11.2747148,131.582664 C12.0016121,132.998789 12.6376473,134.503422 13.2282514,136.008054 L13.2282514,136.008054 L13.2282514,136.008054 L33.5359457,136.848878 L33.5359457,136.848878 L33.7631011,136.583355 L34.2174119,136.096562 L35.1260336,135.122976 L36.9432769,133.131551 C41.9146679,127.962575 46.4711749,122.429318 50.572602,116.580592 L54.8431238,113.261549 C63.8244072,106.355311 72.1422671,98.6677227 79.6939265,90.2937744 C81.8291874,87.771302 82.2380672,83.744197 78.4218561,78.7877601 C74.6056451,73.8313231 70.5622787,72.3709444 67.2003785,73.9640848 Z M67.2003785,180.970018 C61.0325844,183.611218 55.2932811,187.114655 50.1637222,191.369685 C42.4592011,198.684222 35.547585,206.75139 29.5380103,215.443807 C28.3113711,216.063361 27.1301629,216.72717 25.9489547,217.435232 C20.2852542,211.545327 14.029952,206.223027 7.27677942,201.548082 C6.45901992,200.972781 3.91487924,202.21189 2.73367107,203.451 C0.642203485,205.604889 -0.327761136,208.569705 0.0986682316,211.50521 C0.31929922,218.157795 2.46073982,224.615046 6.27729558,230.136102 C8.19955166,232.786595 9.87215097,235.600772 11.2747148,238.544343 C12.0016121,239.960468 12.6376473,241.465101 13.2282514,242.969733 L13.2282514,242.969733 L13.2282514,242.969733 L33.5359457,243.810557 L33.5359457,243.810557 L33.7631011,243.545034 L34.2174119,243.058241 L35.1260336,242.084655 L36.8524148,240.048976 C41.8238058,234.88 46.3803127,229.346743 50.4817398,223.498017 L54.7522617,220.178974 C63.733545,213.272736 72.0514049,205.585148 79.6030643,197.2112 C81.7383252,194.688727 82.147205,190.661622 78.330994,185.705185 C74.514783,180.748748 70.5622787,179.376877 67.2003785,180.970018 Z M67.2003785,287.975951 C61.0298156,290.630799 55.2903655,294.149234 50.1637222,298.419872 C42.4592011,305.734408 35.547585,313.801577 29.5380103,322.493994 C28.3113711,323.113548 27.1301629,323.777357 25.9489547,324.485419 C20.2830415,318.610932 14.0278149,313.303521 7.27677942,308.642523 C6.45901992,308.067222 3.91487924,309.306331 2.73367107,310.54544 C0.642203485,312.69933 -0.327761136,315.664146 0.0986682316,318.59965 C0.244742498,325.299658 2.34004327,331.821678 6.14100233,337.407558 C8.06325841,340.058052 9.73585772,342.872228 11.1384215,345.8158 C11.8653189,347.231925 12.501354,348.736557 13.0919581,350.24119 L13.0919581,350.24119 L13.0919581,350.24119 L33.3996524,351.082014 L33.3996524,351.082014 L33.6268078,350.816491 L34.0811187,350.329698 L34.9897403,349.356112 L36.8069837,347.364686 C41.7783747,342.19571 46.3348816,336.662453 50.4363087,330.813727 L54.7068306,327.494685 C63.688114,320.588446 72.0059738,312.900858 79.5576332,304.52691 C81.6928942,302.004438 82.1017739,297.977333 78.2855629,293.020896 C74.4693519,288.064459 70.5622787,286.38281 67.2003785,287.975951 Z" id="Shape"></path>
        </g>
    </g>
</svg>