<?xml version="1.0" encoding="UTF-8"?>
<svg width="404px" height="454px" viewBox="0 0 404 454" version="1.1" xmlns="http://www.w3.org/2000/svg" xmlns:xlink="http://www.w3.org/1999/xlink">
    <!-- Generator: Sketch 46.2 (44496) - http://www.bohemiancoding.com/sketch -->
    <title>noun_complex idea_1710293</title>
    <desc>Created with Sketch.</desc>
    <defs></defs>
    <g id="Page-1" stroke="none" stroke-width="1" fill="none" fill-rule="evenodd">
        <g id="noun_complex-idea_1710293" fill-rule="nonzero" fill="#000000">
            <path d="M93.3785578,26.2288673 C89.2477427,28.7463325 87.794392,34.1318682 90.0811431,38.4477663 L114.541965,81.9470464 C117.168141,85.928533 122.363113,87.1722933 126.454387,84.7990727 C130.545661,82.4258521 132.148473,77.2389087 130.129744,72.9050612 L105.668922,29.5890645 C104.477328,27.4816059 102.512477,25.9433121 100.207193,25.3130455 C97.9019103,24.6827789 95.4453151,25.012245 93.3785578,26.2288673 Z" id="Shape"></path>
            <path d="M35.6335644,93.2777312 C31.2852184,90.6457307 25.726516,92.2104133 23.2178549,96.7725476 C20.7091938,101.334682 22.2005529,107.16668 26.5488988,109.798681 L69.367956,135.723864 C72.1808426,137.42647 75.6458208,137.425305 78.4576667,135.720808 C81.2695127,134.016311 83.0010402,130.867436 82.9999995,127.460333 C82.9989589,124.05323 81.2655082,120.90552 78.4526216,119.202914 L35.6335644,93.2777312 Z" id="Shape"></path>
            <path d="M70,193.5 C70,188.253295 65.7913965,184 60.5998209,184 L9.40017905,184 C4.20860352,184 0,188.253295 0,193.5 C0,198.746705 4.20860352,203 9.40017905,203 L60.5998209,203 C65.7913965,203 70,198.746705 70,193.5 Z" id="Shape"></path>
            <path d="M72.4273385,249.214146 L29.5487855,275.20195 C25.2005479,277.833857 23.7092259,283.665649 26.2178245,288.227622 C28.7264231,292.789594 34.2849871,294.354221 38.6332247,291.722314 L81.4512148,265.79805 C85.7994521,263.166143 87.290774,257.334351 84.7821755,252.772378 C82.273577,248.210406 76.7150132,246.645779 72.3667756,249.277686 L72.4273385,249.214146 Z" id="Shape"></path>
            <path d="M397.850467,122.553651 L373.252336,122.553651 C369.856043,122.553651 367.102804,125.297108 367.102804,128.681334 L367.102804,134.809016 L348.654206,134.809016 C345.257912,134.809016 342.504673,137.552473 342.504673,140.936699 L342.504673,177.702794 L324.056075,177.702794 C320.659782,177.702794 317.906542,180.446251 317.906542,183.830476 L317.906542,220.596572 L207.214953,220.596572 C206.691472,220.632921 206.174813,220.735885 205.67757,220.902956 C203.541007,216.958686 199.413978,214.491266 194.915888,214.468889 L194.915888,214.468889 L194.915888,208.341207 L194.915888,208.341207 C199.283422,208.314938 203.309357,205.982595 205.493084,202.213524 L274.859813,202.213524 C278.256106,202.213524 281.009346,199.470067 281.009346,196.085842 L281.009346,104.170603 L311.757009,104.170603 C315.153302,104.170603 317.906542,101.427146 317.906542,98.0429208 L317.906542,66.3015252 C326.37781,63.3171213 331.459326,54.6854843 329.939921,45.8612119 C328.420517,37.0369395 320.742146,30.586774 311.757009,30.586774 C302.771872,30.586774 295.093502,37.0369395 293.574098,45.8612119 C292.054693,54.6854843 297.136208,63.3171213 305.607477,66.3015252 L305.607477,91.9152382 L274.859813,91.9152382 C271.46352,91.9152382 268.71028,94.6586951 268.71028,98.0429208 L268.71028,189.958159 L205.493084,189.958159 C203.309357,186.189088 199.283422,183.856745 194.915888,183.830476 L194.915888,183.830476 L194.915888,177.702794 L194.915888,177.702794 C199.283422,177.676525 203.309357,175.344182 205.493084,171.575111 L244.11215,171.575111 C247.508443,171.575111 250.261682,168.831654 250.261682,165.447429 L250.261682,116.425968 C250.261682,113.041743 247.508443,110.298286 244.11215,110.298286 L219.514019,110.298286 L219.514019,36.7660953 L225.663551,36.7660953 C229.059845,36.7660953 231.813084,34.0226384 231.813084,30.6384127 L231.813084,6.12768255 C231.813084,2.74345693 229.059845,0 225.663551,0 L201.065421,0 C197.669127,0 194.915888,2.74345693 194.915888,6.12768255 L194.915888,30.6384127 C194.915888,34.0226384 197.669127,36.7660953 201.065421,36.7660953 L207.214953,36.7660953 L207.214953,116.425968 C207.214953,119.810194 209.968193,122.553651 213.364486,122.553651 L237.962617,122.553651 L237.962617,159.319746 L205.493084,159.319746 C203.309357,155.550676 199.283422,153.218333 194.915888,153.192064 L194.915888,153.192064 L194.915888,82.6011608 C194.915888,79.2169351 192.162648,76.4734782 188.766355,76.4734782 L188.028411,76.4734782 C125.465538,76.9447487 74.9982124,127.615799 75,189.958159 C75,223.231475 93.7560748,256.382238 110.298318,285.611284 C119.936612,301.07378 127.913521,317.504924 134.097009,334.632744 L130.40729,334.632744 C127.010997,334.751192 124.35412,337.59067 124.472991,340.974895 C124.591861,344.359121 127.441464,347.006557 130.837757,346.888109 L131.268224,346.888109 L136.249346,346.520448 C136.249346,347.317047 136.249346,348.174922 136.249346,348.971521 L136.249346,352.648131 L131.514206,353.015792 C128.117912,353.13424 125.461036,355.973717 125.579907,359.357943 C125.698777,362.742169 128.54838,365.389605 131.944673,365.271157 L132.37514,365.271157 L136.249346,365.271157 L136.249346,371.398839 L132.867103,371.398839 C129.47081,371.517287 126.813934,374.356765 126.932804,377.740991 C127.051675,381.125216 129.901277,383.772652 133.29757,383.654204 L133.728037,383.654204 L136.249346,383.654204 L136.249346,389.781887 L134.158505,389.781887 C130.762212,389.900335 128.105335,392.739813 128.224206,396.124038 C128.343076,399.508264 131.192679,402.1557 134.588972,402.037252 L136.18785,402.037252 L136.18785,404.427048 L136.18785,405.836415 C138.647664,421.339452 150.823738,431.082467 165.582617,435.800783 C168.431979,444.801497 176.060228,451.482006 185.384112,453.142124 C186.261146,453.662696 187.254441,453.95752 188.274393,454 C191.670686,454 194.423925,451.256543 194.423925,447.872317 L194.423925,300.256445 L194.423925,300.256445 C198.791459,300.230176 202.817394,297.897833 205.001121,294.128762 L268.71028,294.128762 L268.71028,318.639493 L262.560748,318.639493 C259.164455,318.639493 256.411215,321.382949 256.411215,324.767175 L256.411215,379.916318 L249.154766,379.916318 C246.159721,371.475149 237.497305,366.411689 228.641567,367.925695 C219.785829,369.439701 213.312663,377.090789 213.312663,386.044001 C213.312663,394.997212 219.785829,402.6483 228.641567,404.162306 C237.497305,405.676312 246.159721,400.612852 249.154766,392.171683 L262.560748,392.171683 C265.957041,392.171683 268.71028,389.428226 268.71028,386.044001 L268.71028,330.894858 L274.859813,330.894858 C278.256106,330.894858 281.009346,328.151401 281.009346,324.767175 L281.009346,288.00108 C281.009346,284.616854 278.256106,281.873397 274.859813,281.873397 L205.493084,281.873397 C203.309357,278.104327 199.283422,275.771984 194.915888,275.745715 L194.915888,275.745715 L194.915888,269.618032 L194.915888,269.618032 C199.283422,269.591763 203.309357,267.25942 205.493084,263.49035 L293.308411,263.49035 L293.308411,288.00108 C293.308411,291.385305 296.061651,294.128762 299.457944,294.128762 L311.757009,294.128762 L311.757009,343.150223 C311.757009,346.534448 314.510249,349.277905 317.906542,349.277905 L352.28243,349.277905 L349.761121,351.851532 C348.212225,353.405871 347.613172,355.66553 348.189621,357.779318 C348.76607,359.893105 350.430444,361.539886 352.555789,362.099334 C354.681135,362.658782 356.944561,362.045904 358.493458,360.491564 L367.102804,351.790255 L375.83514,360.491564 C378.246508,362.877443 382.142342,362.863726 384.536729,360.460926 C386.931116,358.058126 386.917349,354.176134 384.505981,351.790255 L375.773645,343.150223 L384.444486,334.51019 C385.993383,332.955851 386.592435,330.696192 386.015987,328.582405 C385.439538,326.468617 383.775164,324.821836 381.649818,324.262388 C379.524473,323.70294 377.261046,324.315819 375.71215,325.870158 L367.102804,334.448913 L358.431963,325.808881 C356.020594,323.423002 352.124761,323.43672 349.730374,325.83952 C347.335988,328.24232 347.349754,332.124311 349.761121,334.51019 L352.28243,337.02254 L324.056075,337.02254 L324.056075,288.00108 C324.056075,284.616854 321.302835,281.873397 317.906542,281.873397 L305.607477,281.873397 L305.607477,257.362667 C305.607477,253.978441 302.854237,251.234984 299.457944,251.234984 L205.493084,251.234984 C203.309357,247.465914 199.283422,245.133571 194.915888,245.107302 L194.915888,245.107302 L194.915888,238.979619 L194.915888,238.979619 C199.413978,238.957242 203.541007,236.489823 205.67757,232.545553 C206.174813,232.712623 206.691472,232.815588 207.214953,232.851937 L324.056075,232.851937 C327.452368,232.851937 330.205607,230.10848 330.205607,226.724254 L330.205607,189.958159 L348.654206,189.958159 C352.050499,189.958159 354.803738,187.214702 354.803738,183.830476 L354.803738,147.064381 L367.102804,147.064381 L367.102804,153.192064 C367.102804,156.576289 369.856043,159.319746 373.252336,159.319746 L397.850467,159.319746 C401.24676,159.319746 404,156.576289 404,153.192064 L404,128.681334 C404,125.297108 401.24676,122.553651 397.850467,122.553651 Z M311.757009,42.8937778 C315.153302,42.8937778 317.906542,45.6372348 317.906542,49.0214604 C317.906542,52.405686 315.153302,55.1491429 311.757009,55.1491429 C308.360716,55.1491429 305.607477,52.405686 305.607477,49.0214604 C305.607477,45.6372348 308.360716,42.8937778 311.757009,42.8937778 Z M207.214953,12.2553651 L219.514019,12.2553651 L219.514019,24.5107302 L207.214953,24.5107302 L207.214953,12.2553651 Z M231.813084,392.171683 C228.416791,392.171683 225.663551,389.428226 225.663551,386.044001 C225.663551,382.659775 228.416791,379.916318 231.813084,379.916318 C235.209377,379.916318 237.962617,382.659775 237.962617,386.044001 C237.962617,389.428226 235.209377,392.171683 231.813084,392.171683 Z M159.248598,208.341207 C157.29752,205.198418 155.864934,201.764153 155.005421,198.169254 C154.336279,195.343365 151.768685,193.373342 148.855888,193.450938 L139.570093,193.450938 L139.570093,186.710487 L148.978879,186.710487 C151.891675,186.788083 154.459269,184.81806 155.128411,181.992172 C155.911486,178.325274 157.281918,174.807915 159.187103,171.575111 C160.539864,169.127263 160.05927,166.077519 158.018692,164.160615 L151.869159,157.603995 L156.481308,153.008233 L162.876822,159.319746 C164.905814,161.344774 168.071209,161.700888 170.502243,160.177622 C173.689225,158.198001 177.17871,156.749215 180.833458,155.888244 C181.463048,155.738196 182.064914,155.490034 182.616822,155.152922 L182.616822,168.388716 C172.846428,170.959875 166.039758,179.766131 166.039758,189.835605 C166.039758,199.905079 172.846428,208.711336 182.616822,211.282494 L182.616822,224.334458 C182.064914,223.997347 181.463048,223.749184 180.833458,223.599136 C177.120175,222.770966 173.567978,221.342716 170.317757,219.371035 C167.9005,217.880652 164.773128,218.235348 162.753832,220.228911 L156.296822,226.724254 L151.869159,222.312323 L158.57215,215.633149 C160.390713,213.618833 160.665791,210.653563 159.248598,208.341207 Z M182.616822,197.801593 C180.207628,195.919896 178.800344,193.039015 178.800344,189.988797 C178.800344,186.93858 180.207628,184.057699 182.616822,182.176002 L182.616822,197.801593 Z M126.410093,276.542313 C110.175327,247.987313 93.4485981,218.390606 93.4485981,189.958159 C93.5362523,139.935436 132.522199,98.542836 182.616822,95.2854636 L182.616822,128.681334 L179.419065,128.681334 C176.022772,128.681334 173.269533,131.42479 173.269533,134.809016 L173.269533,145.593737 C171.592397,146.174003 169.949853,146.849145 168.349907,147.615873 L160.662991,139.956269 C158.264443,137.580422 154.390698,137.580422 151.99215,139.956269 L138.647664,153.192064 C136.263345,155.582089 136.263345,159.44207 138.647664,161.832096 L146.396075,169.552976 C145.6284,171.127106 144.950865,172.74332 144.366729,174.393845 L133.420561,174.393845 C130.024268,174.393845 127.271028,177.137302 127.271028,180.521528 L127.271028,199.272236 C127.271028,202.656462 130.024268,205.399919 133.420561,205.399919 L144.428224,205.399919 C144.995504,207.02795 145.652452,208.62357 146.396075,210.179511 L138.586168,217.961668 C136.201849,220.351694 136.201849,224.211675 138.586168,226.601701 L151.869159,239.898772 C154.267707,242.274619 158.141452,242.274619 160.54,239.898772 L168.349907,232.116615 C169.911039,232.858399 171.512394,233.513031 173.146542,234.077473 L173.146542,245.107302 C173.146542,248.491528 175.899782,251.234984 179.296075,251.234984 L182.616822,251.234984 L182.616822,331.201242 L152.853084,333.345931 C148.425421,315.514374 137.663738,296.457282 126.410093,276.542313 Z M182.616822,343.517884 L182.616822,349.645566 L155.005421,351.667701 L155.005421,349.277905 C155.005421,348.052369 155.005421,346.765555 155.005421,345.540019 L182.616822,343.517884 Z M154.943925,370.112026 L154.943925,363.984343 L182.616822,361.962208 L182.616822,368.089891 L154.943925,370.112026 Z M182.616822,380.406533 L182.616822,386.534215 L155.005421,388.55635 L155.005421,382.428668 L182.616822,380.406533 Z M154.943925,403.569173 L154.943925,400.811715 L182.616822,398.78958 L182.616822,420.481576 C169.702804,419.194763 157.034766,413.741126 154.943925,403.569173 Z M391.700935,147.064381 L379.401869,147.064381 L379.401869,134.809016 L391.700935,134.809016 L391.700935,147.064381 Z" id="Shape"></path>
        </g>
    </g>
</svg>