<?xml version="1.0" encoding="UTF-8"?>
<svg width="394px" height="461px" viewBox="0 0 394 461" version="1.1" xmlns="http://www.w3.org/2000/svg" xmlns:xlink="http://www.w3.org/1999/xlink">
    <!-- Generator: Sketch 46.2 (44496) - http://www.bohemiancoding.com/sketch -->
    <title>noun_brainstorming_1016145 copy</title>
    <desc>Created with Sketch.</desc>
    <defs></defs>
    <g id="Page-1" stroke="none" stroke-width="1" fill="none" fill-rule="evenodd">
        <g id="noun_brainstorming_1016145-copy" fill-rule="nonzero" fill="#000000">
            <path d="M371.950267,186.611789 C373.801722,161.918638 369.245217,137.168803 358.698934,114.633737 C357.460202,111.793597 356.033378,109.03455 354.427442,106.373961 C352.874172,103.683633 351.563601,100.85171 349.573474,98.3029791 C325.947308,61.0409468 286.835418,35.6005691 242.397857,28.5904661 C217.312428,24.5986545 191.598528,26.7728743 167.598209,34.9150949 L158.666907,38.0302106 L150.075384,41.8533071 L145.755352,43.7884548 C144.347701,44.4964356 143.03713,45.3460126 141.678019,46.1011922 L133.523352,50.8210644 C122.888927,57.5387732 113.112537,65.4606957 104.399544,74.4204256 C95.6713866,83.4110874 88.0480003,93.3581543 81.6829727,104.061223 C75.4705295,114.875084 70.5832079,126.359819 67.1210683,138.280297 C63.7237115,150.34023 61.7691916,162.741151 61.2963066,175.236897 C61.0912286,182.737829 59.9502873,190.186803 57.8985289,197.420296 C56.8502587,201.034782 55.5695253,204.581671 54.0638941,208.040009 C52.5106243,211.627112 50.9088148,214.553432 49.2099259,217.479753 L26.4448154,268.407175 L25.0371646,271.569489 L24.4061488,273.127047 C24.4061488,273.127047 24.4061488,273.457438 24.4061488,273.646233 C24.247585,274.329896 24.247585,275.039314 24.4061488,275.722977 C24.7414808,277.094978 25.7624354,278.211821 27.1243709,278.696496 L53.6270369,287.003471 C57.8703748,288.325892 60.7905313,292.111871 60.9079891,296.443216 L60.9079891,296.443216 L61.2963066,339.394053 L61.2963066,350.155362 L61.2963066,358.226343 C61.2963066,359.217517 61.2963066,359.45351 61.2963066,360.114292 C61.6384902,364.736057 63.751726,369.064728 67.2181477,372.244364 C70.5971583,375.259126 75.0099457,376.941824 79.5957664,376.964236 L101.244464,376.964236 L145.464114,376.681044 C150.784594,376.662651 155.475713,380.069358 156.968018,385.035218 L156.968018,385.035218 L167.501129,420.245465 L170.122272,429.071626 L170.753288,431.14837 C170.822194,431.341815 170.903246,431.530965 170.995986,431.714754 C171.160977,432.095505 171.390705,432.446534 171.675542,432.753126 C172.812373,434.03617 174.606875,434.568832 176.286812,434.121889 C212.351795,424.068561 249.096333,414.109631 285.937952,404.433893 L340.98195,389.991084 L347.874585,388.197532 L351.320902,387.300756 L352.582934,386.875968 C354.229456,386.090079 355.461876,384.66915 355.980712,382.958474 C356.182964,382.088406 356.182964,381.185413 355.980712,380.315346 L355.980712,379.465768 L355.495315,377.719416 L354.524521,374.179512 L350.689886,360.019895 C346.024174,343.347799 342.473352,326.399481 340.059696,309.281268 C338.554966,297.0096 338.991823,290.118587 341.612966,289.552202 C344.234109,288.985818 349.088077,296.679209 354.67014,308.431691 C361.394391,323.439821 367.292217,338.785387 372.338584,354.403247 L377.677949,370.875601 L378.308965,372.952345 C378.669269,374.178982 378.960935,375.423708 379.182679,376.681044 C381.616863,390.933262 372.972477,404.775381 358.844553,409.248162 L349.136617,412.080086 L330.885696,417.413541 L257.979095,438.936159 L184.587097,459.609199 C184.15024,459.609199 182.160113,460.222783 180.849542,460.505975 C179.357607,460.762988 177.849372,460.920683 176.335351,460.977962 C173.310761,461.090366 170.285513,460.772347 167.35551,460.033988 C158.465546,457.844549 150.980839,452.029084 146.823225,444.080819 C145.705013,441.857332 144.810944,439.533743 144.153543,437.142607 L141.5324,428.222049 L134.105829,402.829136 L80.7121791,402.593142 C72.7804558,402.611087 64.9820983,400.609586 58.0926876,396.7877 C44.0561501,388.932374 35.493558,374.303104 35.7158945,358.556734 L35.7158945,342.83956 L36.1527517,306.024556 L25.5225615,302.484652 L21.3966886,301.210287 L19.2124029,300.549505 C17.9142155,300.117686 16.6490327,299.597204 15.4263078,298.991947 C10.4311877,296.545238 6.30555494,292.697993 3.58262552,287.947446 C-0.594883165,280.716043 -1.148981,272.025877 2.0778954,264.348085 L3.97094297,260.1002 L17.8532918,229.232235 L24.8430059,213.798253 L28.337863,206.104861 L30.0367518,202.328963 C30.5221486,201.259126 30.9751857,200.189288 31.3958629,199.11945 C33.9845784,192.595413 35.491883,185.713166 35.8615136,178.729602 L35.8615136,175.048102 L35.8615136,170.32823 C36.5957339,145.969708 42.5646273,122.030231 53.3843385,100.049332 C80.3516194,44.5357617 135.317247,6.86962003 198.151947,0.844838666 C260.986646,-5.1799427 322.459447,21.3217297 360.058045,70.6445278 C384.170747,101.617885 396.101336,139.953062 393.696044,178.729602 C392.573781,196.331393 388.32014,213.610514 381.124267,229.79862 C374.612742,244.491181 365.640642,258.03209 354.573061,269.870335 C351.724256,272.713488 348.692505,275.377719 345.496141,277.846919 L343.457474,279.451676 L341.370268,281.056432 L337.292934,284.171548 C332.438966,287.80585 330.060522,288.89142 332.438966,282.330798 C333.595105,279.787048 334.992623,277.353651 336.613379,275.062195 C337.584172,273.127047 338.797665,270.955906 340.108236,268.737566 C341.418807,266.519226 342.680839,264.017693 344.08849,261.846552 C345.252348,259.70525 346.532363,257.625576 347.923125,255.616321 C361.773989,234.946237 370.038045,211.212357 371.950267,186.611789 Z M220.312302,254.247558 C225.029771,256.204526 230.512124,254.689843 233.466556,250.613256 C237.264739,243.9751 240.417317,237.006653 242.883254,229.79862 C244.824842,223.426792 246.378111,216.913369 247.737222,210.399945 L248.17408,208.511996 C248.861952,205.39873 247.99232,202.152657 245.829775,199.761417 C243.667229,197.370176 240.467494,196.116536 237.204112,196.381924 L220.506461,197.609091 L219.341509,197.609091 C222.642207,187.461366 225.31189,177.124846 229.389223,167.260313 C229.77754,166.363537 227.787413,164.145197 226.185604,163.154024 C223.403156,161.431174 219.911387,161.20008 216.914525,162.54044 C208.880947,165.523119 202.423675,171.529747 199.003382,179.201589 C195.314367,187.272571 191.334113,195.201956 187.887795,203.367335 C187.399314,204.512005 187.088501,205.720912 186.965541,206.954438 C186.669479,210.166598 187.701104,213.361169 189.832431,215.832163 C191.963758,218.303158 195.019311,219.847135 198.323827,220.122882 L200.653732,220.122882 C206.138716,220.594869 211.6237,220.830862 217.157223,220.783664 C214.636511,228.382869 212.912671,236.210489 212.012017,244.147031 C211.601275,249.117035 215.236423,253.540606 220.312302,254.247558 Z M284.967158,191.048469 C282.6351,192.35358 280.707044,194.244673 279.385095,196.52352 C278.433036,198.030619 278.652832,199.973561 279.919031,201.243393 C281.812441,202.865623 284.19821,203.843278 286.714586,204.028117 C298.736025,205.060453 310.490232,200.169697 318.022681,191.00127 C327.234297,179.991162 330.513795,165.378298 326.856903,151.637535 C322.553709,135.612472 310.736914,122.495641 294.966332,116.238494 C293.521518,104.786572 287.507439,94.3450446 278.220142,87.1640806 C268.652834,79.7170533 256.411606,76.3161814 244.242365,77.7243362 C226.57306,61.7180012 200.780895,57.5194854 178.713796,67.0574249 C169.998458,70.2076625 162.143503,75.2619531 155.754526,81.830625 C147.116117,90.7435127 141.47755,102.005472 139.590813,114.114551 C125.793395,119.614074 114.832438,130.252892 109.151631,143.659137 C103.470823,157.065381 103.542468,172.124456 109.350591,185.479019 C113.678337,195.197368 120.918253,203.421557 130.125575,209.078381 C136.099877,212.981018 143.232403,214.855921 150.415161,214.411836 C155.851606,213.798253 158.715447,211.296721 158.424209,208.040009 C157.749897,204.690072 155.853744,201.689757 153.084844,199.591437 C150.172463,196.90111 146.580527,194.210783 142.648812,191.00127 C135.707091,185.298844 131.535632,177.032374 131.144908,168.204287 C130.934103,159.88019 134.068313,151.803986 139.882051,145.690496 C144.194176,141.162494 149.810425,138.004271 155.997225,136.628342 L156.628241,136.628342 C162.250156,135.382613 166.089047,130.325221 165.656621,124.734264 C165.206295,119.259999 166.036018,113.75762 168.083605,108.639499 C170.239754,103.449178 173.555744,98.789946 177.791542,94.9990686 C186.649255,87.2245354 198.727543,83.9088202 210.458747,86.0313113 C218.330945,88.9111569 225.106911,94.0668717 229.87462,100.804511 C232.411297,104.432647 236.98877,106.160467 241.378524,105.146794 L243.902588,104.580409 C250.174027,103.068817 256.810789,104.559416 261.76519,108.592301 C266.49085,112.404299 269.008782,118.21698 268.512206,124.167879 C267.893754,131.442613 273.064022,137.982365 280.452968,139.27147 L280.889825,139.27147 C286.964578,140.300534 292.533227,143.214927 296.762301,147.578445 C300.943921,151.995066 303.4893,157.642853 303.994713,163.626011 C304.541188,169.6489 302.966551,175.673587 299.529062,180.711948 C296.072556,185.711963 290.917941,189.370879 284.967158,191.048469 Z" id="Shape"></path>
        </g>
    </g>
</svg>