<?xml version="1.0" encoding="UTF-8"?>
<svg width="405px" height="411px" viewBox="0 0 405 411" version="1.1" xmlns="http://www.w3.org/2000/svg" xmlns:xlink="http://www.w3.org/1999/xlink">
    <!-- Generator: Sketch 46.2 (44496) - http://www.bohemiancoding.com/sketch -->
    <title>noun_growth_1016135 copy</title>
    <desc>Created with Sketch.</desc>
    <defs></defs>
    <g id="Page-1" stroke="none" stroke-width="1" fill="none" fill-rule="evenodd">
        <g id="noun_growth_1016135-copy" fill-rule="nonzero" fill="#000000">
            <path d="M401.894335,258.109051 C400.80031,260.698337 399.401027,263.15525 397.724595,265.430434 C396.92631,266.575737 396.047986,267.666229 395.095845,268.694183 C394.234703,269.620382 393.010975,270.943524 392.467096,271.428676 L376.196044,286.733013 L355.483311,305.874462 C342.279134,319.517521 328.878555,332.925356 315.281575,346.097966 L294.840783,365.76867 L289.492637,370.664294 C287.45309,372.604902 285.322897,374.413195 283.056734,376.133279 C269.574908,386.424453 253.049097,392.223072 235.920538,392.672549 L231.750798,392.672549 L228.17026,392.672549 L221.009184,392.672549 L206.641709,392.275607 L149.307778,390.687837 C133.127373,390.290894 117.12826,389.276486 101.944966,387.468192 C92.1196182,394.789985 81.7921239,401.450578 71.0344994,407.403525 C64.0093934,411.284741 58.2533387,412.87251 58.7065713,407.800468 C59.6396073,403.540031 61.7200145,399.597634 64.7345656,396.377345 L90.5235035,371.811017 L90.5235035,371.811017 C93.0594439,369.409543 96.4575439,368.064696 99.9960659,368.062116 C140.152479,368.062116 180.399538,367.665173 220.555951,368.062116 L235.104719,368.062116 C247.30773,367.57368 259.036062,363.32662 268.598612,355.933318 C271.499301,353.728082 275.487748,349.935076 279.11361,346.803641 L290.21781,337.056498 C297.681041,330.617209 305.234918,324.280831 312.879442,318.047364 L365.635723,264.327816 L372.25292,257.668003 L375.561518,254.316045 C376.226024,253.614114 376.832237,252.861973 377.374448,252.066704 C380.539942,247.536172 380.896665,241.681077 378.303462,236.818307 C375.710258,231.955536 370.585039,228.868754 364.955874,228.779412 C361.573435,228.689298 358.256488,229.697975 355.528635,231.646219 C355.06454,231.951207 354.62513,232.290335 354.21426,232.660628 L353.896997,232.925256 L353.353118,233.410408 L352.310683,234.424816 L335.133165,250.43483 L300.415544,281.881494 C295.333687,286.646648 289.61718,290.726045 283.41932,294.010292 C280.126492,308.646635 267.910453,319.797838 252.690146,322.060894 C250.544231,322.362687 248.376784,322.495433 246.208919,322.457836 L241.676593,322.457836 L232.294677,322.060894 C212.483167,321.811598 192.873225,318.153331 174.371544,311.255237 C169.295338,309.138211 165.896093,306.359613 168.479519,303.05176 C170.640855,300.827074 173.552832,299.433714 176.68303,299.12644 C191.730354,299.523382 206.823002,299.567487 222.006296,299.479277 L244.667928,299.479277 C245.874006,299.587158 247.087711,299.587158 248.293789,299.479277 C249.178074,299.355512 250.044871,299.133541 250.877215,298.817707 C252.58268,298.191185 254.128778,297.21324 255.409542,295.9509 C257.972204,293.423777 259.335597,289.971062 259.171373,286.42428 C259.045564,282.770534 257.411692,279.320356 254.639047,276.853556 C253.175831,275.580367 251.465163,274.605557 249.608164,273.98675 C248.603043,273.667653 247.572064,273.431591 246.526182,273.281074 L240.906097,272.840027 C233.442866,272.222561 225.994743,271.428676 218.561727,270.458372 C185.385097,271.340466 152.208467,272.707713 118.850544,272.972341 L110.73768,272.972341 C108.634306,272.9482 106.531158,273.036542 104.437746,273.236969 C100.267132,273.629618 96.1592395,274.503134 92.2004643,275.839148 C86.1265443,277.79974 80.4844406,280.851631 75.566826,284.836511 L69.765448,289.820344 C61.3353207,297.053518 52.9051934,299.567487 48.3728669,296.127319 C43.8405404,292.687151 47.6476946,283.777997 54.9447403,275.574519 L59.7943297,270.149639 C61.7179416,268.026647 63.7766469,266.023291 65.9582938,264.151397 C75.098649,256.369365 86.2071932,251.10145 98.137812,248.891164 C101.13164,248.333007 104.159566,247.964692 107.202465,247.788546 C110.46574,247.788546 112.777227,247.788546 115.224683,247.788546 C134.89498,247.788546 154.6106,248.053175 174.144928,248.582431 L192.77279,249.332212 C205.327334,248.75885 217.881878,248.538327 230.3911,248.538327 L239.773016,248.538327 C243.126937,248.538327 245.302454,248.538327 250.605276,248.891164 C260.012184,249.965752 268.687695,254.359495 274.989193,261.240486 C277.858494,264.37432 280.143826,267.971349 281.742359,271.869723 C282.860333,270.575985 284.02363,269.282246 285.23225,267.988508 C295.233584,257.16815 305.416211,246.465405 315.780131,235.880272 L331.461981,220.046678 L335.405105,216.121358 C335.903661,215.592101 337.218036,214.401274 338.215147,213.51918 C339.212259,212.637085 340.435987,211.754991 341.614392,210.917001 C346.379746,207.729779 351.786999,205.564893 357.477535,204.565921 C371.99011,201.950678 386.808422,207.284254 396.079166,218.45986 C405.34991,229.635466 407.582225,244.855913 401.894335,258.109051 Z M357.522858,79.0438906 L354.939432,87.0709495 C351.313571,97.7001868 347.68771,108.285319 343.427323,118.517614 C339.345653,128.642493 334.654109,138.524393 329.377111,148.111881 C324.386865,157.165925 318.300435,165.605903 311.247805,173.251571 C305.094934,179.946774 297.032028,184.706657 288.087616,186.924034 C283.869849,187.889805 279.502262,188.069389 275.215809,187.45329 C270.515694,186.901108 265.930208,185.651691 261.618829,183.748494 C257.073917,181.81172 252.758112,179.401288 248.747022,176.559425 C246.736369,175.187599 244.799988,173.715475 242.945644,172.148953 C238.143428,167.930596 231.873934,165.644716 225.40554,165.753769 C218.632747,165.870501 212.20762,168.693644 207.638821,173.560304 C206.526804,174.771481 205.540039,176.086263 204.692808,177.485624 L203.378434,179.69086 C202.562615,181.102211 201.792119,182.557667 201.021624,184.101332 C198.017121,189.811288 195.471412,195.739033 193.407315,201.831429 C192.105936,206.60166 192.311255,211.642736 193.996518,216.297777 C196.625267,221.149296 200.160482,215.85673 204.330222,208.799975 C207.896774,202.84953 211.816314,197.106199 216.068948,191.599134 C218.199141,188.996956 220.601274,185.336264 222.232912,184.895217 C224.024428,184.098073 226.110435,184.247821 227.76235,185.292159 C228.13489,185.522738 228.470809,185.80505 228.759462,186.130149 C228.909112,186.280501 229.045558,186.442786 229.167371,186.615301 L229.665927,187.806128 C231.116272,189.305689 232.627047,190.775846 234.198254,192.2166 C237.430891,195.079502 240.902524,197.675921 244.577282,199.979031 C252.331876,204.905374 261.024736,208.265035 270.139603,209.858488 C281.75932,212.057738 293.78738,210.876532 304.721254,206.462424 C315.092277,201.954631 324.361368,195.355082 331.915214,187.100453 C345.807178,171.630259 356.75056,153.871698 364.230702,134.659942 C371.699936,116.273893 377.759611,97.3747874 382.360008,78.1176915 L382.858564,76.0447697 C384.989281,66.1502604 378.673054,56.3940529 368.581735,53.99241 L367.629946,53.99241 L367.176714,53.99241 L366.224925,53.99241 L364.366671,53.683677 L349.455317,51.1256033 C344.515081,50.1994042 339.393552,49.758357 334.36267,49.1408909 C329.331787,48.5234248 324.300905,47.9059588 319.134053,47.6854352 C313.967201,47.4649116 309.072288,46.4946078 303.996082,46.0976653 L288.586172,44.8627332 C271.537856,44.4062618 254.527852,46.6708946 238.232025,51.5666505 L235.059396,52.581059 L231.886767,53.9483053 L225.586834,56.7269026 C223.547287,57.8295206 221.50774,59.1085575 219.513516,60.2993849 L216.522181,62.1517831 L213.712138,64.4011238 C205.847555,70.3580201 199.619456,78.1156552 195.582832,86.98274 C194.662674,89.1529702 193.934852,91.3957747 193.407315,93.6866573 L192.319557,97.0827207 L191.594385,100.478784 C190.539731,105.023589 190.007691,109.668424 190.00807,114.327666 C190.023779,123.360444 191.680935,132.319344 194.902983,140.790497 C195.310892,141.893115 195.673479,142.77521 196.172034,143.966037 C199.781603,152.684452 209.492585,157.4283 218.833667,155.036322 C220.302396,154.643384 221.71749,154.080719 223.048731,153.360342 L224.408429,152.610562 L226.674592,151.331525 L231.206918,148.861661 C237.648097,145.590594 244.25904,142.646336 251.013185,140.040717 C257.782986,137.606516 264.383767,134.748436 270.774129,131.484402 C275.714365,128.705804 278.479084,125.927207 277.028739,123.0604 C275.487748,117.988358 261.392213,115.915436 243.262907,121.208002 C235.102925,123.654538 227.110083,126.600731 219.332223,130.028946 L216.65815,131.263878 L216.65815,130.91104 C214.913942,124.56131 214.361211,117.957458 215.026513,111.416754 C215.756559,105.217576 217.743861,99.2210726 220.873214,93.7748668 C226.544154,85.0569418 235.095866,78.477281 245.121161,75.1185705 C256.34669,71.1456251 268.131508,68.869879 280.065398,68.3705485 C305.391002,67.2599694 330.763172,69.0362301 355.664604,73.6631148 L358.837233,74.5011045 L358.610617,75.20678 L357.522858,79.0438906 Z M160.366655,78.7792622 C152.832931,75.5948549 145.096972,72.8841954 137.206467,70.6639939 C129.613438,68.3439356 121.686445,67.2270624 113.729015,67.35614 C107.610374,67.7089777 103.80322,69.384957 103.621927,72.5604968 C104.392423,78.3382151 115.088713,84.2041427 131.223796,90.2023845 C138.378747,92.9164323 145.356444,96.0537226 152.117821,99.5966897 C153.809889,100.478784 155.456635,101.37558 157.058057,102.287078 L158.236462,102.992753 L158.553724,102.992753 L159.369543,103.4338 C159.983345,103.743207 160.619565,104.008542 161.27312,104.227685 C163.909734,105.168003 166.751995,105.426351 169.521955,104.977465 C175.168933,104.06182 179.931643,100.377431 182.121822,95.2303225 C183.118934,92.8927724 183.844106,90.8198506 184.569279,88.7469288 C187.547503,79.908822 188.732761,70.5918195 188.05917,61.3137934 C187.25642,51.7988198 184.283605,42.5777357 179.357103,34.3217053 L176.003181,29.4260814 C174.78144,27.8926921 173.480499,26.4206407 172.105381,25.0156095 C169.434408,22.1490484 166.490349,19.5351907 163.312667,17.2090742 C160.139975,15.1042262 156.857178,13.1610058 153.477519,11.3872513 C150.032951,9.93179552 146.633706,8.25581619 143.189138,6.97677933 C129.729505,2.50519389 115.62272,0.152756513 101.401087,0.00823369116 C74.5023098,-0.174409165 47.6726667,2.68211233 21.4508474,8.5204445 L16.9185209,8.9614917 L14.6976809,9.18201529 L13.5645993,9.18201529 L12.839427,9.18201529 L11.3437593,9.53485305 C3.60848089,11.8595247 -1.14714811,19.4150688 0.23955931,27.1767407 L3.59348093,44.8186284 C6.04579557,56.4024094 9.16287413,67.8434471 12.9300735,79.0879953 C16.7855663,90.6769287 21.5588198,101.957452 27.2069021,112.828105 C33.1843423,124.228165 40.7155488,134.791024 49.596595,144.230666 C59.5203855,154.7488 72.4723006,162.111202 86.7616724,165.356826 C101.350543,168.20509 116.493999,166.411373 129.954744,160.240679 C136.272074,157.498656 142.273123,154.113104 147.857434,150.140698 C149.896981,148.685242 151.755235,147.141577 153.658812,145.730226 L154.837217,147.979567 C157.060479,152.509301 158.880088,157.216379 160.276008,162.048972 C161.68136,165.803977 163.926005,169.208466 166.847882,172.016639 C170.745683,175.103969 173.102493,169.987822 173.193139,161.916658 C173.223215,154.935106 172.231249,147.984973 170.247127,141.275649 C169.703248,139.511461 169.159368,137.747272 168.479519,135.983083 C167.741973,133.701479 166.469677,131.617865 164.763012,129.896632 C160.542723,125.885623 154.450923,124.357437 148.763899,125.883102 C147.287989,126.255259 145.870248,126.818976 144.548835,127.559082 C143.87008,127.925474 143.218819,128.338148 142.599935,128.794014 L141.330884,129.676108 C139.850324,130.675815 138.339548,131.646119 136.798557,132.58702 C133.746815,134.445183 130.583652,136.124157 127.325995,137.614958 C121.014497,140.602184 114.250596,142.582756 107.293112,143.480885 C99.4375436,144.597373 91.4183775,143.399188 84.2688929,140.040717 C76.9028543,136.276907 70.4326604,131.047572 65.2784448,124.692275 C54.119398,110.58421 45.4781052,94.7503056 39.7161232,77.8530631 C34.0322085,62.0826854 29.1912461,46.0364889 25.2126784,29.7789192 L35.3650898,27.8383115 C39.8974163,26.823903 44.8376522,26.2946464 49.5512718,25.5007614 C54.2648913,24.7068765 59.0238342,23.9129915 63.7374538,23.4719443 C68.4510733,23.0308971 73.1646929,22.8544783 77.787666,22.7662688 L91.7019083,22.7662688 C105.680893,22.8194723 119.571111,24.9310029 132.900756,29.0291389 L135.257566,29.7789192 L137.38776,30.7933277 L141.69347,32.7339354 C143.007844,33.4837156 144.231573,34.3217053 145.500624,35.0714855 L147.404201,36.2182082 L149.035839,37.5854545 C153.466144,40.929889 156.970841,45.2952916 159.233573,50.2876136 C161.63061,55.4865051 162.969666,61.088144 163.176697,66.7827786 C163.222134,71.0899448 162.719762,75.386035 161.68103,79.5731472 L160.366655,78.7792622 Z" id="Shape"></path>
        </g>
    </g>
</svg>