<?xml version="1.0" encoding="UTF-8"?>
<svg width="170px" height="198px" viewBox="0 0 170 198" version="1.1" xmlns="http://www.w3.org/2000/svg" xmlns:xlink="http://www.w3.org/1999/xlink">
    <!-- Generator: Sketch 46.2 (44496) - http://www.bohemiancoding.com/sketch -->
    <title>noun_brainstorming_1016145 copy</title>
    <desc>Created with Sketch.</desc>
    <defs></defs>
    <g id="Page-1" stroke="none" stroke-width="1" fill="none" fill-rule="evenodd">
        <g id="noun_brainstorming_1016145-copy" fill-rule="nonzero" fill="#000000">
            <path d="M159.615385,80.0011667 C160.407588,69.4504883 158.457944,58.8755902 153.945385,49.247 C153.415354,48.0334893 152.804843,46.8546273 152.117692,45.7178333 C151.453077,44.5683333 150.892308,43.3583333 150.040769,42.2693333 C139.93157,26.3483307 123.196317,15.4783835 104.182308,12.4831667 C93.4487169,10.7775795 82.4462151,11.7065616 72.1769231,15.1855 L68.3553846,16.5165 L64.6792308,18.15 L62.8307692,18.9768333 C62.2284615,19.2793333 61.6676923,19.6423333 61.0861538,19.965 L57.5969231,21.9816667 C53.0466492,24.8519519 48.8635131,28.2367632 45.1353846,32.065 C41.4007679,35.9064531 38.1388621,40.1565508 35.4153846,44.7296667 C32.7571952,49.3501207 30.6660008,54.2572202 29.1846154,59.3505 C27.7309493,64.503365 26.8946464,69.8019245 26.6923077,75.141 C26.6045586,78.3459344 26.116371,81.5286681 25.2384615,84.6193333 C24.7899261,86.1637001 24.241924,87.6791842 23.5976923,89.1568333 C22.9330769,90.6895 22.2476923,91.9398333 21.5207692,93.1901667 L11.78,114.95 L11.1776923,116.301167 L10.9076923,116.966667 C10.9076923,116.966667 10.9076923,117.107833 10.9076923,117.1885 C10.8398458,117.48061 10.8398458,117.783724 10.9076923,118.075833 C11.0511747,118.66205 11.4880223,119.139246 12.0707692,119.346333 L23.4107692,122.895667 C25.2264149,123.460699 26.4758958,125.07834 26.5261538,126.929 L26.5261538,126.929 L26.6923077,145.280667 L26.6923077,149.878667 L26.6923077,153.327167 C26.6923077,153.750667 26.6923077,153.8515 26.6923077,154.133833 C26.8387217,156.108582 27.7429362,157.958099 29.2261538,159.316667 C30.6719699,160.604789 32.5601199,161.323757 34.5223077,161.333333 L43.7853846,161.333333 L62.7061538,161.212333 C64.9826886,161.204475 66.9899317,162.660063 67.6284615,164.781833 L67.6284615,164.781833 L72.1353846,179.826167 L73.2569231,183.597333 L73.5269231,184.484667 C73.5564067,184.56732 73.5910873,184.648139 73.6307692,184.726667 C73.7013656,184.889351 73.7996621,185.039335 73.9215385,185.170333 C74.4079674,185.718541 75.1758018,185.946133 75.8946154,185.755167 C91.3261538,181.459667 107.048462,177.2045 122.812308,173.070333 L146.364615,166.899333 L149.313846,166.133 L150.788462,165.749833 L151.328462,165.568333 C152.032978,165.232545 152.560308,164.625423 152.782308,163.8945 C152.868848,163.522745 152.868848,163.136922 152.782308,162.765167 L152.782308,162.402167 L152.574615,161.656 L152.159231,160.1435 L150.518462,154.0935 C148.52209,146.969989 147.002759,139.728457 145.97,132.414333 C145.326154,127.171 145.513077,124.226667 146.634615,123.984667 C147.756154,123.742667 149.833077,127.029833 152.221538,132.051333 C155.098721,138.463879 157.622291,145.020601 159.781538,151.693667 L162.066154,158.731833 L162.336154,159.619167 C162.490321,160.143274 162.61512,160.67511 162.71,161.212333 C163.751542,167.301899 160.052769,173.216242 154.007692,175.127333 L149.853846,176.337333 L142.044615,178.616167 L110.849231,187.812167 L79.4461538,196.645167 C79.2592308,196.645167 78.4076923,196.907333 77.8469231,197.028333 C77.2085521,197.138148 76.5632062,197.205526 75.9153846,197.23 C74.6212185,197.278027 73.3267708,197.142147 72.0730769,196.826667 C68.2692258,195.891182 65.0666582,193.4064 63.2876923,190.010333 C62.8092303,189.060301 62.4266745,188.067498 62.1453846,187.045833 L61.0238462,183.234333 L57.8461538,172.384667 L35,172.283833 C31.6061625,172.2915 28.2693897,171.436316 25.3215385,169.803333 C19.315564,166.446977 15.6517894,160.196307 15.7469231,153.468333 L15.7469231,146.752833 L15.9338462,131.022833 L11.3853846,129.510333 L9.62,128.965833 L8.68538462,128.6835 C8.12991428,128.498996 7.58856598,128.276609 7.06538462,128.018 C4.92806525,126.972591 3.16278338,125.328773 1.99769231,123.299 C0.210213702,120.209228 -0.0268745002,116.496168 1.35384615,113.215667 L2.16384615,111.400667 L8.10384615,98.2116667 L11.0946154,91.6171667 L12.59,88.33 L13.3169231,86.7166667 C13.5246154,86.2595556 13.7184615,85.8024444 13.8984615,85.3453333 C15.006125,82.5577987 15.6510727,79.6172109 15.8092308,76.6333333 L15.8092308,75.0603333 L15.8092308,73.0436667 C16.12339,62.6359656 18.677369,52.4073109 23.3069231,43.0155 C34.8457232,19.2961362 58.3644974,3.2024692 85.2503018,0.628252119 C112.136106,-1.94596496 138.439179,9.37744308 154.526923,30.4516667 C164.844302,43.6856981 169.94918,60.0652249 168.92,76.6333333 C168.439804,84.1540762 166.61975,91.5369511 163.540769,98.4536667 C160.754608,104.731379 156.915613,110.517022 152.18,115.575167 C150.961049,116.789965 149.663819,117.928315 148.296154,118.983333 L147.423846,119.669 L146.530769,120.354667 L144.786154,121.685667 C142.709231,123.2385 141.691538,123.702333 142.709231,120.899167 C143.203921,119.812295 143.801893,118.772574 144.495385,117.7935 C144.910769,116.966667 145.43,116.039 145.990769,115.091167 C146.551538,114.143333 147.091538,113.0745 147.693846,112.146833 C148.19184,111.231916 148.739534,110.343331 149.334615,109.484833 C155.261144,100.653097 158.79718,90.5122872 159.615385,80.0011667 Z M94.7323077,108.9 C96.7508251,109.736156 99.0966225,109.088976 100.360769,107.347167 C101.985942,104.510872 103.334871,101.533454 104.39,98.4536667 C105.220769,95.7311667 105.885385,92.9481667 106.466923,90.1651667 L106.653846,89.3585 C106.948174,88.0282905 106.576075,86.6413359 105.650761,85.6196272 C104.725448,84.5979186 103.356341,84.0622738 101.96,84.1756667 L94.8153846,84.7 L94.3169231,84.7 C95.7292308,80.3641667 96.8715385,75.9476667 98.6161538,71.7328333 C98.7823077,71.3496667 97.9307692,70.4018333 97.2453846,69.9783333 C96.0548267,69.242209 94.5607633,69.143469 93.2784615,69.7161667 C89.8410422,70.9905801 87.078095,73.5570409 85.6146154,76.835 C84.0361538,80.2835 82.3330769,83.6715 80.8584615,87.1603333 C80.6494495,87.6494181 80.5164582,88.1659496 80.4638462,88.693 C80.3371666,90.0654643 80.7785798,91.4304131 81.6905352,92.4861985 C82.6024905,93.5419839 83.9099052,94.2016811 85.3238462,94.3195 L86.3207692,94.3195 C88.6676923,94.5211667 91.0146154,94.622 93.3823077,94.6018333 C92.3037417,97.8487566 91.5661422,101.193275 91.1807692,104.584333 C91.0050205,106.707874 92.560433,108.59794 94.7323077,108.9 Z M122.396923,81.8968333 C121.399079,82.4544701 120.574099,83.2624804 120.008462,84.2361667 C119.601093,84.880107 119.69514,85.7102706 120.236923,86.2528333 C121.047078,86.9459659 122.067904,87.36369 123.144615,87.4426667 C128.288366,87.8837543 133.317774,85.7940737 136.540769,81.8766667 C140.482249,77.172362 141.885486,70.9287023 140.320769,65.0576667 C138.479512,58.2106146 133.423324,52.6061672 126.675385,49.9326667 C126.057175,45.0395876 123.483862,40.5782209 119.51,37.51 C115.416326,34.3280978 110.178531,32.8750024 104.971538,33.4766667 C97.41117,26.6376167 86.3751801,24.8437107 76.9330769,28.919 C73.2039453,30.2650066 69.8429556,32.4245607 67.1092308,35.2311667 C63.4130152,39.0393891 61.0003768,43.8513027 60.1930769,49.0251667 C54.2894173,51.3749559 49.599427,55.9206192 47.1687147,61.6487247 C44.7380024,67.3768302 44.7686577,73.811143 47.2538462,79.5171667 C49.1056084,83.6695397 52.2034344,87.1835009 56.1430769,89.6005 C58.6993703,91.2679855 61.7512462,92.0690782 64.8246154,91.8793333 C67.1507692,91.6171667 68.3761538,90.5483333 68.2515385,89.1568333 C67.9630127,87.7255009 67.1516843,86.443552 65.9669231,85.547 C64.7207692,84.3975 63.1838462,83.248 61.5015385,81.8766667 C58.5313044,79.440183 56.7464143,75.9081564 56.5792308,72.1361667 C56.4890311,68.5795177 57.8301015,65.1287863 60.3176923,62.5166667 C62.1627707,60.5819807 64.5658597,59.232562 67.2130769,58.6446667 L67.4830769,58.6446667 C69.8885904,58.1124024 71.5311807,55.9515229 71.3461538,53.5626667 C71.1534677,51.2236695 71.5084905,48.8726601 72.3846154,46.6858333 C73.3071915,44.4681572 74.7260421,42.4774004 76.5384615,40.8576667 C80.3285131,37.5358306 85.4965887,36.1191201 90.5161538,37.026 C93.8845214,38.2564758 96.7838318,40.4593656 98.8238462,43.3381667 C99.9092435,44.8883655 101.867859,45.6266137 103.746154,45.1935 L104.826154,44.9515 C107.509587,44.30564 110.349334,44.9425301 112.469231,46.6656667 C114.491253,48.2944248 115.568629,50.7780173 115.356154,53.3206667 C115.09153,56.4289529 117.303792,59.2232023 120.465385,59.774 L120.652308,59.774 C123.251582,60.2136896 125.634304,61.4589265 127.443846,63.3233333 C129.233084,65.2104291 130.322205,67.6235676 130.538462,70.18 C130.772288,72.7534086 130.09853,75.3275853 128.627692,77.4803333 C127.148717,79.6166969 124.943153,81.1800472 122.396923,81.8968333 Z" id="Shape"></path>
        </g>
    </g>
</svg>