<?xml version="1.0" encoding="UTF-8"?>
<svg width="90px" height="90px" viewBox="0 0 90 90" version="1.1" xmlns="http://www.w3.org/2000/svg" xmlns:xlink="http://www.w3.org/1999/xlink">
    <!-- Generator: Sketch 46.2 (44496) - http://www.bohemiancoding.com/sketch -->
    <title>Group 192</title>
    <desc>Created with Sketch.</desc>
    <defs></defs>
    <g id="Page-1" stroke="none" stroke-width="1" fill="none" fill-rule="evenodd">
        <g id="Group-192">
            <circle id="Oval-12-Copy-9" fill="#3DC0BC" cx="45" cy="45" r="45"></circle>
            <g id="noun_training_746427-copy-4" transform="translate(20.000000, 20.000000)" stroke-linecap="round" stroke-width="2" stroke="#FFFFFF" stroke-linejoin="round">
                <g id="Group">
                    <polyline id="Shape" points="11.8253968 20.0793651 11.8253968 0.396825397 49.6031746 0.396825397 49.6031746 30.3174603 21.3492063 30.3174603"></polyline>
                    <polyline id="Shape" points="22.6190476 27.1428571 46.3492063 27.1428571 46.3492063 3.65079365 15.0793651 3.65079365 15.0793651 20.0793651"></polyline>
                    <polyline id="Shape" points="22.6190476 24.2063492 22.6190476 11.5873016 19.047619 11.5873016 19.047619 20.0793651"></polyline>
                    <polygon id="Shape" points="25.6349206 22.6984127 25.6349206 24.047619 29.2063492 24.047619 29.2063492 22.6984127 29.2063492 6.66666667 25.6349206 6.66666667"></polygon>
                    <polygon id="Shape" points="32.2222222 22.6984127 32.2222222 24.047619 35.7936508 24.047619 35.7936508 22.6984127 35.7936508 14.047619 32.2222222 14.047619"></polygon>
                    <polygon id="Shape" points="38.8095238 9.76190476 38.8095238 22.6984127 38.8095238 24.047619 42.3809524 24.047619 42.3809524 22.6984127 42.3809524 9.76190476"></polygon>
                    <polygon id="Shape" points="14.047619 42.6190476 14.047619 42.6190476 13.968254 42.6984127 13.968254 42.6984127"></polygon>
                    <path d="M15.1587302,41.031746 L15.1587302,41.031746 L15.1587302,41.031746 L15.1587302,41.031746 L15.1587302,41.031746 L15.1587302,41.031746 L15.1587302,41.031746 L15.1587302,41.031746 L15.1587302,41.031746 L18.8888889,38.5714286 L18.8888889,38.5714286 L18.8888889,36.7460317 C18.5714286,36.9047619 18.3333333,37.1428571 18.0952381,37.3809524 C16.5079365,38.8095238 14.9206349,38.5714286 14.9206349,38.5714286 C13.968254,38.5714286 12.5396825,37.6190476 11.984127,37.1428571 C11.8253968,37.0634921 11.6666667,36.9047619 11.5079365,36.8253968 L11.5079365,38.5714286 L11.5079365,38.5714286 L15.1587302,41.031746 Z" id="Shape"></path>
                    <polygon id="Shape" points="15.2380952 41.031746 15.2380952 41.031746 15.2380952 41.031746 15.2380952 41.031746 14.047619 42.6190476 14.047619 42.6190476"></polygon>
                    <path d="M11.2698413,25 L13.5714286,25 C13.8095238,25 13.968254,25 14.2063492,24.9206349 C14.6031746,24.7619048 15.3174603,24.5238095 15.7936508,24.3650794 C16.2698413,24.2063492 16.7460317,24.2063492 17.1428571,24.3650794 L19.5238095,25.2380952 C21.1111111,25.8730159 21.3492063,27.3809524 21.3492063,27.3809524 L21.3492063,31.6666667 C21.3492063,31.6666667 21.5873016,30.2380952 22.3015873,29.047619 C22.4603175,28.7301587 22.5396825,28.4126984 22.5396825,28.0952381 L22.5396825,24.3650794 C22.5396825,24.3650794 22.3015873,22.5396825 20.5555556,22.1428571 C20.5555556,22.1428571 21.2698413,20.5555556 19.3650794,20.2380952 L12.3809524,20.2380952 L12.3809524,20.2380952 C9.84126984,20.2380952 7.77777778,22.3015873 7.77777778,24.8412698 L7.77777778,27.5396825 C7.77777778,28.0952381 7.93650794,28.7301587 8.33333333,29.2063492 C8.65079365,29.6031746 8.88888889,30.1587302 8.96825397,30.952381 L8.96825397,27.3015873 C9.52380952,25.2380952 11.2698413,25 11.2698413,25 Z" id="Shape"></path>
                    <path d="M14.9206349,38.4920635 C14.9206349,38.4920635 16.5079365,38.7301587 18.0952381,37.3015873 C18.3333333,37.0634921 18.6507937,36.9047619 18.8888889,36.6666667 C18.8888889,36.6666667 18.968254,36.6666667 18.968254,36.5873016 C19.6825397,36.1111111 21.031746,34.7619048 21.3492063,31.5079365 L21.3492063,27.2222222 C21.3492063,27.2222222 21.1904762,25.7142857 19.5238095,25.0793651 L17.1428571,24.2063492 C16.6666667,24.047619 16.1904762,24.047619 15.7936508,24.2063492 C15.3174603,24.3650794 14.6031746,24.6031746 14.2063492,24.7619048 C13.968254,24.8412698 13.8095238,24.8412698 13.5714286,24.8412698 L11.2698413,24.8412698 C11.2698413,24.8412698 9.44444444,25.0793651 9.04761905,27.0634921 L9.04761905,30.7142857 L9.04761905,31.5873016 C9.04761905,31.5873016 9.12698413,35.0793651 11.4285714,36.6666667 C11.4285714,36.6666667 11.4285714,36.6666667 11.5079365,36.6666667 C11.6666667,36.7460317 11.8253968,36.9047619 11.984127,36.984127 C12.5396825,37.5396825 13.968254,38.5714286 14.9206349,38.4920635 Z" id="Shape"></path>
                    <polygon id="Shape" points="14.047619 42.6190476 13.968254 42.6984127 15.2380952 41.031746 15.2380952 41.031746 15.2380952 41.031746"></polygon>
                    <polygon id="Shape" points="15.2380952 41.031746 15.2380952 41.031746 15.2380952 41.031746 15.2380952 41.031746 15.2380952 41.031746 15.2380952 41.031746 15.2380952 41.031746 15.2380952 41.031746 15.2380952 41.031746 16.4285714 42.6984127 17.9365079 44.6825397 20.8730159 39.2857143 18.8888889 38.5714286 18.8888889 38.5714286"></polygon>
                    <polygon id="Shape" points="13.968254 42.6984127 13.968254 42.6984127 14.047619 42.6190476 15.2380952 41.031746 15.2380952 41.031746 15.2380952 41.031746 15.1587302 41.031746 11.5079365 38.5714286 11.5079365 38.5714286 9.52380952 39.2857143 12.5396825 44.6825397"></polygon>
                    <path d="M20.8730159,39.2857143 L27.3015873,41.5873016 C28.3333333,41.984127 29.1269841,42.8571429 29.2857143,43.968254 L29.9206349,48.015873 C30.0793651,48.8888889 29.4444444,49.6031746 28.5714286,49.6031746 L1.74603175,49.6031746 C0.873015873,49.6031746 0.238095238,48.8095238 0.396825397,48.015873 L1.03174603,43.968254 C1.19047619,42.8571429 1.98412698,41.984127 3.01587302,41.5873016 L9.44444444,39.2857143" id="Shape"></path>
                </g>
            </g>
        </g>
    </g>
</svg>