<?xml version="1.0" encoding="UTF-8"?>
<svg width="90px" height="90px" viewBox="0 0 90 90" version="1.1" xmlns="http://www.w3.org/2000/svg" xmlns:xlink="http://www.w3.org/1999/xlink">
    <!-- Generator: Sketch 46.2 (44496) - http://www.bohemiancoding.com/sketch -->
    <title>Group 219</title>
    <desc>Created with Sketch.</desc>
    <defs></defs>
    <g id="Page-1" stroke="none" stroke-width="1" fill="none" fill-rule="evenodd">
        <g id="Group-219">
            <circle id="Oval-12-Copy-11" fill="#3DC0BC" cx="45" cy="45" r="45"></circle>
            <g id="noun_business-idea_1016138-copy" transform="translate(24.000000, 20.000000)" fill-rule="nonzero" fill="#FFFFFF">
                <path d="M12.6762305,8.21751867 C13.1646924,7.54750938 13.3837483,6.71546702 13.2893033,5.8888772 C13.0408792,4.10067265 11.6336185,2.704394 9.8591357,2.48547812 C8.83555455,2.60595536 7.91270281,3.16525914 7.32577709,4.02084612 C6.76306755,4.84687512 6.55475823,5.86756438 6.74817133,6.85104115 C6.96841331,8.10483848 7.76335596,9.17926427 8.89139271,9.74776878 C9.04732254,9.82335096 9.19650029,9.9123918 9.33726383,10.0138992 C9.47421518,10.1022562 9.59864383,10.2090027 9.70713418,10.3312086 C9.94042275,10.5581807 10.0874564,10.8606518 10.122605,11.1858968 C10.158874,11.5364384 9.94771003,11.8649154 9.61593327,11.9740524 C9.40552972,12.0568564 9.1829057,12.1035607 8.95726004,12.1122355 C8.68706674,12.1146938 8.41778349,12.0802631 8.15671871,12.0098776 C6.11232647,11.4561923 4.52816185,9.82269009 4.02227746,7.74667248 C3.51385897,5.66120005 4.12762009,3.45927177 5.63856026,1.94809932 C6.10500485,1.49054631 6.64026656,1.11052401 7.22444275,0.822162778 C8.36076154,0.138320079 9.69501478,-0.130864558 11.0042138,0.0595966689 C12.9413532,0.343568043 14.613817,1.57750101 15.4709027,3.35509085 C16.3279883,5.13268068 16.2586016,7.22351865 15.2855898,8.93914164 C14.7992843,9.81083447 14.0322249,10.4881134 13.1119682,10.8583516 C12.3207037,11.1822781 11.4340428,11.1730639 10.6495436,10.8327622 C10.2239393,10.6178107 10.0212707,10.3209728 10.1834056,9.91154137 C10.2695398,9.71194353 10.4823419,9.44069518 10.6140766,9.39975204 C11.4351399,9.31509673 12.1833102,8.88617048 12.6762305,8.21751867 Z M0.23237298,17.4911414 C0.0995527417,17.9278997 0.0245890096,18.3805042 0.00943742188,18.8371474 C-0.00314580729,19.0672772 -0.00314580729,19.2979331 0.00943742188,19.528063 L0.0702380285,20.0756776 L0.551576165,24.3593543 L1.05824789,28.6481489 L1.08864819,28.9142794 L1.13424865,29.2571782 C1.17553344,29.4996799 1.23308888,29.7390667 1.30651703,29.9736833 C1.45952007,30.4445956 1.68154486,30.88968 1.96519027,31.2940998 C2.36547333,31.8555744 2.87600567,32.3277085 3.46493857,32.6810489 C3.84663126,35.8200235 4.24352411,38.9589981 4.65561711,42.0979727 L5.35989081,47.1646871 C5.38044212,47.3264295 5.40919126,47.487001 5.446025,47.6457691 C5.49279264,47.8413672 5.55899583,48.0316948 5.64362697,48.2138552 C5.81270859,48.5788426 6.05014617,48.9073134 6.34283395,49.1811371 C6.63627599,49.4563333 6.98064976,49.6702623 7.35617739,49.8106379 C7.54355661,49.879882 7.73693281,49.9312845 7.93378316,49.9641747 C8.03005078,49.9641747 8.13138513,49.9948821 8.22765276,50 L8.49112205,50 L11.0244807,49.953939 L11.6020864,49.953939 C11.7135542,49.953939 11.7490212,49.953939 11.9618233,49.953939 C12.1410197,49.9473062 12.3191719,49.9233126 12.4938287,49.8822885 C13.5785059,49.6443904 14.4486076,48.8282781 14.763718,47.7532448 C14.8117315,47.5855574 14.8472971,47.4144865 14.870119,47.2414555 L14.9157195,46.9497356 L15.0879879,45.7930917 C15.7365277,41.4872374 16.358045,37.1609115 16.9525398,32.8141141 C18.2745197,32.0110231 19.1622773,30.6433301 19.3642972,29.0985235 L19.8355019,25.1730993 L20.2712396,21.2783825 L20.3776407,20.3059828 L20.4283078,19.7941934 C20.4283078,19.7071892 20.4283078,19.6508924 20.4283078,19.5331809 L20.4283078,19.2005178 C20.4547153,18.3345269 20.28125,17.4742096 19.9216361,16.6876322 C19.5592742,15.9246134 19.0141892,15.2649601 18.3357536,14.7684222 C17.7871183,14.368211 17.154094,14.1019328 16.4864018,13.9905024 C16.060933,13.9114215 15.6223582,13.9467207 15.2146558,14.0928602 C14.9410531,14.2105718 14.834652,14.3641086 14.8853192,14.5432349 C14.9815868,14.8861337 15.5186588,15.1215568 16.1317316,15.5668135 C16.9090139,16.1004934 17.5064897,16.8611309 17.844282,17.7470361 C18.0084593,18.203574 18.0673764,18.6919247 18.0165504,19.1749283 C18.0165504,19.2721683 17.9861501,19.4461767 17.9608165,19.6048314 L17.8848158,20.0859134 L17.7328143,21.0480773 L17.1349416,24.8967331 L16.572536,28.7146815 C16.5073536,29.1308452 16.3323239,29.5215679 16.0658643,29.845736 C15.9344958,30.0065523 15.7829018,30.1493544 15.6149265,30.2705211 C15.5300264,30.3297706 15.4420802,30.384438 15.3514572,30.4342937 L15.2146558,30.5008263 L15.1437218,30.5315337 L15.1082547,30.5315337 L15.1082547,30.5315337 L15.1082547,30.5315337 L14.2773131,31.5551124 C13.6963295,35.7176656 13.1609464,39.875101 12.6711638,44.0274185 L12.3063601,47.0111503 C12.2779631,47.1778407 12.1698665,47.319594 12.0175572,47.3898744 C11.9805087,47.4082664 11.9413738,47.4220161 11.9010227,47.4308175 L11.8351554,47.4308175 L11.6983541,47.4308175 L10.9231463,47.4308175 L9.37779757,47.4308175 L8.60258983,47.4308175 L8.36445412,47.4308175 C8.31781961,47.4260341 8.27190382,47.4157275 8.22765276,47.4001102 C8.0435168,47.3327709 7.90230885,47.1806278 7.84764896,46.9906787 C7.84548369,46.9634271 7.84548369,46.936044 7.84764896,46.9087924 L7.82231538,46.7296661 L7.76658149,46.3407063 L7.65004699,45.5679044 C7.28017664,40.9720361 6.78870506,36.2635742 6.22123274,31.5807018 C6.15402289,31.0434818 5.79964527,30.587185 5.2990902,30.3933506 L5.24335631,30.3933506 C4.6331891,30.1488898 4.16929196,29.633071 3.98681044,28.9961657 C3.96483424,28.9171653 3.94791026,28.8368192 3.93614327,28.7556247 L3.89054281,28.4127258 L3.77907503,27.5631555 L3.56627291,25.8844865 L2.7099977,19.2005178 C2.64095785,18.4797597 2.8639695,17.7614993 3.3281372,17.2096573 C3.79067491,16.6490747 4.45732124,16.3003932 5.17748899,16.2423754 L5.31429035,16.2423754 L6.3276338,16.2423754 L6.73803789,16.7541648 L7.78178164,18.0796992 L8.28845336,18.7399074 L8.42018801,18.90368 L8.48605533,18.9855663 L8.57218953,19.0879242 C8.61778998,19.1391031 8.66845715,19.190282 8.71912433,19.2363431 C9.13281769,19.6138489 9.68394621,19.799414 10.2391395,19.7481324 L10.0111372,19.7481324 C10.3578268,19.7855543 10.7080697,19.7271806 11.0244807,19.5792419 C11.2622948,19.4716403 11.4773343,19.3187234 11.6578203,19.1288673 L11.7439545,19.0367452 L11.7946217,18.9753305 L12.1188916,18.5710169 L12.7674314,17.7623898 L14.0695777,16.1553713 C14.1101115,16.1041923 14.1506452,16.0478955 14.1962456,15.9864808 C14.316758,15.9506057 14.4351697,15.9078887 14.5509158,15.8585334 C14.6167832,15.9148303 14.6117165,15.9045945 14.5509158,15.8585334 L14.6674503,15.8022366 C14.9917202,15.6128746 14.9461198,15.4337483 14.6674503,15.2904473 C14.4765317,15.1944079 14.2761372,15.1189298 14.0695777,15.06526 L13.6693071,14.9629021 L13.4463715,14.9117232 C13.4126385,14.914217 13.3787702,14.914217 13.3450371,14.9117232 C13.3450371,14.9117232 13.2994367,14.9424305 13.2639697,14.96802 L13.1575686,15.0601421 L12.9447665,15.2495041 L12.5191622,15.6333461 L11.6578203,16.4317375 L10.7407445,17.225011 L10.2999401,17.6600319 C10.2695398,17.6856214 10.2087392,17.7572719 10.2087392,17.7470361 L10.2087392,17.7470361 C10.2032925,17.735728 10.2032925,17.7225189 10.2087392,17.7112108 C10.2033553,17.697605 10.1903115,17.6886823 10.1758055,17.6886823 C10.1612996,17.6886823 10.1482558,17.697605 10.1428719,17.7112108 L10.1428719,17.7112108 C10.1428719,17.7112108 10.1428719,17.7112108 10.1428719,17.7112108 L10.1682055,17.7112108 L10.1276717,17.6497961 L9.80846853,17.1380068 L9.15486201,16.1451355 L8.4759219,15.1215568 L8.12631841,14.6097675 L7.94898331,14.3589907 L7.83244881,14.2566328 L7.83244881,14.2259255 L7.83244881,14.2259255 L7.76658149,14.1491571 C7.57627457,13.9469976 7.31761808,13.8245848 7.04204093,13.8062582 L6.915373,13.8062582 L6.76337148,13.8062582 L6.45430173,13.8062582 L5.80576192,13.7448435 C5.32741258,13.7075986 4.84643466,13.7247659 4.37188095,13.7960224 C3.33554424,13.9724443 2.37832049,14.4675074 1.63078693,15.2136789 C0.978556717,15.8387661 0.496914125,16.6231712 0.23237298,17.4911414 Z M42.9954663,16.0274239 C42.8990908,12.5117309 41.5100683,9.15827191 39.0991608,6.62073595 C38.5550105,5.95835164 37.9511703,5.34841234 37.2954095,4.79876591 C35.1927575,3.02009811 32.62877,1.88857774 29.9081357,1.53866785 C28.5601215,1.37234484 27.1956562,1.39818697 25.854762,1.61543625 C24.5203026,1.83835333 23.2270718,2.26458106 22.019257,2.87955591 C20.6461767,3.5755894 19.8253685,4.61452175 20.3117733,5.13142898 C20.7981782,5.64833621 21.7760546,5.47432784 23.0022002,5.02907111 C25.2262438,4.25194929 27.608217,4.05306001 29.9284026,4.45074917 C33.7186733,5.03065417 37.0522792,7.29553757 39.0130266,10.6229285 C40.3086436,13.7875615 40.4716869,17.3093967 39.4740979,20.582349 C38.9614638,22.1880155 38.1363198,23.6740082 37.0471403,24.9530299 C36.5009374,25.5884483 35.8875988,26.1616456 35.2180554,26.6624063 L34.9697863,26.8517684 C34.9697863,26.8517684 34.8076513,26.964362 34.706317,27.061602 C34.5964233,27.1586485 34.4947363,27.2647864 34.4023139,27.3789114 C34.2127262,27.6169406 34.0668673,27.8873383 33.971643,28.1773027 C33.9232965,28.3289419 33.889365,28.4848895 33.8703086,28.643031 C33.8661486,28.7248634 33.8661486,28.8068575 33.8703086,28.8886899 L33.8703086,29.0012836 L33.844975,30.41894 C33.8779535,30.8014133 34.036695,31.1617388 34.2959129,31.4425187 C34.6708499,31.7700639 34.9951198,31.3452787 35.2383223,30.7055421 C35.4382436,30.1629747 35.6074082,29.6093456 35.744994,29.0473446 C35.7559538,28.9426092 35.8025065,28.8449464 35.8767286,28.7709784 C35.9324513,28.7141348 35.9999298,28.6704424 36.0743306,28.643031 L36.1249978,28.643031 L36.1503314,28.643031 L36.2060653,28.5867342 L36.4188674,28.4792585 L36.8444716,28.2540711 C38.0252626,27.5724604 39.0589364,26.6588603 39.884502,25.5671771 C41.9807851,22.8454351 43.079976,19.4747729 42.9954663,16.0274239 L42.9954663,16.0274239 Z M20.3472404,35.4191218 C20.0609779,35.4271522 19.7896122,35.5497785 19.5928982,35.7599983 C19.3961841,35.9702182 19.2902527,36.2507931 19.2984299,36.5399405 L19.3592305,38.5870978 L19.3896308,39.6106765 L19.3896308,39.8716891 L19.3896308,40.1992342 C19.4057061,40.4247644 19.4378789,40.648828 19.4858984,40.8696783 C19.5995863,41.873217 20.0294164,42.8133241 20.712044,43.5514544 C21.1220878,43.9934747 21.6100603,44.3544728 22.1509917,44.6159762 L22.1509917,44.9179319 L22.1509917,45.1277655 C22.1509917,45.2454771 22.1509917,45.3836602 22.1509917,45.5116075 C22.2634234,46.5893424 22.905149,47.5376102 23.8584754,48.034729 C24.3275874,48.2821145 24.8492988,48.4103465 25.3784906,48.4083352 L26.2195656,48.4083352 L27.9067824,48.4083352 L30.5921426,48.4083352 L30.7897445,48.4083352 C30.922441,48.3947725 31.0543525,48.3742735 31.1849485,48.3469204 C32.5343599,48.0486853 33.5501305,46.922104 33.7183071,45.537197 C33.7183071,45.4041318 33.7183071,45.2710665 33.7183071,45.1380013 L33.7183071,44.7848667 C35.1336971,44.1697274 36.2227173,42.9747822 36.712737,41.4991791 C36.8409656,41.0100419 36.7620413,40.4890709 36.4948681,40.0610511 C36.3124663,39.8460996 36.1401979,39.8921606 35.9881964,40.0610511 C35.7992998,40.2920423 35.6298208,40.538557 35.4815247,40.7980278 C34.757744,42.0012529 33.4800619,42.7524903 32.0868242,42.7940062 C31.7120944,42.7751712 31.3867892,43.0523499 31.3420167,43.4286249 L31.3116164,43.664048 C31.2609492,44.099069 31.2153488,44.5443257 31.1849485,44.9895824 L31.1849485,45.1584729 C31.1832913,45.1823271 31.1832913,45.2062692 31.1849485,45.2301234 C31.1721597,45.2736105 31.156935,45.3163284 31.139348,45.3580707 C31.1030628,45.4377756 31.0533454,45.5105074 30.9924132,45.5730223 C30.8764626,45.6925299 30.7172567,45.7590736 30.5516088,45.7572664 L29.3051964,45.7060875 L26.5793025,45.5883759 L25.9003624,45.5883759 L25.5608924,45.5883759 C25.4748459,45.5939281 25.3885363,45.5939281 25.3024898,45.5883759 C25.2088021,45.5678092 25.1268958,45.5108149 25.0744875,45.4297212 C25.051243,45.392303 25.0357318,45.3505221 25.0288871,45.3068918 C25.0270408,45.2864627 25.0270408,45.2659062 25.0288871,45.2454771 C25.0288871,45.2454771 25.0288871,45.2454771 25.0288871,45.0817045 L25.0592874,43.6589301 C25.0751232,42.9576623 24.5826053,42.3493745 23.8990091,42.22592 L23.8280751,42.22592 C23.0466961,42.0780224 22.388404,41.5491355 22.0699242,40.8133814 C21.9907965,40.6340421 21.936249,40.4446412 21.9077893,40.2504132 C21.8914915,40.1522107 21.8813379,40.0530682 21.877389,39.9535753 L21.877389,39.4878471 L21.8317885,38.0394832 C25.9408962,38.146959 30.0449371,38.1827842 34.1388446,37.9934222 C34.275646,39.1398303 34.6455164,40.0098722 35.243389,39.9177501 C35.8412616,39.825628 36.3580668,38.8378746 36.4340675,37.4099824 L36.479668,36.5501763 C36.5084723,35.9883985 36.0830718,35.5084176 35.5271251,35.4754187 L35.4156574,35.4754187 C33.1305679,35.3423534 30.8556119,35.2399956 28.6059894,35.2399956 C25.8750288,35.2399956 23.149135,35.3372355 20.4232411,35.4140039 L20.3472404,35.4191218 Z M32.9076323,19.6355387 C32.9734997,19.5792419 32.8721653,19.2926399 32.770831,19.1237494 C32.5905305,18.8403929 32.302939,18.6442616 31.9753564,18.5812527 C31.232259,18.3823356 30.4400102,18.530739 29.8169348,18.9855663 C29.1937286,19.4615304 28.5502555,19.9170229 27.9422495,20.4134585 L27.8814489,20.3315722 C27.1323939,19.3421476 26.2123278,18.4977485 25.1656884,17.8391582 C24.8566187,17.654914 24.4006141,17.7009751 23.919276,18.2230002 C23.4379379,18.7450253 23.3214034,19.2107536 23.524072,19.5229451 C23.8560868,20.0910443 24.252252,20.6183026 24.7046172,21.0941383 C25.3683571,21.7287571 26.0979644,22.2917254 26.8123715,22.8700473 C26.6848618,23.3002489 26.6183335,23.746528 26.6147696,24.1955817 C26.6401031,25.045152 26.7971714,25.8947223 26.9035724,26.7545284 C26.0168969,28.2898964 26.5235686,29.8252644 26.3411668,31.3606324 C26.3411668,31.427165 26.6046361,31.5346408 26.7921047,31.570466 C27.1138215,31.6298301 27.4459587,31.5775222 27.7345141,31.4220471 C28.3601806,31.157292 28.8219476,30.6051899 28.9758598,29.9378581 C29.1987953,28.6583847 29.5433321,27.3789114 29.2899962,26.099438 C29.3203966,25.9407834 29.3558636,25.7821287 29.3761304,25.623474 C29.5226536,24.7301881 29.5020303,23.8170691 29.3153298,22.9314621 C30.7542775,22.0818918 31.6460198,20.6744711 32.9076323,19.6355387 Z" id="Shape"></path>
            </g>
        </g>
    </g>
</svg>